<?xml version="1.0" encoding="UTF-8"?>
<!-- Generator: Adobe Illustrator 27.6.1, SVG Export Plug-In . SVG Version: 6.00 Build 0)  -->
<svg xmlns="http://www.w3.org/2000/svg" xmlns:xlink="http://www.w3.org/1999/xlink" version="1.1" id="Calque_1" x="0px" y="0px" viewBox="0 0 137 137" style="enable-background:new 0 0 137 137;" xml:space="preserve">
<style type="text/css">
	.st0{fill:#FEEDDB;}
	.st1{fill-rule:evenodd;clip-rule:evenodd;fill:#FEEDDB;}
</style>
<g id="Groupe_764">
	<path id="Tracé_1953" class="st0" d="M59.2,11.4c1.1-0.1,2.1-0.2,3.1-0.2c4.9,0.2,9.7,0.4,14.7,0.6c5.4,0.2,10.7,1.3,15.7,3.4   c4.2,1.7,8.2,3.9,12,6.6c2.5,1.9,4.8,4,7.3,6C104.8,14.9,72.7,6.9,59.2,11.4"></path>
	<path id="Tracé_1954" class="st0" d="M119.7,60c-0.1-0.4-0.1-0.7-0.1-0.8c0-0.4-0.3-1.7-0.7-3.7l0,0l-0.1-0.4   c-0.1-0.7-0.3-1.3-0.4-2c0-0.1,0-0.2-0.1-0.3s0-0.2-0.1-0.3c-0.1-0.6-0.2-1.1-0.4-1.6c-0.1-0.3-0.1-0.5-0.2-0.8V50   c-0.2-0.6-0.3-1.3-0.5-1.9c-0.2-0.7-0.4-1.4-0.7-2.3c-0.3-0.9-0.5-1.7-0.9-2.6c-0.2-0.6-0.4-1.2-0.6-1.8c0-0.1-0.1-0.3-0.1-0.4   c-0.3-0.7-0.5-1.4-0.8-2.1c-0.3-0.7-0.6-1.5-0.9-2.3c-3.4-7.8-7.8-12.4-14-14.6c-0.6-0.2-1.1-0.5-1.6-0.9   c-6.1-3.9-13.1-6.4-20.3-7.4c-8.3-1.2-16.8-0.1-24.5,3.3c-6.9,3-13.4,6.9-19.3,11.5c-4.8,3.5-7.6,7-9.4,11.1   c-0.8,1.8-1.5,3.6-2.3,5.4c-0.7,1.7-1.4,3.4-2.1,5.1C17.3,55.5,16,61.2,15.9,67c0,1.3,0,2.5,0,3.5c0,0.7,0.1,2.1,0.2,3.4l0,0v0.3   c0,0.5,0.1,1.1,0.1,1.7c0,0.4,0.1,0.7,0.1,1.1c0,0.2,0,0.3,0.1,0.5v0.1c0,0.2,0.1,0.4,0.1,0.6c0.1,0.4,0.1,0.8,0.2,1.1   c0.1,0.6,0.2,1.1,0.3,1.7c0.1,0.2,0.1,0.5,0.2,0.7c0.1,0.4,0.2,0.7,0.2,0.9c0.1,0.4,0.2,0.7,0.3,1.1c0.1,0.2,0.1,0.4,0.2,0.7   c0.1,0.4,0.2,0.7,0.3,1c0.1,0.1,0.1,0.3,0.2,0.4l0.1,0.3c0.1,0.4,0.3,0.8,0.5,1.2v0.1c1.3,2.8,2.7,5.5,4.3,8.1   c0.6,1.1,1.3,2.3,2,3.4c3.3,5.9,6.6,9.7,10.9,12.2c4,2.4,8.1,4.6,12.3,6.7c11.4,5.3,23.5,6.1,36.1,2.5c3.8-1.2,7.5-2.8,11.1-4.7   c0.6-0.3,1.3-0.6,1.9-0.9c3.7-1.8,8.2-4.4,11.1-9.1c0.5-0.8,1.1-1.7,1.6-2.5c1-1.5,1.9-3,2.8-4.6c0.9-1.8,1.8-3.6,2.6-5.4   c0.2-0.5,0.4-0.9,0.5-1.3c0.6-1.3,1.1-2.7,1.5-4c0.2-0.7,0.4-1.5,0.7-2.7c0.3-1.3,0.7-3.1,1.4-6C120.7,74.8,120.8,68.4,119.7,60    M119.2,73.5c-0.6,4.7-1.5,9.4-2.8,14l0,0l-0.1,0.4c0,0.1-0.1,0.1-0.1,0.2c0,0,0,0.1-0.1,0.1c-0.2,0.6-0.4,1.1-0.6,1.5   c0,0.1-0.1,0.1-0.1,0.2c-1.7,4.2-3.8,8.2-6.4,12l-1.4,2.2c-3.1,5.2-8.6,7.7-13.8,10.2l-0.3,0.1c-7.3,3.8-15.4,5.8-23.6,5.8   c-0.3,0-0.5,0-0.8,0c-8.5-0.2-16.8-2.5-24.2-6.7l-0.3-0.1c-5.8-3.1-11.8-6.2-15.4-12.1c-1-1.5-2.2-3.5-3.3-5.5   c-0.7-1.2-1.3-2.3-1.9-3.3c-3.2-5.1-5.2-10.8-5.8-16.7v-0.1c-0.2-0.7-0.3-3.4-0.4-4.9c0-0.3,0-0.6,0-0.9v-0.3l0,0l0,0   c0-0.4,0-0.9,0-1.3c-0.5-8.5,2.9-16.4,6.2-24.1l0.2-0.5c1.2-2.9,2.5-6.3,4.9-8.9c2.3-2.5,4.9-4.8,7.8-6.6c5.5-4,11.6-7.3,18-9.8   C67,13.7,81.7,15,94.2,21.7c0.6,0.3,1.1,0.6,1.7,1c0.7,0.5,1.5,0.9,2.3,1.3c1.8,0.6,3.5,1.4,5,2.5c5.7,3.9,8.5,10.4,11,16.7   c1.3,3.5,2.4,7.2,3.3,10.9l0,0l0.1,0.2l0.1,0.4c0,0.1,0.1,0.2,0.1,0.3s0.1,0.3,0.1,0.4l0.1,0.4l0,0c0.6,2.8,1,5.6,1.3,8.4   c0,0.6,0.1,1.4,0.2,2.4C119.3,68.7,119.4,71.1,119.2,73.5"></path>
	<path id="Tracé_1955" class="st0" d="M78.1,125c6.9-1.6,13.8-3.3,20-6.9c0.6-0.3,1.3-0.4,1.8-0.7c2.9-1.6,6.2-2.8,8.6-5   c6-5.2,9.8-11.9,12.7-19.4c0.8-2,1.4-4,2-6c2-6.4,2.8-13.2,2.2-19.9c-0.3-4-1.3-8-1.9-12l0,0c-0.2-1-0.3-2-0.4-3   c-0.6-5.1-2.8-9.5-5.3-13.8c-0.5-0.8-1.1-1.6-1.7-2.4c-0.2,0.1-0.3,0.2-0.5,0.3c0.1,0.3,0.2,0.5,0.3,0.8c2.4,4.9,4.1,10.1,5.1,15.4   v0.1c0,0.2,0.1,0.8,0.3,1.4c0.1,0.3,0.1,0.6,0.2,1c0,0.1,0,0.1,0,0.2c0,0.2,0.1,0.4,0.1,0.6c0,0,0,0.1,0,0.2c0,0.1,0,0.1,0,0.2   c0,0.2,0.1,0.4,0.1,0.6c0,0.1,0,0.3,0.1,0.4c0,0.1,0,0.1,0,0.2c0.1,0.4,0.1,0.8,0.2,1.3c0,0.3,0.1,0.5,0.1,0.8c0,0.1,0,0.3,0.1,0.4   c0.1,0.4,0.1,0.9,0.2,1.3c0,0.4,0.1,0.8,0.1,1.2c0.3,2.8,0.4,5.6,0.2,8.5c0,0.3,0,0.6-0.1,0.9c0,0.2,0,0.5-0.1,0.7   c-0.1,0.5-0.1,1-0.2,1.4c-0.2,1.7-0.5,3.4-0.9,5.2l0,0c-0.4,1.8-0.8,3.6-1.3,5.4c-0.3,1-0.6,1.9-0.9,2.9l0,0c0,0-0.1,0.5-0.2,0.6   l0,0c-2.1,6.4-5.1,12.5-8.8,18.1c-3.3,5.1-8.3,8.2-13.5,11.2c-11.6,6.7-23.8,8.5-36.8,6.6c-8.4-1.2-16-4.9-23.2-9   c-3.1-1.7-5.9-3.9-8.1-6.5c-0.6-0.7-1.1-1.4-1.7-2.1l0,0c-0.5-0.7-1.1-1.4-1.6-2.1l-0.1-0.1c-0.3-0.4-0.6-0.9-0.9-1.3   c-0.5-0.8-1.1-1.6-1.6-2.4c-0.4-0.6-0.7-1.2-1.1-1.7c-0.4-0.6-0.7-1.1-1.1-1.7c-0.5-0.8-1-1.6-1.5-2.5l0,0l0,0   c-0.3-0.5-0.5-0.9-0.8-1.4c0,0,0,0,0-0.1c-0.1-0.2-0.3-0.5-0.4-0.7s-0.2-0.4-0.3-0.6c-0.3-0.5-0.5-1.1-0.7-1.6   c-0.2-0.4-0.3-0.8-0.5-1.2c0-0.1-0.1-0.1-0.1-0.2s-0.1-0.2-0.1-0.3C16,88.2,16,88,16,87.9s-0.1-0.1-0.1-0.2v-0.1   c0-0.1-0.1-0.2-0.1-0.3c0-0.1-0.1-0.2-0.1-0.3c-0.1-0.2-0.1-0.4-0.2-0.6l-0.2-0.7c-0.1-0.2-0.1-0.5-0.2-0.7c0-0.1-0.1-0.2-0.1-0.3   c-0.1-0.3-0.1-0.5-0.2-0.7l0,0v-0.1c-0.1-0.3-0.2-0.7-0.2-1v-0.1c0-0.1-0.1-0.2-0.1-0.3c-0.1-0.2-0.1-0.4-0.1-0.6   c0-0.1,0-0.2-0.1-0.3c-0.1-0.5-0.2-1-0.3-1.5c0-0.1,0-0.2,0-0.3c-0.1-0.3-0.1-0.6-0.1-0.9c0-0.1,0-0.2,0-0.3   c-0.1-0.5-0.1-1-0.2-1.5c-0.1-0.5-0.1-1-0.1-1.5c0-0.1,0-0.2,0-0.2l0,0c-0.1-2.1-0.1-4.6-0.1-5.6c0-0.5,0-0.9,0-1.4   c0.1-4.2,0.7-8.3,1.8-12.3c1.3-4.6,3-9.2,4.9-13.6c0.3-0.6,0.5-1.2,0.8-1.8c0.4-0.9,0.8-1.8,1.2-2.6c0,0,0-0.1,0.1-0.1   c0.2-0.5,0.5-0.9,0.7-1.3c0.2-0.4,0.4-0.7,0.6-1.1c0.2-0.4,0.4-0.8,0.7-1.1c0.4-0.6,0.7-1.1,1.1-1.6l0,0c0.2-0.3,0.4-0.5,0.6-0.8   c0.2-0.2,0.4-0.4,0.5-0.6c0.1-0.1,0.2-0.2,0.3-0.3c0.1-0.1,0.2-0.2,0.3-0.3c0.2-0.2,0.4-0.4,0.7-0.6c0.1-0.1,0.3-0.3,0.5-0.4   c0.2-0.2,0.4-0.3,0.6-0.5c7.5-6.1,15.9-11,24.8-14.7c1.2-0.5,2.5-0.9,3.8-1.3c-1.1-0.3-2.2-0.3-3.3,0c-8.6,2.3-15.9,6.9-23.1,11.8   c-3.9,2.6-7.2,6-9.6,10c-0.2,0.4-0.5,0.8-0.7,1.2c-0.2,0.3-0.3,0.5-0.4,0.8c-0.8,1.4-1.4,2.8-2.1,4.2c-0.1,0.2-0.2,0.3-0.2,0.5   c-0.2,0.4-0.3,0.7-0.5,1.1c-0.1,0.3-0.2,0.6-0.3,0.8c-0.4,0.9-0.7,1.8-1,2.7c-0.4,1.1-0.8,2.2-1.1,3.3c-0.2,0.6-0.3,1.1-0.5,1.7   c-0.3,1.1-0.6,2.3-0.8,3.4c-0.2,1.2-0.5,2.3-0.7,3.5c-0.1,0.6-0.2,1.2-0.3,1.8s-0.2,1.2-0.3,1.8c-0.1,0.4-0.1,0.8-0.2,1.1   c-0.1,1-0.3,1.9-0.4,2.9c-0.1,0.5-0.1,1.1-0.2,1.6l-0.1,1.1c0,0.1,0,0.3,0,0.4c-0.4,2.4-0.4,4.8-0.2,7.2c0,0.2,0,0.4,0.1,0.6   c0,0.1,0,0.3,0,0.5l0,0c0,0.2,0.1,0.5,0.1,0.7s0.1,0.4,0.1,0.7c0,0.1,0,0.2,0,0.3l0.1,0.5c2,9.4,5.2,18.1,11.6,25.2   c4.3,4.8,9.1,9.1,14.5,12.7s11.2,6.5,17.4,8.6C62.8,127.8,70.6,126.8,78.1,125"></path>
	<path id="Tracé_1956" class="st1" d="M89.5,78.5c0.9-17.9-9.9-27.4-20.7-39.6c-11.2,12.7-20,20.7-21.3,38.6   C46.6,89.8,55.3,96.9,66.8,98c0.1-0.9,0.1-2,0.2-3c-0.1-6.6,0.8-7-3.4-12.5c-2.2-2-4.1-4.1-4.5-7.2c2.5,2.9,5.3,5.5,7.8,8.5   c0.1,0,0.3,0,0.4,0.2c0.6-12.3,1.5-9.3-6.1-18.6H61c-0.2-0.6-0.8-0.8-0.8-1.5c-0.4,0-0.4-0.3-0.4-0.6c-0.7-0.3-0.9-1.1-1.4-1.7   c0.5-0.6,0.7,0.2,1.3,0.4c0.5,0.5,1.1,0.9,1.7,1.3c0,0.5,0.3,0.6,0.8,0.5v0.3c0.4,0.1,0.7,0.4,0.7,0.8c1.1,0.6,2.2,1.5,3,2.6   c0.7,0.8,1.7,1.2,1.9,2.3c0.3-5.8-0.1-11.5,2-17c-0.1,5.5-0.3,11.1-0.3,16.6c1.1-0.9,2.2-1.7,3.4-2.4c1.7-2.1,3.9-3.6,6.4-4.5   c0.3,0,0.5,0,0.8,0c-2.9,2.5-5.5,5.3-8.5,7.8c-3.4,4.3-1.8,9.3-2.3,14.4c1.8-1.7,3.3-3.6,5.4-4.8v-0.2c0.6-0.2,0.8-0.9,1.5-0.8   c0-0.4,0.3-0.4,0.6-0.4c0.3-0.8,1.1-0.9,1.7-1.4c0.6,0.5-0.2,0.7-0.3,1.3c-0.5,0.5-0.9,1.1-1.2,1.8c-0.5,0-0.6,0.4-0.5,0.8h-0.3   c-0.1,0.4-0.4,0.7-0.8,0.8c-1.3,2-3,3.9-4.9,5.4c-0.3,0.3-1.1,0.7-1.2,1.3c-0.1,0-0.1,0-0.1,0c0.1,3.3,0,6.8-0.1,10   C82.4,98.2,88.9,90.6,89.5,78.5 M58.3,61.3L58.3,61.3L58.3,61.3L58.3,61.3 M78.7,76.7C78.7,76.6,78.7,76.6,78.7,76.7   C78.8,76.6,78.8,76.7,78.7,76.7"></path>
</g>
</svg>
