<?xml version="1.0" encoding="UTF-8"?>
<!-- Generator: Adobe Illustrator 27.6.1, SVG Export Plug-In . SVG Version: 6.00 Build 0)  -->
<svg xmlns="http://www.w3.org/2000/svg" xmlns:xlink="http://www.w3.org/1999/xlink" version="1.1" id="Calque_1" x="0px" y="0px" viewBox="0 0 137 137" style="enable-background:new 0 0 137 137;" xml:space="preserve">
<style type="text/css">
	.st0{fill:#FEEDDB;}
</style>
<g>
	<path id="Tracé_2120" class="st0" d="M123.6,51.3c-1.4-4.7-3.7-9.1-5.9-13.5c-2.2-4.6-5-8.8-9.6-11.6c-2.5-1.5-4.8-3.2-7.4-4.5   c-1.8-1-3.7-1.9-5.6-2.7c-0.4-0.2-0.9-0.4-1.3-0.6c-1.4-0.6-2.7-1.1-4.1-1.6c-1.6-0.5-3.3-0.7-9-2.1c-7.8-1.9-19.9,0-20.7,0   c-0.5,0-2.7,0.5-4.1,0.7v0c-0.7,0.1-1.5,0.3-2.2,0.4c-0.2,0.1-0.5,0.1-0.7,0.2c-0.6,0.1-1.1,0.3-1.7,0.4c-0.3,0.1-0.5,0.1-0.8,0.2   c-0.7,0.2-1.4,0.4-2,0.5c-0.8,0.2-1.6,0.5-2.4,0.7c-0.9,0.3-1.8,0.6-2.7,0.9c-0.6,0.2-1.3,0.4-1.9,0.7c-0.1,0-0.3,0.1-0.4,0.2   c-0.7,0.3-1.5,0.6-2.2,0.8c-0.8,0.3-1.6,0.6-2.4,1c-6.9,3-12.7,7.2-15.3,14.7c-0.2,0.6-0.5,1.1-0.8,1.6c-4.1,6.4-6.7,13.7-7.7,21.2   c-1.3,8.7-0.1,17.6,3.4,25.6c3.2,7.2,7.2,13.9,11.9,20.1c3.2,4.2,6.7,7.8,11.7,9.8c3.6,1.5,7.3,3.1,10.9,4.6   c5.6,2.5,11.6,3.8,17.7,4c1.2,0,2.4,0,3.6,0c0.9,0,2.5-0.1,3.8-0.2v0h0c0.6,0,1.2-0.1,1.8-0.2c0.4,0,0.8-0.1,1.1-0.1   c0.2,0,0.3,0,0.5-0.1c0.2,0,0.5-0.1,0.7-0.1c0.4-0.1,0.8-0.1,1.2-0.2c0.6-0.1,1.2-0.2,1.7-0.3c0.3-0.1,0.5-0.1,0.8-0.2   c0.3-0.1,0.7-0.2,1-0.2c0.4-0.1,0.8-0.2,1.2-0.3c0.2-0.1,0.5-0.1,0.7-0.2c0.4-0.1,0.7-0.2,1.1-0.4c0.3-0.1,0.5-0.2,0.8-0.3   c0.4-0.2,0.8-0.3,1.3-0.5c4.2-1.8,8-4.3,12-6.5c5.1-2.8,9.7-6.3,12.8-11.4c2.5-4.1,4.8-8.4,6.9-12.8   C126.7,76.8,127.3,64.1,123.6,51.3 M116.1,92.5c-3.3,6.2-6.5,12.4-12.7,16.2c-2.5,1.7-6.5,3.8-9.1,5.4c-5.2,3.3-11.2,5.3-17.3,6   c0,0,0,0,0,0c-0.6,0.1-3.1,0.3-5.1,0.4h0c-0.3,0-0.6,0-0.9,0v0c-0.6,0-1.1,0-1.7,0c-9,0.5-17.3-3.2-25.4-6.6   c-3.3-1.3-6.5-2.7-9.2-5.1c-2.6-2.4-4.9-5.1-6.8-8.1c-4.2-5.7-7.6-12-10.2-18.6c-5.1-13.2-3.2-28.3,3.4-40.6   c0.7-1.4,1.7-2.7,2.4-4.2c0.6-1.8,1.5-3.6,2.6-5.1c4-5.8,10.8-8.8,17.2-11.3c3.7-1.4,7.6-2.6,11.4-3.4v0l0.4-0.1   c0.2-0.1,0.5-0.1,0.7-0.2v0c3-0.6,6-1.1,9-1.4c2,0,5.9-0.7,9.9-0.3c5,0.6,10,1.6,14.9,3.1v0c0.1,0,0.2,0.1,0.3,0.1   c0.6,0.2,1.1,0.4,1.6,0.6c0,0,0.1,0.1,0.1,0.1c4.4,1.8,8.5,4,12.4,6.6l2.2,1.5c5.4,3.3,8,9,10.6,14.6   C125.3,58.1,125,77.1,116.1,92.5"></path>
	<path id="Tracé_2121" class="st0" d="M128.3,58.1c-1.7-7.1-3.4-14.4-7.2-20.8c-0.3-0.6-0.4-1.3-0.7-1.9c-1.7-3-3-6.4-5.2-9   c-5.4-6.2-12.4-10.2-20.2-13.2c-2.1-0.8-4.2-1.5-6.3-2.1c-6.7-2.1-13.7-2.9-20.7-2.3c-4.2,0.4-8.3,1.3-12.4,2h0   c-1,0.2-2.1,0.3-3.1,0.4c-5.3,0.6-9.9,2.9-14.4,5.5c-0.9,0.5-1.7,1.2-2.5,1.8c0.1,0.2,0.2,0.3,0.3,0.5c0.3-0.1,0.5-0.2,0.8-0.3   c5.1-2.5,10.4-4.3,16-5.3c0,0,0.1,0,0.1,0c0.2,0,0.8-0.1,1.5-0.3c0.3-0.1,0.7-0.1,1-0.2l0.2,0c0.2-0.1,0.4-0.1,0.7-0.1   c0,0,0.1,0,0.2,0c0.1,0,0.1,0,0.2,0c0.2,0,0.4-0.1,0.6-0.1c0.1,0,0.3,0,0.4-0.1l0.2,0c0.4-0.1,0.9-0.1,1.3-0.2   c0.3,0,0.6-0.1,0.8-0.1c0.1,0,0.3-0.1,0.4-0.1c0.5-0.1,0.9-0.1,1.4-0.2c0.4-0.1,0.8-0.1,1.2-0.2c2.9-0.3,5.9-0.4,8.8-0.2   c0.3,0,0.6,0,0.9,0.1c0.2,0,0.5,0,0.7,0.1c0.5,0.1,1,0.1,1.5,0.2c1.8,0.2,3.6,0.5,5.4,0.9c0,0,0,0,0.1,0c1.9,0.4,3.7,0.9,5.6,1.4   c1,0.3,2,0.6,3,0.9v0c0,0,0.5,0.1,0.7,0.2l0,0c6.6,2.2,13,5.3,18.8,9.1c5.3,3.5,8.5,8.6,11.7,14c6.9,12,8.8,24.7,6.8,38.2   c-1.3,8.7-5,16.6-9.4,24.1c-1.7,3.2-4,6.1-6.8,8.5c-0.7,0.6-1.5,1.2-2.2,1.7l0,0c-0.7,0.5-1.5,1.1-2.2,1.6c0,0-0.1,0.1-0.1,0.1   c-0.5,0.3-0.9,0.7-1.4,1c-0.8,0.6-1.6,1.1-2.4,1.6c-0.6,0.4-1.2,0.8-1.8,1.1s-1.2,0.7-1.8,1.1c-0.8,0.5-1.7,1-2.6,1.6l-0.1,0   l-0.1,0c-0.5,0.3-0.9,0.5-1.4,0.8c0,0,0,0-0.1,0c-0.2,0.1-0.5,0.3-0.7,0.4s-0.4,0.2-0.7,0.3c-0.5,0.3-1.1,0.5-1.6,0.8   c-0.4,0.2-0.9,0.4-1.3,0.5c-0.1,0-0.2,0.1-0.2,0.1s-0.2,0.1-0.3,0.1c-0.1,0.1-0.3,0.1-0.4,0.2c-0.1,0-0.2,0.1-0.2,0.1   c0,0-0.1,0-0.1,0.1c-0.1,0.1-0.2,0.1-0.3,0.1c-0.1,0-0.2,0.1-0.3,0.1c-0.2,0.1-0.4,0.1-0.6,0.2l-0.7,0.2c-0.2,0.1-0.5,0.2-0.7,0.2   c-0.1,0-0.2,0.1-0.3,0.1c-0.3,0.1-0.5,0.1-0.8,0.2c0,0,0,0,0,0c0,0-0.1,0-0.1,0c-0.3,0.1-0.7,0.2-1,0.2c0,0-0.1,0-0.1,0   c-0.1,0-0.2,0.1-0.3,0.1c-0.2,0.1-0.4,0.1-0.6,0.1c-0.1,0-0.2,0-0.3,0.1c-0.5,0.1-1,0.2-1.6,0.3c-0.1,0-0.2,0-0.3,0.1   c-0.3,0.1-0.6,0.1-1,0.1c-0.1,0-0.2,0-0.3,0.1c-0.5,0.1-1,0.1-1.5,0.2c-0.5,0.1-1,0.1-1.5,0.1c-0.1,0-0.2,0-0.2,0h0   c-2.2,0.1-4.8,0.1-5.8,0.1c-0.5,0-1,0-1.4,0c-4.3-0.1-8.6-0.8-12.8-1.8c-4.8-1.4-9.5-3.1-14.1-5.1c-0.6-0.3-1.3-0.5-1.9-0.8   c-0.9-0.4-1.8-0.8-2.7-1.3c0,0-0.1,0-0.1-0.1c-0.5-0.2-0.9-0.5-1.4-0.7c-0.4-0.2-0.7-0.4-1.1-0.6c-0.4-0.2-0.8-0.5-1.2-0.7   c-0.6-0.4-1.2-0.8-1.7-1.2l0,0c-0.3-0.2-0.5-0.4-0.8-0.6c-0.2-0.2-0.4-0.4-0.7-0.6c-0.1-0.1-0.2-0.2-0.3-0.3   c-0.1-0.1-0.2-0.2-0.3-0.3c-0.2-0.2-0.5-0.4-0.7-0.7c-0.2-0.2-0.3-0.3-0.4-0.5c-0.2-0.2-0.3-0.4-0.5-0.6   c-6.3-7.8-11.5-16.5-15.3-25.8c-0.5-1.3-0.9-2.6-1.3-3.9c-0.3,1.1-0.3,2.3,0,3.4c2.3,8.9,7.1,16.5,12.3,24c2.7,4.1,6.2,7.5,10.4,10   c0.4,0.2,0.8,0.5,1.2,0.7c0.3,0.2,0.5,0.3,0.8,0.4c1.4,0.8,2.9,1.5,4.3,2.2c0.2,0.1,0.4,0.2,0.5,0.2c0.4,0.2,0.7,0.3,1.1,0.5   c0.3,0.1,0.6,0.2,0.9,0.4c0.9,0.4,1.9,0.7,2.8,1.1c1.1,0.4,2.3,0.8,3.5,1.1c0.6,0.2,1.2,0.3,1.7,0.5c1.2,0.3,2.4,0.6,3.6,0.9   s2.4,0.5,3.6,0.7c0.6,0.1,1.2,0.2,1.8,0.3s1.2,0.2,1.8,0.3c0.4,0.1,0.8,0.1,1.2,0.2c1,0.1,2,0.3,3,0.4c0.6,0.1,1.1,0.2,1.7,0.2   l1.2,0.1c0.1,0,0.3,0,0.4,0c2.5,0.4,5,0.5,7.5,0.2c0.2,0,0.4,0,0.6-0.1c0.1,0,0.3,0,0.5-0.1h0c0.2,0,0.5-0.1,0.7-0.1l0.7-0.1   c0.1,0,0.2,0,0.3-0.1l0.6-0.1c9.7-2,18.8-5.4,26.2-12.1c5-4.5,9.4-9.5,13.2-15c3.8-5.6,6.8-11.7,8.9-18.1   C131.2,74.1,130.1,65.9,128.3,58.1"></path>
	<path id="Tracé_2122" class="st0" d="M20.2,31.2C10,37.6,4.4,63.7,7.8,75.4C6,59.1,11.9,44.8,20.2,31.2"></path>
	<path id="Tracé_2123" class="st0" d="M80,96.9c2.3-3.4,4.1-7.1,5.6-11c-2.3-0.1-4.5,0.1-6.8,0.5c-2.5,0.5-4.9,1.3-7.1,2.5   l-0.6,0.2l-0.4,0.4c-1.5,0.9-2.8,2-3.9,3.4c-1.1,1.3-1.8,2.9-2,4.6c-0.1,0.2-0.1,0.5-0.1,0.7c0,0.1,0,0.3,0,0.4c0,0.2,0,0.3,0,0.5   c0.1,0.2,0.1,0.4,0.2,0.6c0.4,1.8,1.2,3.4,2.5,4.7c0.3,0.3,0.5,0.5,0.8,0.8c0.2-0.1,0.4-0.1,0.6-0.2C73.3,103.5,77,101.5,80,96.9"></path>
	<path id="Tracé_2124" class="st0" d="M66.1,105.5c-0.1-0.2-0.2-0.3-0.3-0.5c-0.2-0.2-0.4-0.4-0.8-0.8c-0.2-0.3-0.4-0.7-0.5-1.1   c-0.6-1-0.9-2-1.2-3.1l-0.1-0.3l-0.1-0.4c0-0.1,0-0.2,0-0.4l0-0.4c0-0.3,0-0.7,0-1c0-0.2,0-0.3,0.1-0.5c0-0.2,0-0.3,0.1-0.5   c0.1-0.2,0.2-0.5,0.3-0.7c0-0.2,0-0.3,0.1-0.6c0.3-0.9,0.7-1.8,1.3-2.6l0.4-0.4c0.7-0.9,1.4-1.7,2.3-2.4l0.6-0.3   c1.9-1.5,4-2.6,6.3-3.3l0.8-0.1c0.4-0.1,0.8-0.2,1.2-0.4c0.4-0.1,0.8-0.2,1.3-0.3l0.7,0c0.8-0.2,1.7-0.3,2.5-0.4c0.2,0,0.5,0,0.7,0   l0.5-0.1c1.3-0.1,2.5-0.1,3.8-0.1c1.3-3.9,2.1-7.9,2.1-12c0-1.8,2.3-6.2-0.2-7.8c-0.3-0.2-1.4,0.2-1.8,0.8   c-1.9,3.1-3.2,6.6-3.6,10.3c-0.1,0.6-0.2,1.3-0.3,1.9c-4.5,4-4.1-4.7-4.1-4.7v0c0.1-2.6,0.1-5.2,0.1-7.8c0-2.1,0.3-4.1,0.3-6.3   c0-1.1,0.1-2.4,0.1-3.6c0,0,0-0.1,0-0.2c0-1.1,0-2.4,0-3.4c-0.1-2.5-0.3-4.9-0.5-7.3c0-0.4-0.1-0.7-0.1-1s-0.1-0.7-0.1-1   c0,0,0-0.1,0-0.1c-0.1-0.9-0.1-1.8-0.3-2.7c-0.1-0.8-0.3-1.5-0.6-2.2c-0.1-0.2-0.2-0.4-0.3-0.5c-0.1-0.2-0.3-0.3-0.5-0.4   c-0.1-0.1-0.2-0.1-0.3-0.2c0,0,0,0-0.1,0c0,0,0,0,0,0s0,0-0.1,0s-0.1,0-0.2,0.1s-0.2,0.1-0.3,0.3c-0.2,0.3-0.4,0.6-0.6,1   c-0.3,0.8-0.6,1.7-0.8,2.5c-0.2,0.7-0.4,1.7-0.5,2.5c0,0.2-0.1,0.4-0.1,0.7c-0.1,0.7-0.2,1.4-0.2,2.1c0,3.3-0.1,6.5-0.3,9.8   c0,0.4-0.1,0.9-0.1,1.4c-0.1,1.9-0.2,3.4-0.3,5.4c-0.1,2.3,0,4.9,0,7.3c0,0.3-0.3,0.6-0.6,0.5c0,0-0.1,0-0.1,0c0,0-0.1,0-0.1,0   c-0.2,0-0.3-0.1-0.4-0.2c-0.1-0.1-0.2-0.3-0.2-0.4c-0.1-1.1-0.2-2.1-0.2-3.3c0-1.3,0.1-2.8,0.1-4.1c0-1.9,0-4,0.1-5.8   c0.1-2.6,0.1-5,0.2-7.4c0-1.2,0.1-2.2,0.2-3.3c0-2.2,0-4.6-0.2-6.7c-0.1-1.1-0.3-2.2-0.5-3.3c-0.2-0.7-0.4-1.4-0.6-2.1   c-0.2-0.5-0.5-0.9-0.8-1.3c-0.1-0.1-0.2-0.3-0.4-0.4c0-0.1-0.1-0.1-0.2-0.1c-0.1,0,0,0-0.1,0s-0.1,0-0.2,0.1s-0.2,0.1-0.3,0.3   c-0.3,0.3-0.5,0.7-0.7,1c-0.6,1.4-1,2.8-1.3,4.2c-0.1,0.7-0.2,1.8-0.3,2.7c0,0.4-0.1,1-0.1,1.4c0,0,0,0.1,0,0.1   c0,0.6-0.1,1.2-0.1,1.7c0,1.2-0.1,2.4-0.2,3.6c0,0.1,0,0.3,0,0.4c-0.1,0.8-0.2,1.6-0.2,2.4c-0.1,1.2-0.1,2.4-0.2,3.7   c0,0.2,0,0.6,0,0.8c-0.1,4.9-0.3,9.8-0.7,14.6c0,0.1,0,0.2-0.1,0.3c0,0-0.1,0.1-0.1,0.1c-0.2,0.1-0.4,0.2-0.6,0.2c0,0-0.1,0-0.1,0   c-0.3-0.1-0.6-0.2-0.6-0.5c-0.1-1.5,0-2.9,0-4.4c0-0.1,0-0.3,0-0.4c0-0.6,0.1-1.1,0.1-1.7c0-0.3,0-0.6,0-0.9c0,0,0,0,0,0   c0-0.4,0-0.8,0.1-1.3c0.1-1.7,0.2-3.5,0.2-5.2c0,0,0-0.1,0-0.2c0-0.7,0-1.3,0-2.1c0-0.9,0-1.9-0.1-2.8s0-1.8,0-2.6   c0-0.6,0.1-1.3,0.1-1.9c0-1.2,0-2.4,0-3.6c0-0.2,0-0.6,0-0.8c0-0.4,0-0.7,0-1.1c0-0.1,0-0.2,0-0.3c0-0.4,0-0.8,0-1.2   c0-0.5,0-0.9,0.1-1.4c0,0,0,0,0-0.1c0.1-1.2,0.1-2.4,0-3.5c-0.1-0.6-0.2-1.1-0.4-1.6c-0.1-0.3-0.3-0.5-0.4-0.7   c-0.1-0.1-0.2-0.2-0.3-0.3c0,0-0.1-0.1-0.1-0.1c-0.1,0,0,0-0.1,0c-0.1,0-0.2,0.1-0.2,0.1c-0.1,0.1-0.3,0.2-0.4,0.3   c-0.4,0.5-0.7,1-1,1.6c-0.5,1.1-1,2.3-1.3,3.5c-0.6,2.4-1.1,4.8-1.4,7.3c-0.4,2.3-0.4,4.2-0.6,6.5c-0.2,2.1-0.5,4.4-0.6,6.6   c-0.1,2.9,0,5.7-0.1,8.6c0,1.4,0,2.8-0.1,4.3c-0.1,0.3-0.3,0.5-0.6,0.6c-0.1,0-0.1,0-0.2,0c-0.2,0-0.4,0-0.6-0.1   c-0.1-0.1-0.2-0.2-0.2-0.4c0,0,0-0.1,0-0.1c0-0.2,0-0.3,0-0.4s0-0.3,0-0.5c0-0.3,0-0.6,0-0.9c-0.1-2.5-0.3-4.9-0.4-7.5   c0-0.7,0-1.5,0-2.2c0-0.5,0-0.9,0-1.4s0-1,0-1.5c0-0.2,0-0.5,0-0.7c0-0.6,0.1-1,0.1-1.6s0.1-1.3,0.2-1.9c0-0.1,0-0.2,0-0.3   c0-0.3,0-0.5,0.1-0.8c0-0.4,0.1-0.8,0.1-1.2c0,0,0,0,0,0s0,0,0-0.1s0-0.3,0-0.4c0.1-0.7,0.1-1.4,0.2-2.1c0-0.7,0-1.3,0-2   c0-0.4-0.1-0.8-0.3-1.1c0-0.1-0.1-0.2-0.2-0.3c-0.1-0.1-0.1-0.1-0.1-0.1c-0.1-0.1-0.1-0.1-0.2-0.1c0,0,0,0-0.1,0c0,0,0,0,0,0   s0,0-0.1,0s-0.1,0-0.2,0.1c-0.1,0.1-0.2,0.1-0.3,0.2c-0.2,0.3-0.4,0.5-0.5,0.8c-0.3,0.6-0.5,1.3-0.7,2c-0.2,0.6-0.3,1.3-0.5,2   c-0.1,0.5-0.2,0.9-0.4,1.5c-0.3,1-0.6,2.2-0.9,3.4c-0.2,0.7-0.4,1.6-0.5,2.4c0,0.2-0.1,0.5-0.1,0.7C48.5,62.5,48,69.9,48,77.2   l0.1,0l1,0.6l0.9,0.5c0.5,0.1,1.1,0.2,1.4,0.3c1.4,0.5,1.8,0.8,2.8,1.1c0.3,0,0.6,0,1.2,0.1c0.5,0.1,1.1,0.2,1.6,0.2l0.9,0.1   c0.3,0,0.6,0,0.9,0c0.3,0.1,0.6,0.1,1,0.2c0.4,0,0.8,0,1.2-0.1c0.4-0.1,0.9-0.1,1.3-0.1l0.8-0.1c0.2,0,0.5-0.1,0.7-0.1   c0.5-0.1,0.9-0.2,1.4-0.2c0.8-0.2,1.6-0.6,2.4-1l0.3,0.5c-1.8,1-3.8,1.6-5.8,1.9l-1,0.3l-0.9-0.1c-0.6,0.1-1.2,0.1-1.7,0.1   c-0.6,0-1.2-0.1-1.8-0.2c-0.5,0-0.8,0-1.1,0c-1.8-0.3-3.6-0.8-5.3-1.4c-0.7-0.1-1.4-0.3-2-0.6c0,1.2,0,2.4,0,3.6c0,0,0,0,0,0.1   c0,1.8,0.2,3.7,0.6,5.5c1,3,2.3,5.8,4.1,8.4c2.1,3.2,2.8,5.1,6.2,6.7C61.4,104.7,63.5,105.7,66.1,105.5L66.1,105.5"></path>
</g>
</svg>
