<?xml version="1.0" encoding="UTF-8"?>
<!-- Generator: Adobe Illustrator 27.6.1, SVG Export Plug-In . SVG Version: 6.00 Build 0)  -->
<svg xmlns="http://www.w3.org/2000/svg" xmlns:xlink="http://www.w3.org/1999/xlink" version="1.1" id="Calque_1" x="0px" y="0px" viewBox="0 0 200 200" style="enable-background:new 0 0 200 200;" xml:space="preserve">
<style type="text/css">
	.st0{fill:#1B2024;}
</style>
<g id="Groupe_566">
	<path id="Tracé_1678" class="st0" d="M172.6,74.2c0.5,1.6,1.1,3.2,1.5,4.8c1.6,7.5,3.7,15.1,4.6,22.7c1,8.4,0.4,16.8-3.2,24.8   c-3,6.5-5.3,13.4-10.2,18.8c-3.4,3.8-6.4,7.9-9.6,11.9C177.3,146.8,188,95.3,172.6,74.2 M37,54.7c-12.8,8-19.9,40.9-15.7,55.7   C19.1,89.8,26.6,71.9,37,54.7 M60.4,170.3c9,5,17.5,9.1,27.5,7.9C79,175.6,70,173,60.4,170.3 M26.7,132.2   c3.5,9.5,7.9,18.5,15.6,25.6C37,149.2,31.9,140.7,26.7,132.2"></path>
	<path id="Tracé_1679" class="st0" d="M173.2,88.4c-2.1-9-4.3-18.1-9-26.2c-0.4-0.7-0.5-1.7-0.9-2.4c-2.1-3.8-3.7-8.1-6.5-11.3   c-6.8-7.8-15.6-12.9-25.4-16.6c-2.6-1-5.3-1.9-7.9-2.6c-1-5.2-3-9.9-7-13C106.3,8.1,82.3,3.4,82.3,3.4s-0.2,7.5-0.4,19.1   c5.8-0.6,11.7-0.7,17.6-0.3c-6,1.2-11.9,2.3-17.7,3.4c0,1-0.1,2.1-0.1,3.2c-1.3,0.2-2.6,0.4-4,0.6c-6.7,0.8-12.4,3.7-18.1,6.9   c-1.1,0.7-2.1,1.5-3.2,2.3c0.2,0.2,0.3,0.4,0.4,0.6c0.3-0.2,0.7-0.2,1-0.4c7.5-3.9,15.6-5.8,23.7-7.3c0,1.1-0.1,2.2-0.1,3.3   c0,0,2-0.3,5.3-0.8c3.2-0.4,6.3-0.7,9.5-0.8c2.1-0.1,4.2-0.4,6.3-0.6c2.6,0,5.1,0.2,7.7,0.5h0.1c3.7,0.6,7.4,1.5,11,2.6   c0.9,0.3,1.8,0.6,2.6,0.9c0-0.7-0.1-1.4-0.1-2.1c8.5,2.8,16.7,6.7,24.2,11.6c6.7,4.4,10.7,10.8,14.7,17.7   c8.8,15.1,11.1,31.2,8.6,48.2c-1.6,11-6.4,20.9-11.8,30.4c-2.2,4-5.1,7.7-8.6,10.7c-5.8,4.6-12,8.8-18.5,12.5   c-8.2,4.9-17.1,7-26.3,7.4c0-0.9,0.1-1.8,0.1-2.7c-1.5,0.2-3.1,0.2-4.7,0.3v2.5c-1,0-2.1,0-3.1-0.1c-5.4-0.2-10.8-1-16.1-2.3   c-6.1-1.7-12-3.9-17.8-6.5c-6.4-2.7-13-5.6-17.5-11.2c-7.9-9.8-14.4-20.8-19.3-32.5c-0.7-1.6-1.1-3.3-1.7-4.9   c-0.4,1.4-0.3,2.9,0.1,4.3c2.9,11.2,9,20.9,15.5,30.3c3.4,5.1,7.9,9.4,13.1,12.6c10.8,6.5,22.5,9.9,34.9,11.6   c4,0.6,7.9,1.2,11.9,1.5l-0.2,20.8l4.7-1.5c0,0,0-10.1,0.2-19.2c2.2,0,4.4-0.3,6.6-0.7c12.3-2.6,23.7-6.8,33-15.2   c6.3-5.6,11.9-12,16.6-18.9c4.7-7.1,8.5-14.7,11.2-22.8C176.9,108.6,175.5,98.2,173.2,88.4 M109.4,23.6c3.8-1.9,7.2-0.6,10.5,1.5   C116.4,24.5,112.8,24,109.4,23.6"></path>
	<path id="Tracé_1680" class="st0" d="M163.8,127.6c-2.6,5.5-5.6,10.9-8.7,16.1c-3.8,6.4-9.6,10.8-16.1,14.4   c-5,2.8-9.9,5.9-15.1,8.2c-5.5,2.3-11.4,3.6-17.4,3.9l0,0c0,0,0-0.1,0.1-2.1c0-0.5,0.1-1.3,0.1-2.5v-0.3c0.4-9.2,0.5-10.8,6.1-19.4   c3.3-5.1,6.6-7,8.8-7.7c1.5-0.5,2.4-2,2.4-3.5V63.2c-0.6,0.6-1.2,1-2,1.2l-7.3,3.2c0.5-0.4,8.6-7.1,9.3-14.4   c0-4.8,0.5-10.9,0.3-16.8c4.9,1.7,9.6,3.7,14.1,6.1c3.2,1.7,6.2,3.8,9.3,5.7c5.7,3.5,9.2,8.8,12.1,14.6c2.7,5.6,5.7,11.2,7.4,17.1   C171.8,96.2,171,112.2,163.8,127.6"></path>
	<path id="Tracé_1681" class="st0" d="M101.8,170.4L101.8,170.4c-1.6,0.1-3.1,0.1-4.7,0.1c-7.8,0-15.2-2-22.3-5   c-4.6-1.9-9.2-3.9-13.8-5.8c-6.2-2.6-10.7-7.1-14.7-12.4c-6-7.8-11.1-16.4-15.1-25.4c-4.4-10.1-5.9-21.3-4.3-32.3   c1.3-9.5,4.6-18.6,9.7-26.7c0.5-0.6,0.8-1.3,1.1-2C41,51.4,48.3,46.1,57,42.4c7.9-3.4,16.1-6,24.6-7.6c0,0.1,0,0.4,0,0.7   c0,0.4,0,0.9,0,1.2c0,0.7,0,1.5-0.1,2.5c0,1.1,0,2.5-0.1,4c-0.4,23.1-0.7,51.8-0.5,73c0,0.6,0,1.2,0,1.7c0.1,5.6,0.5,11.2,1.2,16.7   c3,16.1,15.1,16.7,15.1,16.7l1-96.7l4.8-4.1L101.8,170.4z"></path>
</g>
</svg>
