<?xml version="1.0" encoding="UTF-8"?>
<!-- Generator: Adobe Illustrator 27.6.1, SVG Export Plug-In . SVG Version: 6.00 Build 0)  -->
<svg xmlns="http://www.w3.org/2000/svg" xmlns:xlink="http://www.w3.org/1999/xlink" version="1.1" id="Calque_1" x="0px" y="0px" viewBox="0 0 137 137" style="enable-background:new 0 0 137 137;" xml:space="preserve">
<style type="text/css">
	.st0{fill:#FEEDDB;}
</style>
<g id="Groupe_813">
	<path id="Tracé_2125" class="st0" d="M70.3,100.7c-0.2-1.2-0.2-2.5-0.1-3.7c0.3-3.5,2-3.5,1.7-5.7c-0.6,0.3-1.2,0.5-1.8,0.4   c-0.1-4.8-0.7-8.1,0.6-11.2c2.4,2.5,5.7,2.7,9,1.9c0.1,0,0.1-0.2,0.2-0.3c-4.1-2.6-7.6-4.6-9.1-9.4l0.2-0.1   c1.9,1.4,4.1,2.2,6.5,2.5l0.4-0.4c-3.3-3-6.9-5.2-8.3-9.7c1.9,2.1,4.5,3.4,7.4,3.7c-3.3-3.1-5.7-7.2-6.8-11.6   c1.3,1.4,3.1,2.2,5.1,2.3l0.2-0.3c-2.7-2.7-4.9-5.4-5.6-9.3c1,1.3,2.5,2,4.2,2.1c0.1-0.1,0.1-0.1,0.2-0.2   c-3.8-4.1-5.6-9.8-5.7-15.5C66.9,41.5,65.8,49,62.5,52c0.2,0.3,2.9-0.1,4.9-1.7c-1.2,5.1-3.3,8.2-7.3,11.4c1.6,0.8,3.6-0.3,5.2-1.4   c0.4,3.2-2.1,6-4.6,8c1.8,0.5,2.9-0.2,4.6-1.3c0.2,3.7-2,6.3-5.1,8.3c0.5,0.2,1.1,0.3,1.7,0.2c1.5-0.4,3-1.1,4.1-2.2   c-0.3,4.6-3.3,7.5-7.4,9.4c0,0.1,0,0.2,0,0.3c3.4,1.4,5.2-0.1,9.1-1.4c0.9,4-1.3,14-0.2,19C68.5,100.8,69.4,100.8,70.3,100.7"></path>
	<path id="Tracé_2126" class="st0" d="M70.3,100.7c-0.2-1.2-0.2-2.5-0.1-3.7c0.3-3.5,2-3.5,1.7-5.7c-0.6,0.3-1.2,0.5-1.8,0.4   c-0.1-4.8-0.7-8.1,0.6-11.2c2.4,2.5,5.7,2.7,9,1.9c0.1,0,0.1-0.2,0.2-0.3c-4.1-2.6-7.6-4.6-9.1-9.4l0.2-0.1   c1.9,1.4,4.1,2.2,6.5,2.5l0.4-0.4c-3.3-3-6.9-5.2-8.3-9.7c1.9,2.1,4.5,3.4,7.4,3.7c-3.3-3.1-5.7-7.2-6.8-11.6   c1.3,1.4,3.1,2.2,5.1,2.3l0.2-0.3c-2.7-2.7-4.9-5.4-5.6-9.3c1,1.3,2.5,2,4.2,2.1c0.1-0.1,0.1-0.1,0.2-0.2   c-3.8-4.1-5.6-9.8-5.7-15.5C66.9,41.5,65.8,49,62.5,52c0.2,0.3,2.9-0.1,4.9-1.7c-1.2,5.1-3.3,8.2-7.3,11.4c1.6,0.8,3.6-0.3,5.2-1.4   c0.4,3.2-2.1,6-4.6,8c1.8,0.5,2.9-0.2,4.6-1.3c0.2,3.7-2,6.3-5.1,8.3c0.5,0.2,1.1,0.3,1.7,0.2c1.5-0.4,3-1.1,4.1-2.2   c-0.3,4.6-3.3,7.5-7.4,9.4c0,0.1,0,0.2,0,0.3c3.4,1.4,5.2-0.1,9.1-1.4c0.9,4-1.3,14-0.2,19C68.5,100.8,69.4,100.8,70.3,100.7"></path>
	<path id="Tracé_2127" class="st0" d="M57.2,81c0,0.1,0,0.1,0,0.2c-2,0.9-2,1-6.5-0.3c-0.3,3.4,1.2,15,0.8,19.9h-2.1   c0.3-3.7-0.1-12.6-0.1-15.3c0-3.3-0.3-2.9-0.8-5.5c-1.1,1.5-2.8,2.3-4.6,2.4c-0.5,0-1.1,0-1.6-0.1c-1-0.1,3.6-2.3,5.7-8.8   c-0.1,0-0.1-0.1-0.2-0.1c-1.3,1.2-2.8,2.1-4.5,2.7c-0.1-0.1-0.2-0.2-0.3-0.3c2.2-2.8,4.3-5.5,5.3-9c-1.3,1.8-3,3.1-5.1,3.8   c2-3.2,3.3-6.8,3.9-10.5c-0.9,1.2-2.1,2.1-3.5,2.5c-0.1-0.1-0.1-0.1-0.2-0.2c1.7-2.7,2.8-5.6,3.3-8.8c-0.6,1.1-1.7,1.9-2.9,2.2   c-0.7-0.6,2-1.8,3.7-14.9c0.6,4.6,1.4,10.7,4.7,14.1c-0.2,0.7-2.6-0.3-3.8-1.1c1.3,3.6,3.5,6.9,6.5,9.4c-0.3,0.2-0.7,0.3-1.1,0.3   c-2.1-0.3-3.2-1.6-2.9-0.7c0.7,2.4,2.1,4.6,4,6.2c-1,0.3-0.9,0.5-3.4-0.9c0.3,2.8,1.8,5.3,4,6.9c-0.4,0.2-0.8,0.3-1.2,0.3   c-1.1-0.3-2.2-0.8-3.1-1.6C52,77,54.2,79.7,57.2,81"></path>
	<path id="Tracé_2128" class="st0" d="M79.8,75.3c0,0.1,0,0.1,0,0.2c2,0.8,2,0.9,6.5-0.3c0.3,3.2-1.2,21-0.8,25.6h2.1   c-0.3-3.5,0.1-18.7,0.1-21.3c0-3.1,0.3-2.7,0.8-5.2c1.1,1.4,2.8,2.2,4.6,2.3c0.5,0,1.1,0,1.6-0.1c1-0.1-3.6-2.2-5.7-8.4   c0.1,0,0.1-0.1,0.2-0.1c1.3,1.2,2.8,2,4.5,2.6c0.1-0.1,0.2-0.2,0.3-0.3c-2.2-2.7-4.3-5.2-5.3-8.5c1.3,1.7,3.1,2.9,5.1,3.6   c-2-3-3.3-6.4-3.9-10c0.9,1.1,2.1,2,3.5,2.4c0.1-0.1,0.1-0.1,0.2-0.2c-1.7-2.5-2.8-5.3-3.3-8.3c0.7,1,1.7,1.8,2.9,2.1   c0.7-0.6-2-1.7-3.7-14.1c-0.6,4.4-1.4,10.2-4.7,13.4c0.2,0.6,2.6-0.3,3.8-1.1c-1.3,3.5-3.6,6.6-6.5,8.9c0.3,0.2,0.7,0.3,1.1,0.3   c2.1-0.3,3.2-1.5,2.9-0.6c-0.7,2.3-2.1,4.3-4,5.9c0.9,0.2,0.9,0.5,3.4-0.9c-0.4,2.7-1.8,5-4,6.6c0.4,0.2,0.8,0.3,1.2,0.2   c1.1-0.3,2.2-0.8,3.1-1.5C84.7,71.8,83.1,73.7,79.8,75.3"></path>
	<path id="Tracé_2129" class="st0" d="M89.4,82.8c-0.1-0.4-0.5-0.6-0.8-0.5c-0.4,0.2-0.7,0.5-1.1,0.8c-0.4,0.3-0.5,0.4-0.7,0.6   c-0.3,0.1-0.5,0.5-0.4,0.9c0.1,0.2,0.3,0.4,0.6,0.4c0.4,0,0.7-0.2,0.8-0.5c0,0.1,0.2-0.1,0.2-0.2C89.3,83.4,89.6,83.2,89.4,82.8"></path>
	<path id="Tracé_2130" class="st0" d="M60.7,16.5c-6.5,1.7-12.8,4.2-18.7,7.6c-0.5,0.3-1.2,0.4-1.7,0.8c-2.6,1.6-5.6,2.9-7.8,4.9   c-5.2,5-8.6,10.8-11.3,17.5c-0.7,1.7-1.3,3.5-1.7,5.4c-1.5,5.7-2.1,11.7-1.8,17.6c0.3,3.6,1.4,7,1.7,10.6c0,0,0-0.3,0,0.2   c0.1,0.5,0.2,1.6,0.4,2.5c0.9,4.3,2.5,8.4,4.6,12.1c0.5,0.7,1,1.5,1.5,2.1c0.1-0.1,0.3-0.2,0.4-0.3c-0.1-0.2-0.2-0.5-0.2-0.7   c-2-4.4-3.5-8.9-4.5-13.6c0,0,0,0,0-0.1c-0.1-0.4-0.1-0.8-0.2-1.3c0-0.2-0.1-0.6-0.2-0.8c0,0,0-0.1,0-0.2c0-0.2-0.1-0.4-0.1-0.6   c0,0,0-0.1,0-0.1c0,0,0-0.1,0-0.1c0-0.2-0.1-0.4-0.1-0.5s0-0.3-0.1-0.4c0-0.1,0-0.1,0-0.2c-0.1-0.4-0.1-0.8-0.2-1.1   c0-0.2-0.1-0.5-0.1-0.7c0-0.1,0-0.2-0.1-0.4c-0.1-0.4-0.1-0.8-0.2-1.2c-0.1-0.4-0.1-0.7-0.1-1C20,72,20,69.5,20.1,67   c0-0.3,0-0.5,0.1-0.8c0-0.2,0-0.4,0-0.6c0-0.4,0.1-0.8,0.1-1.3c0.2-1.5,0.4-3.1,0.7-4.6c0,0,0,0,0,0c0.4-1.6,0.7-3.2,1.2-4.8   c0.3-0.9,1-1.6,0.7-2.6c0,0,0,0,0,0c0.1-0.2,0.2-0.5,0.3-0.7c0,0-1.1,1.8,0.7-1.2c1.8-3,4.1-10.6,7.2-15c3.3-4.3,7.4-7.9,12.1-10.6   c11.1-6.6,21.2-8.8,34.2-7.5c8.4,0.9,16.4,3.8,23.4,8.5c2.9,2,5.5,4.6,7.5,7.5c0.5,0.8,0.9,1.6,1.4,2.4l0,0   c0.4,0.7,0.8,1.5,1.2,2.3c0,0,0,0.1,0.1,0.1c0.2,0.5,0.5,0.9,0.7,1.4c0.4,0.8,0.7,1.6,1,2.5c0.2,0.6,0.5,1.2,0.7,1.8   s0.4,1.2,0.6,1.8c0.3,0.8,0.6,1.7,0.9,2.6c0,0,0,0,0,0c0,0,0,0,0,0c0.1,0.5,0.3,0.9,0.5,1.4c0,0,0,0,0,0.1c0.1,0.2,0.1,0.5,0.2,0.7   s0.1,0.4,0.2,0.6c0.1,0.5,0.3,1,0.4,1.6c0.1,0.4,0.2,0.8,0.3,1.2c0,0.1,0,0.1,0,0.2c0,0.1,0,0.2,0.1,0.2c0,0.1,0.1,0.3,0.1,0.4   s0,0.2,0,0.2c0,0.1,0,0.1,0,0.1c0,0.1,0,0.2,0.1,0.3s0,0.2,0,0.3c0,0.2,0.1,0.4,0.1,0.6c0,0.2,0.1,0.4,0.1,0.7   c0,0.2,0.1,0.5,0.1,0.7c0,0.1,0,0.2,0,0.3c0,0.2,0.1,0.5,0.1,0.7c0,0,0,0,0,0s0,0.1,0,0.1c0,0.3,0.1,0.6,0.1,0.9c0,0,0,0.1,0,0.1   c0,0.1,0,0.2,0,0.3c0,0.1,0,0.4,0,0.5s0,0.2,0,0.3c0,0.5,0.1,0.9,0.1,1.4c0,0.1,0,0.2,0,0.2c0,0.3,0.1,0.6,0.1,0.9   c0,0.1,0,0.2,0,0.3c0,0.5,0.1,0.9,0.1,1.4s0.1,0.9,0.1,1.4c0,0.1,0,0.2,0,0.2s0,0,0,0c0,1.6,0,3.5,0,4.9c0,0.7,0,0.9,0,1.3   c-0.2,3.7-0.8,7.4-1.8,11c-1.3,4-2.9,8-4.8,11.8c-0.2,0.5-0.5,1-0.8,1.6c-0.4,0.8-0.8,1.5-1.2,2.2c0,0,0,0.1-0.1,0.1   c-0.2,0.4-0.5,0.8-0.7,1.1s-0.4,0.6-0.6,0.9c-0.2,0.3-0.4,0.6-0.6,0.9c-0.3,0.5-0.7,0.9-1.1,1.4l0,0c-0.2,0.2-0.4,0.4-0.6,0.6   c-0.2,0.2-0.3,0.3-0.5,0.5c-0.1,0.1-0.2,0.2-0.3,0.3c-0.1,0.1-0.2,0.2-0.3,0.3c-0.2,0.2-0.4,0.4-0.6,0.5c-0.2,0.1-0.3,0.2-0.5,0.4   c-0.2,0.1-0.4,0.3-0.5,0.4c-7.1,4.7-14.7,8.6-22.6,11.5c-1.1,0.4-2.2,0.6-3.4,1c0.9,0.3,1.9,0.3,2.9,0.1c7.5-1.9,14.3-5.2,21-9.1   c3.5-2.1,6.6-4.9,9.1-8.1c0.2-0.3,0.4-0.7,0.7-1c0.2-0.2,0.3-0.4,0.4-0.6c0.7-1.2,1.4-2.3,2-3.5c0.1-0.1,0.2-0.3,0.2-0.4   c0.1-0.3,0.3-0.6,0.4-0.9s0.2-0.5,0.3-0.7c0.3-0.8,0.7-1.6,1-2.3c0.4-1,0.7-1.9,1.1-2.9c0.2-0.5,0.3-1,0.5-1.5c0.3-1,0.6-2,0.9-3   s0.5-2,0.7-3.1c0.1-0.5,0.2-1,0.3-1.6s0.2-1,0.3-1.6c0.1-0.3,0.1-0.7,0.2-1c0.1-0.9,0.2-1.7,0.4-2.6c0.1-0.5,0.1-0.9,0.2-1.4   c0-0.3,0.1-0.7,0.1-1c0-0.1,0-0.3,0-0.3c0.3-2.1,0.4-4.3,0.3-6.5c0-0.2,0-0.4,0-0.5c0-0.2,0-0.3,0-0.4c0,0,0,0,0,0   c0-0.2,0-0.4-0.1-0.6c0-0.2,0-0.4-0.1-0.6c0-0.1,0-0.2,0-0.3c0-0.1,0-0.3,0-0.5c-1.6-8.7-2.3-17.1-7-24.9   c-3.3-5.5-7.7-10.4-12.8-14.3c-5.3-3.8-11.3-6.6-17.7-8.1C74.8,13.9,68,14.9,60.7,16.5"></path>
	<path id="Tracé_2131" class="st0" d="M86,124.5c4.8-1.4,9.3-3.8,13.9-6c4.7-2.3,9.1-5.2,11.9-9.8c1.5-2.5,3.3-4.9,4.6-7.6   c1-1.9,1.9-3.8,2.7-5.7c0.2-0.4,0.4-0.9,0.6-1.4c0.6-1.4,1.1-2.8,1.6-4.2c0.5-1.6,0.8-3.4,2.2-9.2c2-8,0-20.4,0-21.3   c0-0.5-0.5-2.8-0.8-4.2h0c-0.1-0.8-0.3-1.5-0.5-2.3c-0.1-0.2-0.1-0.5-0.2-0.7c-0.1-0.6-0.3-1.2-0.4-1.7c-0.1-0.3-0.1-0.6-0.2-0.8   c-0.2-0.7-0.4-1.4-0.6-2.1c-0.2-0.8-0.5-1.7-0.7-2.5c-0.3-0.9-0.6-1.9-0.9-2.8c-0.2-0.6-0.4-1.3-0.7-1.9c0-0.1-0.1-0.3-0.2-0.4   c-0.3-0.8-0.6-1.5-0.9-2.2c-0.3-0.8-0.7-1.6-1-2.4c-3-7.1-7.4-13-15-15.7c-0.6-0.2-1.1-0.5-1.7-0.9c-6.6-4.2-14-6.9-21.7-7.9   c-8.9-1.3-18-0.1-26.2,3.5c-7.3,3.2-14.3,7.3-20.6,12.2c-4.4,3.2-8,6.9-10.1,11.9c-1.6,3.7-3.1,7.4-4.7,11.1   c-2.6,5.7-3.9,11.8-4.1,18.1c0,1.2,0,2.5,0,3.7c0,0.9,0.1,2.5,0.2,3.9h0v0c0,0.6,0.1,1.2,0.2,1.8c0,0.4,0.1,0.8,0.1,1.2   c0,0.2,0,0.3,0.1,0.5c0,0.3,0.1,0.5,0.1,0.7c0.1,0.4,0.1,0.8,0.2,1.2c0.1,0.6,0.2,1.2,0.3,1.8c0.1,0.3,0.1,0.5,0.2,0.8   c0.1,0.4,0.2,0.7,0.3,1c0.1,0.4,0.2,0.8,0.3,1.2c0.1,0.2,0.1,0.5,0.2,0.7c0.1,0.4,0.2,0.7,0.4,1.1c0.1,0.3,0.2,0.6,0.3,0.8   c0.2,0.4,0.3,0.9,0.5,1.3c1.8,4.3,4.4,8.2,6.7,12.3c2.9,5.2,6.4,10,11.7,13.1c4.2,2.6,8.6,5,13.1,7.1   C59.9,127.6,72.9,128.3,86,124.5 M43.8,116.7c-6.3-3.4-12.7-6.6-16.6-13c-1.7-2.6-3.9-6.6-5.6-9.3C18.3,89,16.2,83,15.5,76.6   c0,0,0,0,0,0c-0.1-0.6-0.3-3.2-0.4-5.2v0c0-0.3,0-0.7,0-1h0c0-0.6,0-1.2,0-1.8c-0.5-9.2,3.2-17.7,6.8-26c1.4-3.4,2.7-6.7,5.2-9.4   c2.4-2.7,5.2-5,8.3-7c5.9-4.3,12.3-7.8,19.1-10.4c13.5-5.2,29-3.3,41.6,3.5c1.5,0.8,2.7,1.8,4.3,2.4c1.9,0.6,3.6,1.5,5.3,2.6   c6,4.1,9,11.1,11.6,17.7c1.5,3.8,2.6,7.7,3.5,11.7h0l0.1,0.4c0.1,0.3,0.1,0.5,0.2,0.8h0c0.6,3.1,1.1,6.1,1.4,9.3   c0,2.1,0.7,6.1,0.3,10.1c-0.6,5.2-1.7,10.3-3.2,15.3h0c0,0.1-0.1,0.2-0.1,0.3c-0.2,0.6-0.4,1.1-0.6,1.6c0,0-0.1,0.1-0.1,0.1   c-1.8,4.5-4.1,8.7-6.8,12.7l-1.5,2.3c-3.3,5.5-9.2,8.2-14.9,10.9C79.1,126.2,59.6,125.8,43.8,116.7"></path>
</g>
</svg>
