<?xml version="1.0" encoding="UTF-8"?>
<!-- Generator: Adobe Illustrator 27.6.1, SVG Export Plug-In . SVG Version: 6.00 Build 0)  -->
<svg xmlns="http://www.w3.org/2000/svg" xmlns:xlink="http://www.w3.org/1999/xlink" version="1.1" id="Calque_1" x="0px" y="0px" viewBox="0 0 137 137" style="enable-background:new 0 0 137 137;" xml:space="preserve">
<style type="text/css">
	.st0{fill-rule:evenodd;clip-rule:evenodd;fill:#FEEDDB;}
	.st1{fill:#FEEDDB;}
</style>
<g id="Groupe_816">
	<path id="Tracé_2132" class="st0" d="M93.9,93L93.9,93c0-0.3-0.1-0.6-0.3-0.9l0,0c-0.3-0.5-0.7-0.8-1.2-1l-1.7-0.4l0,0l-0.4-0.1   l0,0l-0.5-0.1l-1.2-0.3L70.6,95l19.4,5.2c1.1,0.3,2.2-0.4,2.5-1.4l1.4-5.1C93.9,93.4,94,93.2,93.9,93"></path>
	<path id="Tracé_2133" class="st0" d="M93.9,85.6l-0.1-0.3c-0.2-0.2-0.6-1.3-0.4-1.5l-0.3-1.2c-1.5,0.5-3,0.9-4.5,1.2l-2.1,0.5   c-0.7,0.2-1.5,0.3-2.3,0.5L82,85.1l-1.3,0.2l1-0.3h0l0.4-0.1l0.1,0l0,0l6.8-1.8c0,0,0-0.1,0.1-0.1l-4.5,0.7c3.6-0.8,6.3-2,7.8-3.5   c-0.4-1-1.4-1.5-2.4-1.2l-2.9,0.8h0l-1.6,0.4l0,0l-0.8,0.2l-0.3,0.1l0,0L80,81.7L79,81.9l0,0l-2.6,0.7l-0.6,0.2l0,0l-0.5,0.1l0,0   L69,84.6l0,0l-0.5,0.1l0,0h0l-1.9,0.5l-11.4,3.1l-1.7,0.5l0,0L52.6,89l-0.2,0l0,0l-2,0.5l-5.9,1.6c-0.8,0.2-1.4,0.9-1.5,1.8l0,0v0   c0,0.1,0,0.2,0,0.3v0v0c0,0.1,0,0.2,0,0.2l0.2,0.6l0,0l0.1,0.3l0,0l0.4,1.5c0.2,0.5,0.8,0.9,1.8,1l0,0l0.1,0h0c0.3,0,0.6,0,0.9,0   c1.9-0.1,3.7-0.4,5.6-0.9l0,0c-2.6,0.9-5.2,1.5-7.9,1.9l0.1,0.3c0,0,0,0.1,0.1,0.3l0.1,0.3l0,0h0c0.1,0.2,0.1,0.4,0.2,0.5l0,0l0,0   c0.1,0.1,0.1,0.2,0.2,0.2l0,0c0.5,0.5,1.3,0.8,2,0.6l0.8-0.2l0,0l0.6-0.2l0,0l0.9-0.2l0,0l0.3-0.1l5-1.3l0,0l1.8-0.5l8.7-2.3l0,0   l3.4-0.9l1.4-0.4l0.3-0.1l2.2-0.6c0,0,0.1,0,0.1,0l10.9-2.9l0.4-0.1l1.1-0.3l3.8-1l3.8-1c0.2,0,0.3-0.1,0.5-0.2   c0-0.1,0.1-0.1,0.1-0.2c0,0,0,0,0,0C93.8,87.2,94.1,86.4,93.9,85.6 M72.2,93.2C72.2,93.2,72.2,93.2,72.2,93.2   C72.2,93.2,72.2,93.2,72.2,93.2C72.2,93.2,72.2,93.2,72.2,93.2C72.2,93.2,72.2,93.2,72.2,93.2 M73.2,92.7L73.2,92.7L73.2,92.7   C73.2,92.7,73.2,92.7,73.2,92.7C73.2,92.7,73.2,92.7,73.2,92.7C73.2,92.8,73.2,92.5,73.2,92.7L73.2,92.7z M81.5,88L81.5,88L81.5,88   L81.5,88C81.6,88,81.6,88,81.5,88"></path>
	<path id="Tracé_2134" class="st0" d="M56.5,86.8l9.9-2.6l-3.7-1l-0.5-0.1l0,0l-2.6-0.7l0,0l-0.5-0.1l0,0l-7.2-1.9l-2.3-0.6l-0.2,0   l0,0l-0.5-0.1l-0.6-0.2l-0.7-0.2C47.4,79.1,47.2,79,47,79l-0.1,0l0,0c-0.1,0-0.3,0-0.4,0l0,0c0,0-0.1,0-0.1,0c0,0-0.1,0-0.1,0l0,0   c-0.8,0.1-1.6,0.7-1.8,1.5l-1.4,5.1c0,0.1,0,0.2-0.1,0.3c0,0.1,0,0.3,0,0.4c0.1,0.8,0.7,1.6,1.5,1.8l3.7,1l1.7-0.5l0,0l4.5-1.2   l1.4-0.4L56.5,86.8z"></path>
	<path id="Tracé_2135" class="st0" d="M59.5,51.3c-0.1,0.3-0.4,0.4-0.7,0.3c-0.2,0-0.3-0.2-0.3-0.3c-1.4-3.5-3.2-7.1,1-10.4   c1.4-0.8,2.4-2.1,2.9-3.6c0.1-0.3,0.4-0.5,0.6-0.4c0.2,0.1,0.4,0.2,0.4,0.5c0.4,3.5-1.5,5.7-3.5,7.5C57.9,46.9,60.2,49.3,59.5,51.3   "></path>
	<path id="Tracé_2136" class="st1" d="M62.7,39.6l0.1-0.2l-0.1-0.2c0.1-0.5,0.1-1.1,0-1.6l0-0.1v-0.1c0,0,0,0,0,0s0,0,0,0   c0,0,0,0,0.1,0c0,0,0,0,0.1,0c0,0,0,0,0,0s0,0,0,0s0,0,0,0l0,0.1c-0.1,0.1-0.2,0.3-0.3,0.6c0,0.1,0,0.2,0,0.3   c-0.3,0.6-0.7,1.2-1.2,1.7c-0.5,0.5-1,0.9-1.5,1.3c-0.9,0.7-1.7,1.5-2.1,2.6L57.8,44c-0.3,0.7-0.4,1.4-0.3,2.2l-0.1,0.2   c0,0.1,0,0.2,0,0.4l0,0.2l0.1,0.2c0,0.1,0,0.2,0,0.2l0.1,0.6l0.2,0.6c0,0.2,0,0.3,0,0.4l0.2,0.2c0,0.2,0.1,0.4,0,0.6l0.1,0.2   l0.2,0.6c0,0.1,0,0.1,0,0.2l0.2,0.4c0.1,0.2,0.1,0.3,0.2,0.5c0.1,0.1,0.3,0.1,0.5,0l0.1,0.2c-0.3,0.1-0.6,0.1-0.8-0.1   c-0.1-0.1-0.2-0.2-0.3-0.3c-0.1-0.1-0.1-0.2-0.1-0.3L58,51.1c0-0.1,0-0.1,0-0.2c-0.1-0.2-0.2-0.4-0.3-0.6l-0.2-0.2   c-0.1-0.3-0.2-0.6-0.4-0.9c-0.1-0.2-0.2-0.2-0.3-0.4c0-0.1,0-0.2,0-0.2c0-0.1-0.1-0.3-0.1-0.5l-0.3-0.3l0-0.2   c0-0.1-0.1-0.1-0.1-0.2c-0.1-0.3-0.1-0.6-0.1-0.9l0.1-0.2c-0.1-0.2-0.1-0.5-0.2-0.7c0-1.1,0.3-2.2,0.9-3.1c0-0.1,0-0.1,0-0.2   l0.4-0.6c0.1,0,0.1-0.1,0.2-0.1c0.2-0.1,0.3-0.3,0.4-0.5c0.1-0.1,0.3-0.3,0.4-0.4l0.5-0.4c0.3-0.2,0.6-0.5,0.9-0.7   c0.2-0.1,0.4-0.2,0.6-0.3c0,0,0-0.1,0.1-0.2c0,0,0.1,0,0.2-0.1c0-0.1,0.1-0.2,0.1-0.3c0.1,0,0.2-0.1,0.3-0.2   c0.2-0.2,0.3-0.5,0.4-0.7c0-0.1,0-0.1,0-0.2l0.1-0.1c0-0.1,0.1-0.2,0.1-0.3l0-0.1l0-0.1l0-0.1c0-0.1,0-0.1,0.1-0.1   c0.1-0.1,0.2-0.2,0.4-0.3c0,0,0.1-0.1,0.1-0.1c0.1,0,0.1-0.1,0.2-0.1c0.3-0.1,0.6-0.1,0.9,0.1c0.3,0.1,0.5,0.4,0.6,0.7   c0,0.1,0,0.1,0,0.2c0,0,0,0.1,0,0.1c0,0.2,0,0.4,0,0.5s0,0.4,0,0.6c0,0.1-0.1,0.1-0.1,0.2c0,0.8-0.2,1.6-0.5,2.3l-0.2,0.2   c-0.1,0.3-0.2,0.5-0.4,0.8l-0.2,0.2c-0.1,0.2-0.3,0.5-0.5,0.7L62.1,43l0,0.2c-0.4,0.4-0.7,0.9-1.1,1.3l-0.2,0.1   c-0.2,0.2-0.3,0.3-0.5,0.5c-0.1,0.1-0.2,0.2-0.2,0.2c-0.1,0.1-0.1,0.2-0.2,0.3l-0.2,0.2c-0.1,0.1-0.1,0.2-0.2,0.3   c0,0.1,0.1,0.2,0,0.4c0,0.1-0.1,0.1-0.1,0.2c0,0.3,0,0.5,0,0.8l-0.1,0.2c0,0.1,0,0.3,0.1,0.4c0,0.1,0,0.2,0,0.2l0.3,1.1   c0,0.1,0,0.3,0,0.4c0,0.1,0,0.2-0.1,0.3c0,0.1-0.1,0.2-0.1,0.3c0,0.1,0,0.1,0,0.2c0,0,0,0.1-0.1,0.1c-0.1,0.1-0.1,0.2-0.2,0.2   s-0.1,0.2-0.2,0.2c0-0.1,0-0.2,0-0.3c0-0.1,0-0.2,0-0.2c0-0.1,0.1-0.1,0.1-0.2c0-0.6-0.1-1.1-0.3-1.6l0-0.2   c-0.1-0.4-0.2-0.9-0.2-1.4c0-0.5,0-1,0.2-1.5c0.2-0.5,0.5-0.9,0.9-1.2c0.3-0.3,0.6-0.6,0.9-0.9C61.6,42.5,62.4,41.1,62.7,39.6"></path>
	<path id="Tracé_2137" class="st1" d="M59.6,51.5C59.5,51.5,59.5,51.5,59.6,51.5C59.5,51.5,59.5,51.5,59.6,51.5c0-0.1,0-0.1,0-0.1   C59.6,51.4,59.6,51.5,59.6,51.5"></path>
	<path id="Tracé_2138" class="st1" d="M66.6,78.6c0,0.1,0.1,0.1,0.1,0.2c0.1,0.1,0.2,0.2,0.3,0.3l0.1,0.2c0.1,0,0.1,0,0.2,0   l0.1,0.2c0.3,0.2,0.7,0.4,1,0.6c0.1,0.1,0.2,0.2,0.3,0.3l0.3,0c0.3,0.1,0.3,0.2,0.5,0.4h0.2c0.2,0.1,0.4,0.1,0.6,0.2l0,0   c0.9,0,1.9-0.1,2.8-0.2h0c0.1-0.1,0.2-0.1,0.4-0.2l0.2-0.3l0.2,0c0-0.1,0.1-0.1,0.1-0.2l0.6-0.5l0.2-0.1c0-0.1,0.1-0.2,0.2-0.3   c0,0,0.1-0.1,0.1-0.1c0,0,0-0.1,0-0.1c0.6-0.6,1-1.4,1.3-2.3l0-0.2c0-0.2,0.1-0.3,0.1-0.6l0.1-0.2c0.1-0.2,0.1-0.4,0-0.6   c0-0.2,0-0.4,0.1-0.6l0.1-0.5l0-0.5c0-0.2,0-0.4,0-0.5c0.1-0.2,0.1-0.4,0.1-0.6l-0.1-0.2l0.1-0.2c0-0.1-0.1-0.2-0.1-0.3l0-0.4   c-0.1-0.3-0.1-0.6-0.2-0.9l-0.1-0.2c0-0.1,0-0.1,0-0.2c-0.1-0.2-0.1-0.4-0.2-0.6c0-0.1,0-0.2,0-0.2c0,0-0.1-0.1-0.1-0.1   c-0.1-0.2-0.2-0.5-0.4-0.8c0-0.1,0-0.1,0-0.2c-0.2-0.3-0.3-0.6-0.5-0.9l0-0.2c-0.4-0.6-0.8-1.3-1.3-1.9l-0.1-0.3l-0.5-0.7L73.3,64   l-0.5-0.7l-0.1-0.2L72.5,63l-1.1-1.4l0-0.2l-0.9-1.2L70.5,60l-0.2-0.3c-0.1-0.1-0.2-0.1-0.3-0.3l-0.1-0.2c-0.2-0.2-0.3-0.5-0.5-0.7   l-0.1-0.2l-0.2-0.3l-0.1-0.2L69,57.4c0.2,0.8,0.3,1.6,0.4,2.5c0.2,1.8,0,3.7-0.5,5.4l-0.1,0.2c0,0.1,0,0.1,0,0.2   c-0.2,0.6-0.5,1.2-0.8,1.8c-0.3,0.6-0.7,1.1-1.1,1.6c-0.2,0-0.3,0.2-0.4,0.4l-0.1,0.2c-0.4,0.5-0.7,1-1,1.5   c-0.3,0.5-0.5,1.1-0.6,1.6c-0.2,1.2-0.1,2.4,0.4,3.4c0,0.1,0,0.1,0,0.2C65.6,77.4,66,78,66.6,78.6"></path>
	<path id="Tracé_2139" class="st1" d="M86.2,63.5c0-0.3-0.1-0.4-0.1-0.7c0-0.3,0-0.6,0-0.9c-0.1-0.8-0.3-1.6-0.5-2.4   c-0.1-0.3-0.1-0.6-0.2-0.9c-0.1-0.3-0.3-0.5-0.4-0.8c-0.5-1.2-1.2-2.4-2-3.5c-0.4-0.5-0.6-0.9-0.9-1.2c-0.2-0.2-0.4-0.3-0.6-0.5   c-0.2-0.2-0.3-0.2-0.4-0.4c-0.2-0.2-0.3-0.4-0.4-0.5c-0.2-0.2-0.5-0.3-0.6-0.5c-0.6-0.6-1.1-1.2-1.8-1.8c-0.1-0.1-0.3-0.2-0.4-0.3   s-0.2-0.2-0.3-0.3s-0.1-0.1-0.2-0.2s-0.1-0.1-0.2-0.2s-0.2-0.2-0.3-0.3s-0.2-0.2-0.3-0.4c0,0-0.1-0.1-0.1-0.2s-0.1-0.1-0.1-0.2   s-0.1-0.3-0.2-0.4s-0.1-0.3-0.2-0.4s-0.1-0.1-0.1-0.2s0-0.2-0.1-0.2c0-0.2-0.1-0.3-0.1-0.4c-0.1-0.3-0.1-0.6-0.1-0.9   c0-0.6,0-1.3,0.1-1.9c0-0.7,0.2-1.4,0.6-2c0.1-0.2,0.2-0.4,0.4-0.5c0.2-0.2,0.2-0.3,0.4-0.5s0.2-0.3,0.4-0.4c0-0.1,0.1-0.1,0.1-0.1   c0.1-0.1,0.2-0.2,0.2-0.3c0.1-0.2,0.2-0.5,0.1-0.8c0-0.3-0.1-0.5-0.3-0.8c-0.2-0.2-0.4-0.4-0.7-0.6c-0.2-0.1-0.4-0.1-0.6-0.1   c-0.1,0-0.2,0-0.3,0c-0.1,0-0.2,0-0.3,0c-2,0.1-4,0.5-5.8,1.2c-1.9,0.9-3.2,2.6-4.5,4.2c-0.1,0.2-0.2,0.4-0.3,0.6   c-0.1,0.2-0.3,0.5-0.4,0.7c-0.2,0.4-0.4,0.8-0.6,1.2c-0.1,0.2-0.3,0.5-0.5,0.7c-0.5,1-0.9,2-1.2,3c-0.1,0.4-0.1,0.6-0.1,0.9   s-0.2,0.5-0.3,0.7c0,0.2,0,0.4,0,0.6c0,0.2,0.1,0.3,0.1,0.5s0,0.4,0,0.5s0,0.3,0,0.5c0,0.3,0,0.7,0,1s-0.1,0.7-0.1,1   c0,1,0.1,1.9,0.3,2.9c0.1,1,0.2,2.4,0.4,3.6c0.1,0.6,0.2,1.4,0.3,2c0,0.1,0,0.3,0.1,0.4c0,0.1,0,0.2,0,0.3c0,0.2,0,0.4,0,0.5   c0,0.3,0,0.6-0.1,0.9c-0.1,0.3-0.4,0.5-0.8,0.5c-0.4,0-0.8-0.2-1.1-0.6c-0.2-0.2-0.4-0.5-0.5-0.7c-0.1-0.2-0.3-0.3-0.3-0.5   S60,63.4,60,63.3s-0.1-0.2-0.1-0.3c-1-2.3-1.7-4.8-2-7.3l-0.3-0.1c0,0.5,0.1,0.9,0.2,1.4c0.1,0.5,0.2,1,0.3,1.5   c-0.4-1.4-0.6-2.9-0.5-4.4c0-0.5-0.3-0.7-0.9-0.4c-4.1,1.9-4.2,8.1-3.8,12.3c0,0,0,0,0,0c0,0.2,0.1,0.4,0.1,0.6s0.1,0.4,0.1,0.6   c0,0.1,0,0.3,0,0.4c0,0.1,0,0.3,0.1,0.4c0.3,1,0.7,2,1.1,3c0.1,0.3,0.2,0.7,0.3,0.9c0.1,0.3,0.3,0.7,0.5,1c0.2,0.3,0.3,0.4,0.4,0.6   s0.2,0.3,0.2,0.5s0.2,0.3,0.2,0.4s0.1,0.2,0.2,0.4s0.1,0.2,0.2,0.3c0.2,0.3,0.3,0.6,0.5,1c1.2,1.4,2.6,2.6,4.3,3.4   c0.2,0.1,0.4,0.3,0.5,0.3c1,0.4,2.1,0.7,3.2,0.9c1.1,0.2,2.2,0.2,3.2,0.3l-0.1-0.1l-0.5-0.3l-0.4,0c-0.1-0.1-0.1-0.1-0.1-0.2   l-0.2-0.1c-0.2-0.2-0.5-0.4-0.7-0.6l-0.1-0.2c-0.2-0.1-0.4-0.3-0.6-0.4c-0.7-0.8-1.2-1.8-1.5-2.9c0-0.1-0.1-0.1-0.1-0.2l-0.1-0.3   l-0.1-0.4c0,0,0-0.1,0-0.2c0-0.1,0-0.2,0-0.4c0-0.1,0-0.2-0.1-0.3c0-0.9,0.1-1.8,0.4-2.6c0.1-0.2,0.3-0.4,0.5-0.6   c0-0.1,0-0.1,0-0.2c0.1,0,0.1-0.1,0.2-0.1c0-0.1,0.1-0.2,0.1-0.4c0.1-0.1,0.2-0.2,0.3-0.3c0.2-0.3,0.4-0.6,0.6-0.9l0.1-0.2l0.2-0.1   l0.4-0.5l0.2-0.1l0-0.2c0.2-0.2,0.3-0.5,0.5-0.7l0.2-0.1c0.1-0.1,0.2-0.3,0.2-0.5l0.2-0.5l0.1-0.1c0.3-0.7,0.5-1.4,0.6-2.2l0.1-0.2   c0-0.3,0.1-0.5,0.1-0.8l0.1-0.2c0-0.3,0-0.6,0-0.8l0.1-0.2l-0.1-0.2c0-0.6,0-1.2-0.1-1.7l0.1-0.2c-0.1-0.5-0.1-1-0.2-1.4l0-0.3   l-0.1-0.4c0-0.1-0.2-0.2-0.2-0.4l0-0.2c-0.1-0.3-0.1-0.6-0.2-0.8c0-0.1,0-0.2,0-0.3l-0.1-0.4c0-0.1,0-0.2,0-0.3   c-0.1-0.4-0.2-0.8-0.3-1.2c0-0.3,0-0.5,0-0.8c0-0.2-0.1-0.5,0-0.7c0-0.2,0.1-0.5,0.1-0.7c0.2,0.2,0.2,0.5,0.3,0.7   c0,0.1,0,0.2,0,0.3c0.2,0.6,0.4,1.2,0.6,1.8l0,0.2c0.1,0.2,0.1,0.3,0.2,0.5c0,0.1,0,0.2,0,0.3c0.3,0.5,0.5,1.1,0.9,1.6l0,0.2   c1.8,2.9,4.1,5.5,6,8.5l0.1,0.2l0.2,0.1c0.7,1.1,1.3,2.2,1.8,3.3c0,0.2,0,0.4,0.1,0.6c0,0.1,0.1,0.1,0.2,0.2c0.4,1.3,0.6,2.7,0.4,4   c0,0.3-0.1,0.7-0.1,1s-0.1,0.6-0.1,1c-0.1,0.7-0.3,1.3-0.6,2l-0.1,0.2c-0.4,0.8-0.9,1.5-1.5,2.1c0.5-0.2,1-0.4,1.5-0.7   c0.3-0.2,0.6-0.2,0.9-0.4c2.6-1.8,4.7-4.2,6-7.1c0.1-0.2,0.3-0.5,0.4-0.7c0.5-1.2,0.9-2.5,1.2-3.8c0.1-0.3,0.2-0.5,0.2-0.7   C86.2,65.7,86.3,64.6,86.2,63.5"></path>
	<path id="Tracé_2140" class="st1" d="M69,82.8C69,82.8,69,82.8,69,82.8c0.1,0,0.2,0,0.2-0.1l-0.1,0L69,82.8"></path>
	<path id="Tracé_2141" class="st1" d="M121.4,50.6c0,0,0-0.1,0-0.1c-1.3-7.7-3.8-12.4-8.8-19.2c-3.1-4.1-6.2-6.4-10.2-9.1   c-0.4-0.3-0.8-0.4-1.1-0.6c-0.3-0.2-0.5-0.3-0.8-0.4c-1.3-0.7-2.7-1.3-4-1.9c-0.2-0.1-0.3-0.1-0.5-0.2c-0.3-0.1-0.7-0.3-1-0.4   s-0.5-0.2-0.8-0.3c-0.9-0.3-1.7-0.6-2.6-0.9c-1.1-0.3-2.1-0.6-3.2-0.8c-0.5-0.1-1.1-0.2-1.6-0.3c-1.1-0.2-2.2-0.4-3.3-0.6   s-2.2-0.3-3.3-0.5c-0.5-0.1-1.1-0.1-1.6-0.2l-1.6-0.2c-0.4,0-0.7-0.1-1.1-0.1c-0.9-0.1-1.8-0.2-2.7-0.4c-0.5-0.1-1-0.2-1.5-0.2   c-0.3,0-0.7-0.1-1-0.1c-0.1,0-0.3,0-0.4-0.1c-2.1-0.4-4.3-0.5-6.5-0.5c-0.2,0-0.3,0-0.5,0s-0.3,0-0.4,0c0,0,0,0,0,0   c-0.2,0-0.4,0-0.6,0c-0.2,0-0.4,0-0.6,0.1c-0.1,0-0.1,0-0.3,0s-0.3,0-0.4,0c-8,1.2-15.4,2.9-22.6,6.8c-4.5,2.5-8.6,5.8-12.1,9.6   c-0.1,0.1-0.1,0.2,0,0.3c0.1,0.1,0.1,0.1,0.2,0c0.2-0.1,0.5-0.2,0.7-0.2c0.3-0.1,0.5-0.3,0.7-0.5c1.7-2.3,3.8-4.3,6.3-5.7   c0.7-0.4,1.4-0.5,2.1-0.9l0,0c0.7-0.3,1.4-0.6,2-0.8c0,0,0.1,0,0.1,0c0.4-0.2,0.9-0.3,1.3-0.5c0.8-0.3,1.5-0.6,2.3-0.9   c0.5-0.2,1.1-0.5,1.6-0.7s1.1-0.5,1.6-0.7c0.8-0.3,1.5-0.7,2.3-1c0,0,0,0,0,0c0,0,0,0,0,0c0.4-0.1,0.8-0.3,1.3-0.5l0.1,0   c0.2-0.1,0.4-0.1,0.6-0.2s0.4-0.1,0.6-0.2c0.5-0.1,0.9-0.3,1.4-0.4c0.4-0.1,0.7-0.2,1.1-0.3c0.1,0,0.1,0,0.2,0c0.1,0,0.1,0,0.2,0   c0.1,0,0.2,0,0.3-0.1s0.1,0,0.2,0s0.1,0,0.1,0s0.2,0,0.3-0.1s0.1,0,0.3,0s0.3-0.1,0.5-0.1s0.4-0.1,0.6-0.1s0.4-0.1,0.6-0.1   c0.1,0,0.2,0,0.3,0c0.2,0,0.4-0.1,0.6-0.1c0,0,0,0,0,0s0.1,0,0.1,0c0.3,0,0.6-0.1,0.9-0.1c0,0,0.1,0,0.1,0c0.1,0,0.2,0,0.2,0   c0.1,0,0.3,0,0.4,0s0.2,0,0.3,0c0.4,0,0.9-0.1,1.3-0.1c0.1,0,0.1,0,0.2,0c0.3,0,0.5,0,0.8,0c0.1,0,0.2,0,0.3,0c0.4,0,0.9,0,1.3-0.1   s0.9,0,1.3,0c0.1,0,0.2,0,0.2,0h0c1.6,0,3.5,0.1,4.9,0.1c0.7,0,0.9,0,1.4,0.1c3.9,0.3,7.8,0.8,11.6,1.5c4.4,0.9,8.7,2.3,12.9,3.9   c0.6,0.2,1.2,0.5,1.8,0.7c0.8,0.3,1.7,0.7,2.5,1.1l0.1,0.1c0.4,0.2,0.9,0.4,1.3,0.6s0.7,0.3,1.1,0.5s0.7,0.4,1.1,0.6   c0.6,0.3,1.1,0.7,1.7,1.1l0,0c0.2,0.2,0.5,0.4,0.8,0.6s0.4,0.3,0.7,0.5c0.1,0.1,0.2,0.2,0.3,0.3s0.2,0.2,0.3,0.3   c0.2,0.2,0.5,0.4,0.6,0.6s0.3,0.3,0.5,0.5s0.3,0.3,0.5,0.6c6.7,8,9.8,13.5,12.3,23.6c0,0,0,0.1,0,0.1c1,4.1,1.9,8.3,2.5,12.6   c0.7,5.8,0.3,11.7-2.2,17.2c-2.1,4.5-3.7,9.3-7.1,13.1c-1.6,1.8-3.1,3.7-4.6,5.6c-0.2,0.3-0.1,0.6,0.2,0.8c0.2,0.1,0.5,0.1,0.7,0   C121.9,93,127.7,65.8,121.4,50.6"></path>
	<path id="Tracé_2142" class="st1" d="M23.2,96.1L23.2,96.1c-1.7-3.7-3.4-7.4-5-11c-0.1-0.3-0.5-0.4-0.8-0.3s-0.4,0.5-0.3,0.8   C18.5,89.3,20.5,92.9,23.2,96.1"></path>
	<path id="Tracé_2143" class="st1" d="M13.8,71.5c-1.4-13.1,2.8-24.6,9.1-35.6c0.2-0.3,0.1-0.6-0.2-0.8c-0.2-0.1-0.6-0.1-0.8,0.1   C14.8,43.2,11.2,62.3,13.8,71.5"></path>
	<path id="Tracé_2144" class="st1" d="M127.5,50.1L127.5,50.1c-1.5-5.1-4-9.8-6.4-14.6c-2.4-4.9-5.4-9.5-10.3-12.5   c-2.7-1.6-5.2-3.4-8-4.9c-2-1-4-2-6-2.9c-0.5-0.2-0.9-0.4-1.4-0.6c-1.5-0.6-3-1.2-4.5-1.7c-1.7-0.5-3.6-0.8-9.7-2.3   c-8.4-2.1-21.5,0-22.4,0c-0.6,0-2.9,0.5-4.5,0.8v0c-0.8,0.2-1.6,0.3-2.4,0.5c-0.3,0.1-0.5,0.1-0.7,0.2c-0.6,0.1-1.2,0.3-1.8,0.4   c-0.3,0.1-0.6,0.1-0.9,0.2c-0.7,0.2-1.5,0.4-2.2,0.6c-0.9,0.2-1.8,0.5-2.6,0.8c-1,0.3-2,0.6-2.9,1c-0.7,0.2-1.4,0.5-2,0.7   c-0.2,0-0.3,0.1-0.5,0.2c-0.8,0.3-1.6,0.6-2.4,0.9c-0.9,0.3-1.7,0.7-2.6,1.1c-7.4,3.2-13.7,7.8-16.5,15.9c-0.2,0.6-0.5,1.2-0.9,1.7   c-4.4,6.9-7.2,14.7-8.3,22.9c-1.4,9.4-0.1,19,3.7,27.6c3.4,7.7,7.7,15,12.9,21.7c3.4,4.6,7.3,8.4,12.6,10.6c3.9,1.6,7.8,3.3,11.7,5   c6,2.7,12.5,4.2,19.1,4.3c1.3,0,2.6,0,3.9,0c1,0,2.7-0.1,4.1-0.2v0h0c0.6,0,1.3-0.1,1.9-0.2c0.4,0,0.8-0.1,1.2-0.1   c0.2,0,0.3,0,0.5-0.1c0.3,0,0.5-0.1,0.8-0.1c0.4-0.1,0.8-0.1,1.3-0.2c0.6-0.1,1.2-0.2,1.9-0.4c0.3-0.1,0.6-0.1,0.8-0.2   c0.4-0.1,0.7-0.2,1.1-0.3c0.4-0.1,0.9-0.2,1.3-0.4c0.3-0.1,0.5-0.1,0.7-0.2c0.4-0.1,0.8-0.3,1.2-0.4c0.3-0.1,0.6-0.2,0.9-0.3   c0.5-0.2,0.9-0.4,1.4-0.6c4.5-1.9,8.6-4.6,12.9-7c5.5-3,10.5-6.8,13.8-12.3c2.7-4.5,5.2-9.1,7.5-13.8   C130.8,77.7,131.5,63.9,127.5,50.1 M119.3,94.6c-3.5,6.7-7,13.4-13.7,17.5c-2.7,1.8-7,4.1-9.8,5.9c-5.7,3.6-12.1,5.8-18.7,6.5   c0,0,0,0,0,0c-0.6,0.2-3.4,0.3-5.5,0.4h0c-0.4,0-0.7,0-1,0v0c-0.6,0-1.2,0-1.9,0c-9.7,0.5-18.7-3.4-27.4-7.1   c-3.6-1.4-7.1-2.9-9.9-5.5c-2.8-2.6-5.3-5.5-7.4-8.7c-4.5-6.2-8.2-12.9-11-20.1C7.5,69.3,9.6,53,16.7,39.8c0.8-1.5,1.9-2.9,2.6-4.5   c0.7-2,1.6-3.8,2.8-5.6c4.3-6.3,11.6-9.5,18.6-12.2c4-1.5,8.2-2.8,12.4-3.7l0,0l0.4-0.1c0.3-0.1,0.5-0.1,0.8-0.2v0   c3.2-0.7,6.5-1.2,9.8-1.5c2.2,0,6.4-0.8,10.7-0.3c5.4,0.7,10.8,1.8,16.1,3.3v0c0.1,0,0.2,0.1,0.4,0.1c0.6,0.2,1.2,0.4,1.7,0.6   c0,0,0.1,0.1,0.1,0.1c4.7,1.9,9.2,4.3,13.4,7.1l2.4,1.6c5.8,3.5,8.6,9.7,11.4,15.7C129.3,57.4,128.9,77.9,119.3,94.6"></path>
</g>
</svg>
