<?xml version="1.0" encoding="UTF-8"?>
<svg xmlns="http://www.w3.org/2000/svg" id="Calque_1" viewBox="0 0 175.19 41.67">
  <defs>
    <style>.cls-1{fill:#feeddb;}</style>
  </defs>
  <polygon class="cls-1" points="46.1 11.03 44.16 11.03 44.16 30.63 48.36 30.63 48.36 22.85 56.23 22.85 56.23 19.24 48.36 19.24 48.36 14.81 57.41 14.81 57.41 11.03 48.36 11.03 46.1 11.03"></polygon>
  <path class="cls-1" d="m75.97,16.38c0,.8,0,1.54.03,2.23.02.68.04,1.33.07,1.93.03.61.06,1.19.11,1.76.05.57.1,1.13.15,1.68.01.14.03.29.05.44l-9.91-13.39h-3.75v19.6h4.12v-7.06c0-.37,0-.73-.01-1.06,0-.34-.03-.69-.06-1.06-.03-.37-.06-.81-.1-1.32-.04-.5-.09-1.1-.15-1.78-.03-.26-.05-.57-.08-.88l9.84,13.16h3.81V11.03h-4.12v5.35Z"></path>
  <path class="cls-1" d="m102.42,13.52c-.91-.91-1.96-1.62-3.16-2.13-1.2-.5-2.53-.76-3.99-.76s-2.76.25-3.98.76-2.27,1.21-3.18,2.13c-.91.92-1.6,1.98-2.09,3.21-.49,1.22-.73,2.57-.73,4.05s.24,2.81.73,4.05,1.18,2.31,2.09,3.22c.9.91,1.96,1.61,3.18,2.11,1.21.5,2.54.76,3.98.76,1.25,0,2.41-.2,3.47-.57l2.52,3.37,3.08-2.27-2.29-3.08c.12-.11.25-.22.37-.34.91-.92,1.6-1.99,2.09-3.22.49-1.23.73-2.58.73-4.03s-.24-2.8-.73-4.03c-.49-1.23-1.18-2.31-2.09-3.22Zm-5.47,7.98l-3.16,2.21,2.35,3.14c-.28.04-.56.08-.86.08-.82,0-1.58-.15-2.27-.45-.69-.3-1.3-.73-1.82-1.29-.52-.56-.92-1.21-1.19-1.96-.27-.75-.41-1.57-.41-2.46s.14-1.72.41-2.46c.27-.75.67-1.39,1.19-1.95.52-.55,1.13-.98,1.82-1.29.69-.31,1.45-.46,2.27-.46s1.58.15,2.28.46c.7.31,1.3.74,1.81,1.29s.9,1.2,1.19,1.95c.29.75.43,1.57.43,2.46s-.14,1.72-.43,2.46c-.25.65-.6,1.22-1.02,1.73l-2.58-3.47Z"></path>
  <polygon class="cls-1" points="114.64 11.03 110.44 11.03 110.44 30.63 123.51 30.63 123.51 26.85 114.64 26.85 114.64 11.03"></polygon>
  <path class="cls-1" d="m140.83,20.79c-.59-.48-1.29-.88-2.11-1.22-.82-.34-1.75-.61-2.77-.81-.54-.11-1.04-.24-1.48-.39-.45-.15-.83-.32-1.15-.52-.32-.2-.56-.42-.73-.69s-.25-.56-.25-.9c0-.43.13-.79.38-1.09.25-.3.6-.53,1.05-.69.45-.16.98-.24,1.6-.24.56,0,1.11.09,1.64.27.53.18,1.03.44,1.48.8.46.36.88.79,1.27,1.32l2.66-2.58c-.45-.73-1-1.34-1.67-1.85-.66-.5-1.44-.89-2.34-1.16s-1.94-.41-3.14-.41c-.97,0-1.89.14-2.76.42-.87.28-1.63.68-2.3,1.2-.66.52-1.18,1.14-1.55,1.86-.37.72-.56,1.5-.56,2.34s.13,1.56.38,2.21.64,1.24,1.16,1.75c.52.51,1.18.94,1.96,1.29.78.35,1.7.64,2.74.88.49.08.93.17,1.34.29.41.12.78.26,1.12.42.34.16.62.34.87.53s.43.42.56.67c.13.25.2.53.2.83,0,.41-.13.77-.39,1.06-.26.3-.62.53-1.08.69-.46.16-.98.24-1.55.24-1.06,0-2.05-.23-2.95-.69-.91-.46-1.82-1.32-2.73-2.59l-2.63,3c.62.82,1.31,1.52,2.09,2.1.77.58,1.66,1.02,2.66,1.32s2.1.45,3.32.45c1.49,0,2.8-.25,3.92-.74,1.12-.49,2-1.21,2.63-2.14.63-.93.95-2.06.95-3.39,0-.8-.16-1.53-.48-2.17-.32-.64-.77-1.2-1.36-1.68Z"></path>
  <path class="cls-1" d="m162.84,13.76c-.85-.87-1.86-1.54-3.02-2.02-1.17-.48-2.47-.71-3.91-.71h-8.04v19.6h8.04c1.44,0,2.74-.24,3.92-.71,1.18-.48,2.18-1.15,3.02-2.02.84-.87,1.48-1.9,1.93-3.11.45-1.2.67-2.52.67-3.96s-.22-2.78-.67-3.98c-.45-1.19-1.1-2.23-1.95-3.09Zm-2,9.56c-.24.75-.6,1.38-1.08,1.89s-1.05.92-1.72,1.2-1.43.43-2.27.43h-3.7v-12.04h3.7c.84,0,1.6.15,2.27.43s1.25.7,1.72,1.22.83,1.15,1.08,1.89c.24.74.36,1.56.36,2.48s-.12,1.75-.36,2.49Z"></path>
  <polygon class="cls-1" points="170.94 10.82 170.94 30.63 175.19 30.63 175.19 10.81 170.94 10.82"></polygon>
  <path class="cls-1" d="m20.79,2.77c-2.19-1.76-7.39-2.77-7.39-2.77,0,0-.04,1.62-.08,4.12,1.22-.16,2.49-.11,3.8-.05-1.3.25-2.57.5-3.82.75,0,.22,0,.44-.01.67,1.13-.18,2.24-.44,3.38-.54,1.93-.17,3.79.1,5.62.63-.21-1.12-.64-2.12-1.5-2.81Zm.73,1.89c-.76-.11-1.51-.21-2.27-.31.83-.42,1.56-.12,2.27.31Z"></path>
  <path class="cls-1" d="m22.4,28.27v.5c0,.33-.21.62-.52.71-.46.14-1.18.53-1.89,1.56-1.21,1.76-1.21,2.09-1.32,3.95,0,0,0,.02,0,.03,0-.03,0-.07,0-.11.02-.49.04-.88.07-1.22.09-1.04.34-1.58,1.24-3,.71-1.11,1.43-1.52,1.89-1.67.31-.1.52-.41.52-.76Z"></path>
  <path class="cls-1" d="m13.27,6.76s0,.05,0,.08v-.08h0Z"></path>
  <path class="cls-1" d="m13.46,6.03s-.12.07-.18.09v-.06c.06-.01.12-.02.18-.03Z"></path>
  <path class="cls-1" d="m31.71,16.52c-.37-1.28-1.01-2.48-1.6-3.69-.61-1.25-1.37-2.41-2.6-3.16-.67-.41-1.31-.87-2.01-1.23-.5-.26-1.01-.51-1.52-.73-.12-.05-.24-.1-.36-.15-.38-.16-.77-.31-1.16-.44,0-.15-.02-.3-.03-.45h0c-.3-.1-.6-.19-.91-.27-.5-.14-1.01-.26-1.51-.37,0,0,0,0-.01,0-.48-.1-.97-.18-1.46-.25-.13-.02-.27-.03-.4-.05-.06,0-.13-.02-.2-.02-.08,0-.17-.02-.25-.02-.8-.06-1.59-.05-2.39.05-.11.01-.22.03-.33.04-.12.02-.25.04-.37.06-.04,0-.07.01-.11.02-.07.01-.15.02-.22.03-.12.02-.25.04-.36.06-.02,0-.04,0-.05,0-.04,0-.08.02-.12.02-.05,0-.11.02-.16.03-.02,0-.03,0-.05,0-.02,0-.03,0-.05,0-.05,0-.12.07-.18.09,0,.21,0,.42-.01.64h0s0,.05,0,.08v-.08c-.2.04-.41.08-.61.12-.06.02-.12.03-.18.04-.15.03-.31.07-.46.11-.08.02-.15.04-.22.05-.18.05-.37.1-.55.15-.22.06-.44.13-.67.2-.25.08-.5.16-.74.25-.17.06-.34.12-.51.18-.04.01-.08.03-.11.04-.2.07-.4.15-.6.23-.22.09-.43.18-.65.27-1.87.81-3.45,1.96-4.16,4-.05.15-.14.3-.23.44-1.14,1.76-1.79,3.69-2.09,5.77-.36,2.42-.01,4.74.93,6.97.84,1.97,1.96,3.76,3.25,5.48.86,1.16,1.83,2.12,3.17,2.68.99.41,1.97.84,2.96,1.25,1.54.64,3.12,1.08,4.81,1.08.34,0,.68,0,1.01-.01v.54c.06,0,.12,0,.18,0,.21,0,.41,0,.62-.01.06,0,.12,0,.19,0,0-.14,0-.27.01-.4,0-.06,0-.12,0-.18h0s0-.02,0-.18c0-.02,0-.05,0-.07,0-.03,0-.07,0-.1,0-.04,0-.08,0-.13,0,.08,0,.16,0,.22,0,.11,0,.19,0,.25.16-.01.32-.02.48-.04.1,0,.21-.02.31-.04.04,0,.09,0,.13-.02.07,0,.13-.02.2-.03.11-.02.21-.03.32-.05.16-.03.31-.06.47-.09.07-.02.14-.03.21-.05.09-.02.18-.04.27-.07.11-.03.22-.06.32-.09.06-.02.13-.04.19-.06.1-.03.19-.06.29-.1.07-.03.15-.05.22-.08.11-.04.23-.09.34-.14,1.13-.48,2.18-1.17,3.26-1.77,1.39-.77,2.65-1.71,3.48-3.1.67-1.13,1.33-2.28,1.89-3.48,1.55-3.33,1.71-6.79.7-10.28Zm-13.83-4.82h.02s-.04,3.26-.04,3.26v.02s0,.01,0,.02l-.02,1.77v.3s-.02,1.47-.02,1.47l-.16,13.59-.02,1.68-.02,1.58c-.24.01-.48.02-.72.02-2.44.14-4.71-.86-6.91-1.8-.9-.36-1.78-.73-2.51-1.38-.74-.62-1.3-1.4-1.86-2.19-1.11-1.57-2.09-3.26-2.76-5.06-1.38-3.59-.87-7.71.94-11.04.2-.39.48-.72.65-1.14.17-.49.39-.97.7-1.4,1.09-1.58,2.94-2.39,4.69-3.07,1.11-.42,2.26-.77,3.43-1.01,0,.04,0,.08,0,.12,0,.27,0,.54-.01.82,0,.02,0,.03,0,.05-.08,5.02-.15,11.33-.11,15.99v.03c.05,1.79.13,3.22.27,3.97.64,3.48,3.25,3.63,3.25,3.63l.21-21,1.04-.89-.02,1.69h0Zm11.77,16.03c-.89,1.69-1.76,3.38-3.44,4.41-.68.46-1.76,1.04-2.48,1.48-1.54,1-3.28,1.5-5.07,1.68,0-.08,0-.18.01-.28,0-.03,0-.07,0-.11.02-.49.04-.88.07-1.22.09-1.04.34-1.58,1.24-3,.71-1.11,1.43-1.52,1.89-1.67.31-.1.52-.41.52-.76v-15.28s-.07.03-.11.04l-1.58.69c.08-.07,1.13-.94,1.69-2.05v-.92c0-.89.08-1.97.07-3.06,1.39.51,2.72,1.19,3.94,2.02l.61.41c1.47.89,2.18,2.45,2.88,3.96,2.25,4.35,2.19,9.41-.25,13.65Z"></path>
  <path class="cls-1" d="m22.43,6.68h0l-.04-.32-.07-.52-.03-.25c.02.08.03.17.05.25.03.17.05.35.06.52.01.11.02.21.03.32Z"></path>
  <path class="cls-1" d="m18.6,37.21c0,.12,0,.25,0,.37,0,.08,0,.16,0,.24h0v.13c0,.19,0,.38,0,.57,0,.18,0,.35,0,.52,0,.24,0,.47,0,.68,0,.21,0,.4,0,.58,0,.64,0,1.05,0,1.05l-1,.32.05-4.49c.13,0,.26.02.39.02.2,0,.4,0,.6,0Z"></path>
  <path class="cls-1" d="m18.59,37.58c0,.12,0,.25,0,.37v-.12h0c0-.09,0-.17,0-.25Z"></path>
  <path class="cls-1" d="m21.87,29.03c-.46.15-1.18.56-1.89,1.67-.91,1.42-1.15,1.96-1.24,3,.1-1.02.34-1.56,1.25-2.96.71-1.1,1.43-1.51,1.89-1.66.31-.1.52-.41.52-.76v-.05c0,.35-.21.66-.52.76Zm-8.74-4.75c-.05-4.66.02-10.97.11-15.99,0-.02,0-.04,0-.05,0-.28,0-.55.01-.82-.07,2.66-.27,11.4-.12,16.86Zm4.75-12.58h0s-.22,20.42-.22,20.42l.16-13.59.02-1.47v-.3s.02-1.77.02-1.77c0,0,0-.01,0-.02v-.02l.04-3.27h-.02Zm3.99,17.32c-.46.15-1.18.56-1.89,1.67-.91,1.42-1.15,1.96-1.24,3-.03.34-.05.73-.07,1.22,0,.04,0,.07,0,.11,0-.01,0-.02,0-.03.11-1.86.11-2.19,1.32-3.95.71-1.04,1.43-1.42,1.89-1.56.31-.1.52-.39.52-.71v-.5c0,.35-.21.66-.52.76Zm0,0c-.46.15-1.18.56-1.89,1.67-.91,1.42-1.15,1.96-1.24,3-.03.34-.05.73-.07,1.22,0,.04,0,.07,0,.11,0-.01,0-.02,0-.03.11-1.86.11-2.19,1.32-3.95.71-1.04,1.43-1.42,1.89-1.56.31-.1.52-.39.52-.71v-.5c0,.35-.21.66-.52.76Zm-3.99-17.32h0s-.22,20.42-.22,20.42l.16-13.59.02-1.47v-.3s.02-1.77.02-1.77c0,0,0-.01,0-.02v-.02l.04-3.27h-.02Zm-4.75,12.58c-.05-4.66.02-10.97.11-15.99,0-.02,0-.04,0-.05,0-.28,0-.55.01-.82-.07,2.66-.27,11.4-.12,16.86Zm0,0c-.05-4.66.02-10.97.11-15.99,0-.02,0-.04,0-.05,0-.28,0-.55.01-.82-.07,2.66-.27,11.4-.12,16.86Zm4.75-12.58h0s-.22,20.42-.22,20.42l.16-13.59.02-1.47v-.3s.02-1.77.02-1.77c0,0,0-.01,0-.02v-.02l.04-3.27h-.02Zm3.99,17.32c-.46.15-1.18.56-1.89,1.67-.91,1.42-1.15,1.96-1.24,3-.03.34-.05.73-.07,1.22,0,.04,0,.07,0,.11,0-.01,0-.02,0-.03.11-1.86.11-2.19,1.32-3.95.71-1.04,1.43-1.42,1.89-1.56.31-.1.52-.39.52-.71v-.5c0,.35-.21.66-.52.76Zm0,0c-.46.15-1.18.56-1.89,1.67-.91,1.42-1.15,1.96-1.24,3-.03.34-.05.73-.07,1.22,0,.04,0,.07,0,.11,0-.01,0-.02,0-.03.11-1.86.11-2.19,1.32-3.95.71-1.04,1.43-1.42,1.89-1.56.31-.1.52-.39.52-.71v-.5c0,.35-.21.66-.52.76Zm-3.99-17.32h0s-.22,20.42-.22,20.42l.16-13.59.02-1.47v-.3s.02-1.77.02-1.77c0,0,0-.01,0-.02v-.02l.04-3.27h-.02Zm-4.75,12.58c-.05-4.66.02-10.97.11-15.99,0-.02,0-.04,0-.05,0-.28,0-.55.01-.82-.07,2.66-.27,11.4-.12,16.86Zm0,0c-.05-4.66.02-10.97.11-15.99,0-.02,0-.04,0-.05,0-.28,0-.55.01-.82-.07,2.66-.27,11.4-.12,16.86Zm4.75-12.58h0s-.22,20.42-.22,20.42l.16-13.59.02-1.47v-.3s.02-1.77.02-1.77c0,0,0-.01,0-.02v-.02l.04-3.27h-.02Zm3.99,17.32c-.46.15-1.18.56-1.89,1.67-.91,1.42-1.15,1.96-1.24,3-.03.34-.05.73-.07,1.22,0,.04,0,.07,0,.11,0-.01,0-.02,0-.03.11-1.86.11-2.19,1.32-3.95.71-1.04,1.43-1.42,1.89-1.56.31-.1.52-.39.52-.71v-.5c0,.35-.21.66-.52.76Zm0,0c-.46.15-1.18.56-1.89,1.67-.91,1.42-1.15,1.96-1.24,3-.03.34-.05.73-.07,1.22,0,.04,0,.07,0,.11,0-.01,0-.02,0-.03.11-1.86.11-2.19,1.32-3.95.71-1.04,1.43-1.42,1.89-1.56.31-.1.52-.39.52-.71v-.5c0,.35-.21.66-.52.76Zm-3.99-17.32h0s-.22,20.42-.22,20.42l.16-13.59.02-1.47v-.3s.02-1.77.02-1.77c0,0,0-.01,0-.02v-.02l.04-3.27h-.02Zm-4.75,12.58c-.05-4.66.02-10.97.11-15.99,0-.02,0-.04,0-.05,0-.28,0-.55.01-.82-.07,2.66-.27,11.4-.12,16.86Zm5.5,11.36s0,.06,0,.1c0,.02,0,.05,0,.07,0,.16,0,.17,0,.17h0s0,.01,0,.01c0-.06,0-.14,0-.25,0-.06,0-.14,0-.22,0,.04,0,.08,0,.13ZM13.27,6.76v.08s0-.05,0-.08h0Zm8.6,22.27c-.46.15-1.18.56-1.89,1.67-.91,1.42-1.15,1.96-1.24,3-.03.34-.05.73-.07,1.22,0,.04,0,.07,0,.11,0-.01,0-.02,0-.03.11-1.86.11-2.19,1.32-3.95.71-1.04,1.43-1.42,1.89-1.56.31-.1.52-.39.52-.71v-.5c0,.35-.21.66-.52.76Zm-3.99-17.32h0s-.22,20.42-.22,20.42l.16-13.59.02-1.47v-.3s.02-1.77.02-1.77c0,0,0-.01,0-.02v-.02l.04-3.27h-.02Zm-4.75,12.58c-.05-4.66.02-10.97.11-15.99,0-.02,0-.04,0-.05,0-.28,0-.55.01-.82-.07,2.66-.27,11.4-.12,16.86Zm0,0c-.05-4.66.02-10.97.11-15.99,0-.02,0-.04,0-.05,0-.28,0-.55.01-.82-.07,2.66-.27,11.4-.12,16.86Zm4.75-12.58h0s-.22,20.42-.22,20.42l.16-13.59.02-1.47v-.3s.02-1.77.02-1.77c0,0,0-.01,0-.02v-.02l.04-3.27h-.02Zm3.99,17.32c-.46.15-1.18.56-1.89,1.67-.91,1.42-1.15,1.96-1.24,3-.03.34-.05.73-.07,1.22,0,.04,0,.07,0,.11,0-.01,0-.02,0-.03.11-1.86.11-2.19,1.32-3.95.71-1.04,1.43-1.42,1.89-1.56.31-.1.52-.39.52-.71v-.5c0,.35-.21.66-.52.76Zm0,0c-.46.15-1.18.56-1.89,1.67-.91,1.42-1.15,1.96-1.24,3-.03.34-.05.73-.07,1.22,0,.04,0,.07,0,.11,0-.01,0-.02,0-.03.11-1.86.11-2.19,1.32-3.95.71-1.04,1.43-1.42,1.89-1.56.31-.1.52-.39.52-.71v-.5c0,.35-.21.66-.52.76Zm-3.99-17.32h0s-.22,20.42-.22,20.42l.16-13.59.02-1.47v-.3s.02-1.77.02-1.77c0,0,0-.01,0-.02v-.02l.04-3.27h-.02Zm-4.75,12.58c-.05-4.66.02-10.97.11-15.99,0-.02,0-.04,0-.05,0-.28,0-.55.01-.82-.07,2.66-.27,11.4-.12,16.86Zm0,0c-.05-4.66.02-10.97.11-15.99,0-.02,0-.04,0-.05,0-.28,0-.55.01-.82-.07,2.66-.27,11.4-.12,16.86Zm4.75-12.58h0s-.22,20.42-.22,20.42l.16-13.59.02-1.47v-.3s.02-1.77.02-1.77c0,0,0-.01,0-.02v-.02l.04-3.27h-.02Zm3.99,17.32c-.46.15-1.18.56-1.89,1.67-.91,1.42-1.15,1.96-1.24,3-.03.34-.05.73-.07,1.22,0,.04,0,.07,0,.11,0-.01,0-.02,0-.03.11-1.86.11-2.19,1.32-3.95.71-1.04,1.43-1.42,1.89-1.56.31-.1.52-.39.52-.71v-.5c0,.35-.21.66-.52.76Zm0,0c-.46.15-1.18.56-1.89,1.67-.91,1.42-1.15,1.96-1.24,3-.03.34-.05.73-.07,1.22,0,.04,0,.07,0,.11,0-.01,0-.02,0-.03.11-1.86.11-2.19,1.32-3.95.71-1.04,1.43-1.42,1.89-1.56.31-.1.52-.39.52-.71v-.5c0,.35-.21.66-.52.76Zm-3.99-17.32h0s-.22,20.42-.22,20.42l.16-13.59.02-1.47v-.3s.02-1.77.02-1.77c0,0,0-.01,0-.02v-.02l.04-3.27h-.02Zm-4.75,12.58c-.05-4.66.02-10.97.11-15.99,0-.02,0-.04,0-.05,0-.28,0-.55.01-.82-.07,2.66-.27,11.4-.12,16.86Zm0,0c-.05-4.66.02-10.97.11-15.99,0-.02,0-.04,0-.05,0-.28,0-.55.01-.82-.07,2.66-.27,11.4-.12,16.86Zm4.75-12.58h0s-.22,20.42-.22,20.42l.16-13.59.02-1.47v-.3s.02-1.77.02-1.77c0,0,0-.01,0-.02v-.02l.04-3.27h-.02Zm3.99,17.32c-.46.15-1.18.56-1.89,1.67-.91,1.42-1.15,1.96-1.24,3,.1-1.02.34-1.56,1.25-2.96.71-1.1,1.43-1.51,1.89-1.66.31-.1.52-.41.52-.76v-.05c0,.35-.21.66-.52.76Zm-3.99-17.32h0s-.22,20.42-.22,20.42l.16-13.59.02-1.47v-.3s.02-1.77.02-1.77c0,0,0-.01,0-.02v-.02l.04-3.27h-.02Zm-4.75,12.58c-.05-4.66.02-10.97.11-15.99,0-.02,0-.04,0-.05,0-.28,0-.55.01-.82-.07,2.66-.27,11.4-.12,16.86Zm-2.44,11.56c.31.11.63.21.94.31-.32-.09-.63-.2-.94-.31Zm1.42.44c.32.09.64.17.97.24-.33-.07-.65-.15-.97-.24Zm2.94.59c-.17-.02-.33-.05-.5-.07.16.03.33.05.5.08.11.02.21.03.32.05-.11-.02-.21-.03-.32-.05Zm6.82-7.8c-.46.15-1.18.56-1.89,1.66-.91,1.4-1.15,1.94-1.25,2.96-.03.34-.05.73-.07,1.22,0,.04,0,.07,0,.11,0-.01,0-.02,0-.03.11-1.86.11-2.19,1.32-3.95.71-1.04,1.43-1.42,1.89-1.56.31-.1.52-.39.52-.71v-.45c0,.35-.21.66-.52.76Zm-3.24,6.56s0,.06,0,.1c0,.02,0,.05,0,.07,0,.16,0,.17,0,.17h0s0,.01,0,.01c0-.06,0-.14,0-.25,0-.06,0-.14,0-.22,0,.04,0,.08,0,.13Zm2.91.47c-.07.02-.14.04-.21.05.05-.01.11-.03.16-.04.02,0,.03,0,.05-.01.03,0,.06-.02.09-.03-.03,0-.06.02-.09.02Zm.86-29.75s0,0,.02,0v-.5s-.05-.02-.08-.02c-.02-.08-.03-.17-.05-.25l.03.25.07.52.04.32h0c0-.11-.02-.21-.03-.32Zm-9.11-.86h0s0,0,0,0c0,.1-.02.38-.02.48v.09s.02,0,.02,0v-.05c0-.18,0-.35,0-.52h0s0,0,0,0Z"></path>
  <path class="cls-1" d="m13.29,5.49h0c0,.18,0,.35,0,.52v-.52s0,0,0,0h0Z"></path>
  <path class="cls-1" d="m29.25,33.19c.69-.86,1.33-1.75,2.07-2.56,1.07-1.18,1.56-2.66,2.21-4.06.78-1.71.9-3.54.68-5.34-.19-1.65-.64-3.27-.99-4.9-.08-.35-.21-.69-.32-1.04,3.31,4.54,1,15.67-3.65,17.91Z"></path>
  <path class="cls-1" d="m14.63,37.71c-2.16.25-3.99-.63-5.94-1.71,2.08.6,4,1.15,5.94,1.71Z"></path>
  <path class="cls-1" d="m4.78,33.32c-1.65-1.53-2.6-3.47-3.36-5.53,1.11,1.83,2.22,3.66,3.36,5.53Z"></path>
  <path class="cls-1" d="m.26,23.09c-.9-3.19.62-10.29,3.39-12.02C1.4,14.77-.21,18.64.26,23.09Z"></path>
  <path class="cls-1" d="m33.14,24.78c-.57,1.72-1.42,3.4-2.42,4.91-1,1.5-2.25,2.87-3.58,4.09-2,1.81-4.47,2.73-7.11,3.28-.05.01-.1.02-.15.03-.02,0-.05,0-.08.02-.06,0-.13.02-.19.03s-.13.02-.19.03h0s-.09,0-.13.02c-.06,0-.11.01-.17.02-.08,0-.16.01-.23.02-.08,0-.15,0-.22,0-.02,0-.03,0-.05,0,0-.22,0-.44.01-.66.1,0,.2-.01.31-.02.02,0,.05,0,.07,0,.14,0,.28-.02.42-.04s.28-.03.42-.05c.03,0,.06,0,.09-.01.09,0,.18-.02.26-.04.02,0,.05,0,.07-.01.14-.02.28-.05.42-.08.03,0,.05,0,.08-.02.05,0,.11-.02.16-.03.03,0,.05,0,.08-.02.01,0,.02,0,.04,0,.09-.02.19-.04.28-.07,0,0,.02,0,.03,0t0,0c.05-.01.11-.03.16-.04.02,0,.03,0,.05-.01.03,0,.06-.02.09-.03.07-.02.13-.04.2-.06.06-.02.13-.04.19-.06.06-.02.11-.03.17-.05.03,0,.06-.02.08-.03.03-.01.06-.02.09-.03.01,0,.02,0,.03-.01.02,0,.05-.02.07-.02.04-.01.08-.02.11-.04.02,0,.05-.02.07-.03.02,0,.04-.02.06-.02.12-.04.24-.09.35-.14.15-.06.3-.13.44-.21.06-.03.12-.06.18-.09.06-.03.13-.07.19-.1,0,0,.01,0,.02-.01.04-.02.08-.04.13-.07.08-.05.17-.1.26-.15,0,0,0,0,.02,0h.01c.24-.15.47-.29.7-.43.16-.1.32-.2.48-.3.16-.1.33-.21.49-.31.22-.15.45-.29.67-.45.13-.08.25-.17.38-.26.01,0,.02-.02.04-.02.2-.15.4-.29.6-.44,0,0,0,0,0,0,.21-.15.41-.31.61-.47.75-.61,1.36-1.45,1.85-2.3,1.17-2.05,2.2-4.17,2.55-6.55.53-3.67.03-7.13-1.86-10.39-.85-1.47-1.72-2.87-3.17-3.81-1.63-1.07-3.36-1.91-5.21-2.51,0-.11-.02-.21-.03-.32,0,0,0,0,.02,0v-.5s-.05-.02-.08-.02c-.02-.08-.03-.17-.05-.25.57.17,1.14.36,1.7.57,2.12.8,4,1.89,5.48,3.58.61.69.95,1.61,1.41,2.43.09.16.1.36.2.52,1.03,1.76,1.5,3.72,1.95,5.66.49,2.12.79,4.34.11,6.43Z"></path>
  <path class="cls-1" d="m22.43,6.68h0l-.04-.32-.07-.52-.03-.25c.02.08.03.17.05.25.03,0,.06.02.09.02v.5s-.02,0-.03,0c.01.11.02.21.03.32Z"></path>
  <path class="cls-1" d="m13.29,5.49h0s0,0,0,0c0,.1-.02.38-.02.48v.09s-.03,0-.03,0c-1.74.31-3.45.74-5.05,1.56-.07.03-.15.05-.22.08-.03-.04-.06-.08-.09-.13.22-.17.44-.36.68-.49,1.22-.69,2.46-1.32,3.9-1.48.28-.03.56-.07.84-.12Z"></path>
  <path class="cls-1" d="m13.29,5.49h0c0,.18,0,.35,0,.52v.05h-.03s0-.09,0-.09c0-.1.02-.38.02-.48h0s0,0,0,0Z"></path>
  <path class="cls-1" d="m17.61,36.58v.61c-.13,0-.25-.02-.38-.03-.09,0-.18-.02-.27-.03l-.32-.04c-.15-.02-.3-.04-.45-.06-.28-.04-.55-.08-.82-.11-.11-.02-.21-.03-.32-.05-.17-.02-.33-.05-.5-.07-.17-.03-.33-.05-.5-.08-.33-.06-.65-.12-.98-.19-.33-.07-.65-.15-.97-.24-.16-.04-.32-.09-.48-.13-.32-.09-.63-.2-.94-.31-.25-.09-.51-.19-.76-.29-.08-.03-.16-.06-.24-.1-.1-.04-.2-.08-.3-.13-.05-.02-.1-.05-.15-.07-.4-.18-.79-.37-1.17-.59-.07-.04-.14-.08-.21-.12-.11-.06-.22-.12-.33-.19-1.16-.69-2.07-1.61-2.83-2.72-1.4-2.04-2.7-4.11-3.33-6.53-.08-.29-.1-.59-.01-.93.12.35.22.72.36,1.07,1.04,2.54,2.45,4.87,4.16,7.01.05.06.09.11.14.17.04.05.08.09.12.13.06.06.12.13.18.18.03.03.06.06.09.08.03.03.06.06.09.08.06.05.12.1.18.15.07.06.15.12.22.17h0c.15.12.3.22.46.32.1.06.21.13.31.19.1.06.2.11.3.16.12.07.25.13.38.19,0,0,.02.01.03.02.24.12.49.23.74.34.18.08.35.15.52.22,1.25.54,2.52,1.04,3.83,1.39,1.12.3,2.31.46,3.47.5.22,0,.44.02.67.02Z"></path>
  <path class="cls-1" d="m24.3,34.94s0,0-.02,0c-.08.05-.17.1-.26.15-.04.02-.08.05-.13.07.13-.07.26-.14.38-.22h.02Z"></path>
  <path class="cls-1" d="m13.46,6.03s-.12.07-.18.09c-.01,0-.02,0-.04.01v-.07s.01-.09.01-.09c0-.1.02-.38.02-.48h0c0,.17,0,.34,0,.52v.05c.06-.01.12-.02.18-.03Z"></path>
  <path class="cls-1" d="m22.43,5.85v.5s-.02,0-.03,0h-.01l-.07-.52s0,0,.02,0c.03,0,.06.02.09.02Z"></path>
</svg>
