<?xml version="1.0" encoding="UTF-8"?>
<svg xmlns="http://www.w3.org/2000/svg" id="Calque_1" viewBox="0 0 441.96 65.08">
  <defs>
    <style>.cls-1{fill:#feeddb;}</style>
  </defs>
  <polygon class="cls-1" points="90.11 18.42 90.11 15.83 83.95 15.83 82.41 15.83 81.09 15.83 81.09 29.24 83.95 29.24 83.95 23.92 89.31 23.92 89.31 21.44 83.95 21.44 83.95 18.42 90.11 18.42"></polygon>
  <path class="cls-1" d="m94.91,17.02c.51,0,.91-.13,1.21-.4.3-.27.45-.63.45-1.07s-.15-.82-.44-1.08c-.29-.26-.7-.39-1.22-.39s-.91.14-1.21.41c-.3.27-.45.63-.45,1.06,0,.47.15.84.44,1.09.29.26.7.38,1.22.38Z"></path>
  <rect class="cls-1" x="93.58" y="19.11" width="2.71" height="10.14"></rect>
  <path class="cls-1" d="m106.94,19.09c-.14-.05-.31-.1-.51-.13-.2-.04-.41-.06-.63-.06-.51,0-1,.12-1.46.36s-.87.58-1.21,1.01c-.13.16-.23.33-.33.51l-.05-1.67h-2.61v10.14h2.73v-5.25c0-.32.05-.61.16-.88.11-.27.26-.5.45-.7.19-.2.42-.35.68-.46.26-.11.54-.16.85-.16.23,0,.45.03.67.09.22.06.4.12.55.2l.72-2.99Z"></path>
  <path class="cls-1" d="m116.86,26.2c0-.36-.05-.68-.15-.98-.1-.29-.26-.56-.48-.79-.25-.27-.59-.5-1.02-.71-.43-.2-.94-.39-1.55-.56-.47-.13-.84-.24-1.12-.34-.27-.1-.48-.19-.62-.27-.13-.09-.23-.2-.29-.33-.07-.13-.11-.26-.11-.4s.03-.27.09-.39.14-.22.26-.3c.11-.08.26-.13.43-.17.17-.04.37-.06.58-.06.24,0,.51.05.82.15.3.1.6.24.89.42s.54.38.77.59l1.45-1.61c-.32-.32-.69-.6-1.12-.83s-.89-.42-1.38-.55c-.5-.13-1-.19-1.53-.19s-1.02.07-1.49.22c-.47.15-.89.35-1.25.62-.36.27-.65.59-.85.97-.2.38-.3.8-.3,1.26,0,.38.06.73.18,1.04.12.31.3.6.52.87.27.28.63.53,1.08.76s1,.42,1.65.58c.42.11.76.22,1.03.32.27.1.46.18.59.24.23.17.34.39.34.67,0,.14-.03.27-.09.39-.06.12-.14.22-.26.31-.12.08-.25.15-.41.19-.16.04-.33.07-.52.07-.48,0-.97-.09-1.45-.28s-.92-.49-1.32-.91l-1.68,1.46c.45.55,1.03.98,1.76,1.29.73.31,1.57.47,2.51.47.76,0,1.45-.14,2.06-.41.61-.27,1.09-.66,1.44-1.15.35-.49.52-1.05.52-1.68Z"></path>
  <polygon class="cls-1" points="125.47 21.54 125.47 19.11 123.42 19.11 123.42 16.54 120.71 16.54 120.71 19.11 118.82 19.11 118.82 21.54 120.71 21.54 120.71 29.24 123.42 29.24 123.42 21.54 125.47 21.54"></polygon>
  <path class="cls-1" d="m147.21,15.83h-2.8v3.66c0,.55,0,1.06.02,1.52.01.47.03.91.05,1.32.02.42.04.82.08,1.21.03.39.07.77.1,1.15,0,.1.02.2.03.3l-6.75-9.16h-2.55v13.41h2.8v-4.83c0-.26,0-.5,0-.73,0-.23-.02-.47-.04-.73-.02-.26-.04-.56-.07-.9s-.06-.75-.1-1.22c-.02-.18-.04-.39-.06-.6l6.7,9h2.59v-13.41Z"></path>
  <path class="cls-1" d="m158.23,27.9v1.34h2.73v-10.14h-2.69v1.35c-.19-.27-.42-.52-.68-.73-.31-.26-.67-.46-1.09-.6s-.87-.22-1.36-.22c-.88,0-1.66.23-2.34.68-.69.45-1.23,1.07-1.63,1.86-.4.79-.6,1.69-.6,2.71s.2,1.93.59,2.72c.39.79.93,1.42,1.6,1.88s1.43.69,2.27.69c.47,0,.92-.07,1.33-.22.42-.15.8-.34,1.13-.59.29-.21.53-.45.73-.72Zm-1.12-1.19c-.38.24-.83.36-1.33.36s-.93-.12-1.31-.36c-.38-.24-.67-.58-.89-1.02-.22-.44-.32-.95-.32-1.54s.11-1.08.32-1.51c.22-.43.51-.78.89-1.02s.81-.37,1.31-.37.95.12,1.33.37c.38.25.68.59.89,1.02.21.43.31.94.31,1.51s-.11,1.1-.31,1.54c-.21.44-.51.78-.89,1.02Z"></path>
  <polygon class="cls-1" points="168.29 16.54 165.59 16.54 165.59 19.11 163.7 19.11 163.7 21.54 165.59 21.54 165.59 29.24 168.29 29.24 168.29 21.54 170.35 21.54 170.35 19.11 168.29 19.11 168.29 16.54"></polygon>
  <rect class="cls-1" x="173.31" y="19.11" width="2.71" height="10.14"></rect>
  <path class="cls-1" d="m175.86,14.46c-.29-.26-.7-.39-1.22-.39s-.91.14-1.21.41c-.3.27-.45.63-.45,1.06,0,.47.15.84.44,1.09.29.26.7.38,1.22.38s.91-.13,1.21-.4c.3-.27.45-.63.45-1.07s-.15-.82-.44-1.08Z"></path>
  <path class="cls-1" d="m187.29,19.59c-.81-.46-1.72-.69-2.74-.69s-1.95.23-2.75.69c-.81.46-1.44,1.08-1.91,1.87s-.7,1.69-.7,2.71.23,1.93.7,2.72c.46.79,1.1,1.42,1.91,1.87.81.45,1.73.68,2.75.68s1.93-.23,2.74-.68c.81-.45,1.44-1.08,1.9-1.87.46-.79.69-1.7.69-2.72s-.23-1.93-.69-2.71-1.09-1.41-1.9-1.87Zm-.48,6.06c-.22.44-.53.79-.92,1.03-.39.25-.84.37-1.33.37s-.96-.12-1.35-.37c-.39-.25-.71-.59-.93-1.03-.23-.44-.34-.94-.32-1.48-.01-.56.1-1.06.32-1.49s.54-.78.93-1.03c.39-.26.84-.38,1.35-.38s.94.12,1.33.37c.39.25.7.59.92,1.03s.33.94.33,1.5-.11,1.04-.33,1.48Z"></path>
  <path class="cls-1" d="m200.58,19.36c-.51-.31-1.15-.46-1.92-.46-.56,0-1.09.12-1.6.35-.51.23-.94.53-1.31.91-.1.1-.16.21-.25.32l-.05-1.36h-2.59v10.14h2.71v-6.09c0-.27.05-.52.16-.75.11-.23.25-.43.44-.61.18-.18.41-.32.67-.41.26-.1.54-.14.85-.14.38-.03.7.04.96.18.26.15.46.37.58.68.13.31.19.69.19,1.15v6h2.71v-6.21c0-.91-.13-1.67-.39-2.29s-.65-1.08-1.16-1.39Z"></path>
  <path class="cls-1" d="m212.57,27.87c.35-.49.52-1.05.52-1.68,0-.36-.05-.68-.15-.98-.1-.29-.26-.56-.48-.79-.25-.27-.59-.5-1.02-.71-.43-.2-.94-.39-1.55-.56-.47-.13-.84-.24-1.12-.34-.27-.1-.48-.19-.62-.27-.13-.09-.23-.2-.29-.33-.07-.13-.11-.26-.11-.4s.03-.27.09-.39.14-.22.26-.3c.11-.08.26-.13.43-.17.17-.04.37-.06.58-.06.24,0,.51.05.82.15.3.1.6.24.89.42s.54.38.77.59l1.45-1.61c-.32-.32-.69-.6-1.12-.83s-.89-.42-1.38-.55c-.5-.13-1-.19-1.53-.19s-1.02.07-1.49.22c-.47.15-.89.35-1.25.62-.36.27-.65.59-.85.97-.2.38-.3.8-.3,1.26,0,.38.06.73.18,1.04.12.31.3.6.52.87.27.28.63.53,1.08.76s1,.42,1.65.58c.42.11.76.22,1.03.32.27.1.46.18.59.24.23.17.34.39.34.67,0,.14-.03.27-.09.39-.06.12-.14.22-.26.31-.12.08-.25.15-.41.19-.16.04-.33.07-.52.07-.48,0-.97-.09-1.45-.28s-.92-.49-1.32-.91l-1.68,1.46c.45.55,1.03.98,1.76,1.29.73.31,1.57.47,2.51.47.76,0,1.45-.14,2.06-.41.61-.27,1.09-.66,1.44-1.15Z"></path>
  <path class="cls-1" d="m228.25,27.37c.35-.63.53-1.35.53-2.16s-.17-1.51-.53-2.13c-.35-.62-.83-1.11-1.45-1.47-.62-.36-1.32-.54-2.1-.54s-1.5.18-2.11.54-1.1.85-1.45,1.47c-.35.62-.53,1.33-.53,2.13s.18,1.53.53,2.16c.35.63.83,1.13,1.45,1.49.62.36,1.32.54,2.11.54s1.48-.18,2.1-.54c.61-.36,1.1-.85,1.45-1.49Zm-2.05.53c-.44.27-.94.41-1.5.41s-1.06-.14-1.5-.41-.79-.64-1.04-1.1c-.25-.46-.37-.99-.36-1.59-.01-.58.11-1.11.36-1.57.25-.47.59-.83,1.04-1.09.44-.26.94-.39,1.5-.39s1.06.13,1.5.39c.44.26.78.62,1.02,1.08s.37.99.37,1.58-.12,1.12-.37,1.59c-.24.47-.58.83-1.02,1.1Z"></path>
  <path class="cls-1" d="m233.93,17.94c-.43,0-.8.09-1.12.27-.32.18-.57.42-.74.73s-.26.66-.26,1.06v1.3h-1.42v1.07h1.42v6.87h1.16v-6.87h2.03v-1.07h-2.03v-1.3c0-.2.04-.38.11-.53s.19-.26.34-.34c.15-.08.34-.11.56-.11.17,0,.35.04.54.11.19.08.36.2.53.38l.4-.9c-.17-.2-.39-.37-.65-.48-.26-.12-.55-.18-.88-.18Z"></path>
  <path class="cls-1" d="m249.6,28.89l1.46,1.93.95-.69-1.42-1.87c.17-.14.34-.26.5-.42.47-.5.84-1.08,1.1-1.75.26-.67.39-1.4.39-2.18s-.13-1.53-.39-2.2c-.26-.67-.62-1.25-1.1-1.75s-1.03-.88-1.66-1.15-1.33-.41-2.1-.41-1.45.14-2.08.41-1.19.65-1.66,1.15c-.47.5-.84,1.08-1.1,1.75-.26.67-.39,1.4-.39,2.2s.13,1.53.39,2.2c.26.67.62,1.25,1.1,1.74.47.49,1.03.87,1.66,1.14s1.33.41,2.08.41,1.46-.14,2.1-.41c.06-.03.12-.07.18-.1Zm-3.89-.99c-.49-.21-.92-.51-1.27-.9-.36-.39-.63-.85-.82-1.37-.19-.53-.29-1.1-.29-1.72s.1-1.21.29-1.74c.19-.53.47-.98.82-1.37.36-.39.78-.69,1.27-.9.49-.21,1.03-.32,1.61-.32s1.12.11,1.61.32c.49.21.92.52,1.27.9.36.39.63.85.83,1.37s.3,1.11.3,1.74-.1,1.2-.3,1.72-.48.98-.83,1.37c-.1.11-.23.2-.35.3l-1.74-2.3-.96.64,1.71,2.27c-.48.19-.99.29-1.54.29s-1.12-.1-1.61-.31Z"></path>
  <path class="cls-1" d="m261.85,29.24v-8h-1.14v4.86c0,.31-.06.6-.18.87s-.29.52-.5.72c-.21.2-.46.37-.75.48-.29.12-.59.18-.93.18-.44,0-.81-.09-1.11-.28-.3-.18-.52-.46-.67-.82s-.22-.81-.22-1.36v-4.66h-1.16v4.89c0,.72.11,1.31.33,1.79.22.48.54.85.96,1.1.42.25.94.38,1.55.38.42,0,.82-.09,1.21-.26.39-.17.73-.41,1.01-.7.18-.19.32-.39.43-.6l.04,1.41h1.13Z"></path>
  <path class="cls-1" d="m269.54,29.23c.39-.11.74-.25,1.07-.43.33-.18.6-.39.84-.62l-.59-.83c-.45.38-.86.63-1.23.76-.37.13-.75.19-1.12.19-.64,0-1.19-.13-1.64-.38s-.8-.62-1.04-1.08c-.21-.4-.31-.87-.34-1.39h6.29l.02-.54c.02-.56-.05-1.08-.21-1.55-.16-.47-.4-.88-.72-1.22-.32-.34-.7-.61-1.14-.8-.44-.19-.93-.29-1.47-.29-.57,0-1.1.1-1.59.31-.49.21-.91.5-1.26.88-.35.38-.62.82-.82,1.33s-.29,1.07-.29,1.69c0,.81.17,1.52.52,2.15s.83,1.11,1.44,1.46c.62.35,1.32.52,2.11.52.41,0,.8-.05,1.19-.16Zm-2.79-6.73c.42-.23.91-.34,1.48-.34.49,0,.91.11,1.26.32.35.21.62.49.82.84.19.34.3.7.32,1.07v.11h-5.11c.05-.36.13-.69.27-.97.22-.45.54-.79.96-1.02Z"></path>
  <path class="cls-1" d="m281.95,25.23c0-.81-.17-1.52-.5-2.15-.33-.62-.79-1.11-1.35-1.47s-1.2-.54-1.91-.54c-.37,0-.72.06-1.06.17-.34.11-.65.27-.94.47-.28.2-.52.43-.71.69-.06.09-.11.18-.16.27v-4.77h-1.14v11.33h1.13l.03-1.33s.05.09.08.14c.2.27.44.5.73.71s.61.37.97.48c.36.12.72.18,1.1.18.71,0,1.35-.18,1.91-.54.56-.36,1.01-.85,1.33-1.48.33-.63.49-1.35.49-2.15Zm-1.5,1.57c-.24.47-.57.83-.98,1.1s-.9.41-1.43.41-1.02-.13-1.43-.4c-.42-.27-.75-.63-.98-1.1-.24-.47-.36-.99-.36-1.59s.12-1.12.36-1.58c.24-.46.57-.82.98-1.09.42-.27.89-.4,1.43-.4s1.02.13,1.43.4c.42.27.74.63.98,1.09s.36.99.36,1.58-.12,1.11-.36,1.57Z"></path>
  <path class="cls-1" d="m291.32,24.92c.02-.56-.05-1.08-.21-1.55-.16-.47-.4-.88-.72-1.22-.32-.34-.7-.61-1.14-.8-.44-.19-.93-.29-1.47-.29-.57,0-1.1.1-1.59.31-.49.21-.91.5-1.26.88-.35.38-.62.82-.82,1.33s-.29,1.07-.29,1.69c0,.81.17,1.52.52,2.15s.83,1.11,1.44,1.46c.62.35,1.32.52,2.11.52.41,0,.8-.05,1.19-.16.39-.11.74-.25,1.07-.43.33-.18.6-.39.84-.62l-.59-.83c-.45.38-.86.63-1.23.76-.37.13-.75.19-1.12.19-.64,0-1.19-.13-1.64-.38s-.8-.62-1.04-1.08c-.21-.4-.31-.87-.34-1.39h6.29l.02-.54Zm-5.03-2.41c.42-.23.91-.34,1.48-.34.49,0,.91.11,1.26.32.35.21.62.49.82.84.19.34.3.7.32,1.07v.11h-5.11c.05-.36.13-.69.27-.97.22-.45.54-.79.96-1.02Z"></path>
  <path class="cls-1" d="m297.07,29.4c.62,0,1.22-.14,1.8-.41.58-.28,1.04-.64,1.39-1.1l-.67-.83c-.22.28-.47.51-.73.69-.26.18-.54.32-.84.42s-.59.15-.9.15c-.53,0-1.01-.13-1.43-.4-.43-.27-.76-.63-1.01-1.1-.25-.47-.37-.99-.37-1.59s.12-1.12.37-1.58c.25-.46.59-.83,1.01-1.1.43-.27.91-.41,1.45-.41.31,0,.61.05.92.16.31.11.6.26.87.45.27.19.5.42.69.67l.67-.83c-.34-.48-.78-.86-1.34-1.13s-1.18-.41-1.86-.41c-.76,0-1.44.18-2.03.54s-1.06.85-1.4,1.48c-.34.63-.51,1.34-.51,2.14s.17,1.51.51,2.14c.34.63.81,1.12,1.4,1.49.59.36,1.26.54,2.01.54Z"></path>
  <path class="cls-1" d="m313.5,27.96c.04-.06.07-.12.11-.18v1.46h1.16v-8h-1.14l-.03,1.42s-.04-.09-.07-.13c-.19-.29-.42-.55-.7-.77-.28-.22-.6-.39-.95-.51-.36-.12-.74-.18-1.16-.18-.7,0-1.33.18-1.9.54s-1.01.85-1.35,1.47c-.33.62-.5,1.34-.5,2.15s.16,1.51.49,2.14c.33.63.77,1.12,1.33,1.49.56.36,1.18.54,1.88.54.4,0,.78-.06,1.14-.18.36-.12.69-.29.98-.51.29-.21.54-.46.74-.74Zm-2.59.33c-.54,0-1.02-.13-1.43-.4-.42-.27-.74-.63-.98-1.1-.23-.46-.35-.99-.35-1.57s.12-1.12.36-1.58.56-.82.98-1.09c.41-.27.89-.4,1.43-.4s1,.13,1.42.4c.42.27.75.63.98,1.09.24.46.36.99.36,1.58s-.12,1.12-.36,1.59c-.24.46-.57.83-.98,1.09s-.89.39-1.42.39Z"></path>
  <path class="cls-1" d="m323.16,21.42c-.4-.23-.89-.35-1.48-.35-.44,0-.86.09-1.27.27-.41.18-.76.41-1.06.7-.18.18-.31.37-.42.56l-.04-1.36h-1.13v8h1.14v-4.88c0-.31.06-.59.18-.86s.29-.5.5-.71c.21-.2.47-.37.76-.48.29-.12.62-.18.96-.18.42,0,.77.07,1.05.23.28.16.5.42.63.76s.21.78.21,1.31v4.8h1.16v-4.86c0-.76-.1-1.38-.3-1.87-.2-.49-.5-.85-.9-1.09Z"></path>
  <path class="cls-1" d="m328.6,21.61c-.57.36-1.02.85-1.36,1.48-.34.63-.5,1.35-.5,2.15s.17,1.51.5,2.14c.33.63.78,1.12,1.36,1.48.57.36,1.22.54,1.95.54.39,0,.76-.06,1.12-.18s.68-.29.97-.51c.28-.21.52-.46.71-.73.03-.04.04-.08.06-.11l.02,1.38h1.13v-11.34h-1.14v4.62c-.19-.28-.44-.53-.73-.75-.29-.22-.63-.39-1-.51-.37-.12-.76-.18-1.15-.18-.71,0-1.35.18-1.92.54Zm3.52.91c.42.27.75.64.98,1.1.24.47.36,1,.36,1.6s-.12,1.14-.36,1.61-.57.84-.98,1.1c-.42.27-.89.4-1.42.4s-1.03-.14-1.45-.41c-.42-.27-.74-.64-.98-1.11-.23-.47-.35-1-.35-1.59s.12-1.14.36-1.6c.24-.46.56-.83.98-1.1.41-.27.89-.41,1.44-.41s1,.14,1.42.41Z"></path>
  <polygon class="cls-1" points="344.22 18.51 343.03 18.51 343.03 29.24 349.35 29.24 349.35 28.08 344.22 28.08 344.22 18.51"></polygon>
  <path class="cls-1" d="m355.92,29.21c.36-.12.69-.29.98-.51.29-.21.54-.46.74-.74.04-.06.07-.12.11-.18v1.46h1.16v-8h-1.14l-.03,1.42s-.04-.09-.07-.13c-.19-.29-.42-.55-.7-.77-.28-.22-.6-.39-.95-.51-.36-.12-.74-.18-1.16-.18-.7,0-1.33.18-1.9.54s-1.01.85-1.35,1.47c-.33.62-.5,1.34-.5,2.15s.16,1.51.49,2.14c.33.63.77,1.12,1.33,1.49.56.36,1.18.54,1.88.54.4,0,.78-.06,1.14-.18Zm-3.29-2.41c-.23-.46-.35-.99-.35-1.57s.12-1.12.36-1.58.56-.82.98-1.09c.41-.27.89-.4,1.43-.4s1,.13,1.42.4c.42.27.75.63.98,1.09.24.46.36.99.36,1.58s-.12,1.12-.36,1.59c-.24.46-.57.83-.98,1.09s-.89.39-1.42.39-1.02-.13-1.43-.4c-.42-.27-.74-.63-.98-1.1Z"></path>
  <path class="cls-1" d="m365.93,29.4c.71,0,1.35-.18,1.91-.54.56-.36,1.01-.85,1.33-1.48.33-.63.49-1.35.49-2.15s-.17-1.52-.5-2.15c-.33-.62-.79-1.11-1.35-1.47s-1.2-.54-1.91-.54c-.37,0-.72.06-1.06.17-.34.11-.65.27-.94.47-.28.2-.52.43-.71.69-.06.09-.11.18-.16.27v-4.77h-1.14v11.33h1.13l.03-1.33s.05.09.08.14c.2.27.44.5.73.71s.61.37.97.48c.36.12.72.18,1.1.18Zm-2.6-2.58c-.24-.47-.36-.99-.36-1.59s.12-1.12.36-1.58c.24-.46.57-.82.98-1.09.42-.27.89-.4,1.43-.4s1.02.13,1.43.4c.42.27.74.63.98,1.09s.36.99.36,1.58-.12,1.11-.36,1.57c-.24.47-.57.83-.98,1.1s-.9.41-1.43.41-1.02-.13-1.43-.4c-.42-.27-.75-.63-.98-1.1Z"></path>
  <path class="cls-1" d="m376.21,21.11c-.15-.03-.32-.04-.49-.04-.42,0-.8.09-1.14.28s-.64.43-.89.74c-.19.23-.32.47-.43.73l-.02-1.57h-1.14v8h1.16v-4.54c0-.33.05-.63.15-.92.1-.29.25-.54.44-.76.19-.22.43-.39.7-.51s.58-.18.93-.18c.12,0,.25.01.39.04.14.03.27.07.4.13l.32-1.29c-.1-.04-.23-.07-.38-.1Z"></path>
  <path class="cls-1" d="m384.26,22.66s-.04-.09-.07-.13c-.19-.29-.42-.55-.7-.77-.28-.22-.6-.39-.95-.51-.36-.12-.74-.18-1.16-.18-.7,0-1.33.18-1.9.54s-1.01.85-1.35,1.47c-.33.62-.5,1.34-.5,2.15s.16,1.51.49,2.14c.33.63.77,1.12,1.33,1.49.56.36,1.18.54,1.88.54.4,0,.78-.06,1.14-.18.36-.12.69-.29.98-.51.29-.21.54-.46.74-.74.04-.06.07-.12.11-.18v1.46h1.16v-8h-1.14l-.03,1.42Zm-.28,4.15c-.24.46-.57.83-.98,1.09s-.89.39-1.42.39-1.02-.13-1.43-.4c-.42-.27-.74-.63-.98-1.1-.23-.46-.35-.99-.35-1.57s.12-1.12.36-1.58.56-.82.98-1.09c.41-.27.89-.4,1.43-.4s1,.13,1.42.4c.42.27.75.63.98,1.09.24.46.36.99.36,1.58s-.12,1.12-.36,1.59Z"></path>
  <path class="cls-1" d="m394.53,22.52c-.19-.28-.44-.53-.73-.75-.29-.22-.63-.39-1-.51-.37-.12-.76-.18-1.15-.18-.71,0-1.35.18-1.92.54s-1.02.85-1.36,1.48c-.34.63-.5,1.35-.5,2.15s.17,1.51.5,2.14c.33.63.78,1.12,1.36,1.48.57.36,1.22.54,1.95.54.39,0,.76-.06,1.12-.18s.68-.29.97-.51c.28-.21.52-.46.71-.73.03-.04.04-.08.06-.11l.02,1.38h1.13v-11.34h-1.14v4.62Zm-.3,4.32c-.24.47-.57.84-.98,1.1-.42.27-.89.4-1.42.4s-1.03-.14-1.45-.41c-.42-.27-.74-.64-.98-1.11-.23-.47-.35-1-.35-1.59s.12-1.14.36-1.6c.24-.46.56-.83.98-1.1.41-.27.89-.41,1.44-.41s1,.14,1.42.41.75.64.98,1.1c.24.47.36,1,.36,1.6s-.12,1.14-.36,1.61Z"></path>
  <path class="cls-1" d="m404.29,28.86c.61-.36,1.1-.85,1.45-1.49.35-.63.53-1.35.53-2.16s-.17-1.51-.53-2.13c-.35-.62-.83-1.11-1.45-1.47-.62-.36-1.32-.54-2.1-.54s-1.5.18-2.11.54-1.1.85-1.45,1.47c-.35.62-.53,1.33-.53,2.13s.18,1.53.53,2.16c.35.63.83,1.13,1.45,1.49.62.36,1.32.54,2.11.54s1.48-.18,2.1-.54Zm-4.64-2.06c-.25-.46-.37-.99-.36-1.59-.01-.58.11-1.11.36-1.57.25-.47.59-.83,1.04-1.09.44-.26.94-.39,1.5-.39s1.06.13,1.5.39c.44.26.78.62,1.02,1.08s.37.99.37,1.58-.12,1.12-.37,1.59c-.24.47-.58.83-1.02,1.1-.44.27-.94.41-1.5.41s-1.06-.14-1.5-.41-.79-.64-1.04-1.1Z"></path>
  <path class="cls-1" d="m412.46,22.37c.14.03.27.07.4.13l.32-1.29c-.1-.04-.23-.07-.38-.1-.15-.03-.32-.04-.49-.04-.42,0-.8.09-1.14.28s-.64.43-.89.74c-.19.23-.32.47-.43.73l-.02-1.57h-1.14v8h1.16v-4.54c0-.33.05-.63.15-.92.1-.29.25-.54.44-.76.19-.22.43-.39.7-.51s.58-.18.93-.18c.12,0,.25.01.39.04Z"></path>
  <path class="cls-1" d="m89.28,40.82c-.4-.33-.88-.6-1.44-.83-.56-.23-1.19-.42-1.89-.56-.37-.08-.71-.17-1.01-.27-.3-.1-.57-.22-.78-.35-.22-.13-.38-.29-.5-.47-.11-.18-.17-.38-.17-.61,0-.29.08-.54.26-.75.17-.2.41-.36.71-.47.31-.11.67-.16,1.09-.16.38,0,.75.06,1.12.18.36.12.7.3,1.01.55.31.24.6.54.87.9l1.81-1.76c-.3-.5-.68-.92-1.13-1.26s-.98-.61-1.59-.8c-.61-.18-1.32-.28-2.14-.28-.66,0-1.29.1-1.88.29-.59.19-1.11.47-1.56.82-.45.36-.8.78-1.06,1.27-.25.49-.38,1.02-.38,1.6s.08,1.07.26,1.51.44.85.79,1.2c.36.35.8.65,1.33.88s1.16.44,1.87.6c.33.05.64.12.92.2s.53.18.76.29c.23.11.43.23.59.36s.29.29.38.46c.09.17.13.36.13.57,0,.28-.09.52-.27.73s-.42.36-.73.47c-.31.11-.67.16-1.06.16-.72,0-1.39-.16-2.01-.47-.62-.31-1.24-.9-1.86-1.77l-1.79,2.05c.42.56.89,1.04,1.42,1.44s1.13.7,1.81.9c.68.2,1.43.31,2.26.31,1.02,0,1.91-.17,2.67-.51s1.36-.83,1.79-1.47c.43-.64.65-1.41.65-2.32,0-.55-.11-1.04-.32-1.49-.22-.44-.52-.82-.92-1.15Z"></path>
  <path class="cls-1" d="m100.27,43.49c0,.28-.05.54-.15.79-.1.24-.24.45-.42.63s-.39.32-.65.41-.53.14-.82.14c-.41,0-.75-.09-1.03-.27-.28-.18-.5-.44-.65-.78-.15-.34-.23-.74-.23-1.2v-5.81h-2.71v6.25c0,.86.14,1.59.43,2.19.29.61.69,1.07,1.22,1.4.53.33,1.16.49,1.9.49.57,0,1.11-.11,1.6-.33.5-.22.92-.52,1.28-.9.12-.12.2-.26.3-.39l.06,1.43h2.57v-10.14h-2.71v6.07Z"></path>
  <path class="cls-1" d="m113.44,42.74c-.25-.27-.59-.5-1.02-.71-.43-.2-.94-.39-1.55-.56-.47-.13-.84-.24-1.12-.34-.27-.1-.48-.19-.62-.27-.13-.09-.23-.2-.29-.33-.07-.13-.11-.26-.11-.4s.03-.27.09-.39c.06-.12.14-.22.26-.3.11-.08.26-.13.43-.17s.37-.06.58-.06c.24,0,.51.05.82.15.3.1.6.24.89.42s.54.38.77.59l1.45-1.61c-.32-.32-.69-.6-1.12-.83s-.89-.42-1.38-.55c-.5-.13-1-.19-1.53-.19s-1.02.07-1.49.22c-.47.15-.89.35-1.25.62s-.65.59-.85.97-.3.79-.3,1.25c0,.38.06.73.18,1.04.12.31.3.6.52.87.27.28.63.53,1.08.76s1,.42,1.65.58c.42.11.76.22,1.03.32.27.1.46.18.59.24.23.17.34.39.34.67,0,.14-.03.27-.09.39-.06.12-.14.22-.26.31-.12.08-.25.15-.41.19-.16.04-.33.07-.52.07-.48,0-.97-.09-1.45-.28-.48-.19-.92-.49-1.32-.91l-1.68,1.46c.45.55,1.03.98,1.76,1.29.73.31,1.57.47,2.51.47.76,0,1.45-.14,2.06-.41s1.09-.66,1.44-1.15c.35-.49.52-1.05.52-1.68,0-.36-.05-.68-.15-.98-.1-.29-.26-.56-.48-.79Z"></path>
  <polygon class="cls-1" points="120.63 34.85 117.92 34.85 117.92 37.42 116.04 37.42 116.04 39.85 117.92 39.85 117.92 47.55 120.63 47.55 120.63 39.85 122.69 39.85 122.69 37.42 120.63 37.42 120.63 34.85"></polygon>
  <path class="cls-1" d="m132.34,38.76c-.19-.27-.42-.52-.68-.73-.31-.26-.67-.46-1.09-.6-.41-.15-.87-.22-1.36-.22-.88,0-1.66.23-2.34.68-.69.45-1.23,1.07-1.63,1.86-.4.79-.6,1.69-.6,2.71s.2,1.93.59,2.72c.39.79.93,1.42,1.6,1.88s1.43.69,2.27.69c.47,0,.92-.07,1.33-.22.42-.15.8-.34,1.13-.59.29-.21.53-.45.73-.72v1.34h2.73v-10.14h-2.69v1.35Zm-1.16,6.26c-.38.24-.83.36-1.33.36s-.93-.12-1.31-.36c-.38-.24-.67-.58-.89-1.03s-.32-.95-.32-1.54.11-1.08.32-1.51.51-.78.89-1.03.81-.37,1.31-.37.95.12,1.33.37c.38.25.68.59.89,1.03.21.43.31.94.31,1.51s-.11,1.1-.31,1.54c-.21.44-.51.78-.89,1.03Z"></path>
  <rect class="cls-1" x="138.91" y="37.42" width="2.71" height="10.14"></rect>
  <path class="cls-1" d="m140.25,32.38c-.51,0-.91.14-1.21.41-.3.27-.45.63-.45,1.06,0,.47.15.84.44,1.09.29.26.7.38,1.22.38s.91-.13,1.21-.4c.3-.27.45-.63.45-1.07s-.15-.82-.44-1.08c-.29-.26-.7-.39-1.22-.39Z"></path>
  <path class="cls-1" d="m153.18,37.67c-.51-.31-1.15-.46-1.92-.46-.56,0-1.09.12-1.6.34-.51.23-.94.53-1.31.91-.1.1-.16.21-.25.32l-.05-1.36h-2.59v10.14h2.71v-6.09c0-.27.05-.52.16-.75.11-.23.25-.43.44-.61.18-.18.41-.32.67-.41.26-.1.54-.14.85-.14.38-.03.7.04.96.18.26.15.46.37.58.68.13.31.19.69.19,1.15v6h2.71v-6.21c0-.91-.13-1.67-.39-2.29-.26-.62-.65-1.08-1.16-1.39Z"></path>
  <path class="cls-1" d="m165.3,38.76c-.19-.27-.42-.52-.68-.73-.31-.26-.67-.46-1.09-.6-.41-.15-.87-.22-1.36-.22-.88,0-1.66.23-2.34.68-.69.45-1.23,1.07-1.63,1.86-.4.79-.6,1.69-.6,2.71s.2,1.93.59,2.72c.39.79.93,1.42,1.6,1.88s1.43.69,2.27.69c.47,0,.92-.07,1.33-.22.42-.15.8-.34,1.13-.59.29-.21.53-.45.73-.72v1.34h2.73v-10.14h-2.69v1.35Zm-1.16,6.26c-.38.24-.83.36-1.33.36s-.93-.12-1.31-.36c-.38-.24-.67-.58-.89-1.03s-.32-.95-.32-1.54.11-1.08.32-1.51.51-.78.89-1.03.81-.37,1.31-.37.95.12,1.33.37c.38.25.68.59.89,1.03.21.43.31.94.31,1.51s-.11,1.1-.31,1.54c-.21.44-.51.78-.89,1.03Z"></path>
  <path class="cls-1" d="m179.75,37.89c-.69-.45-1.47-.68-2.35-.68-.42,0-.83.06-1.22.19-.39.13-.76.3-1.09.53-.3.2-.54.43-.74.68v-5.23h-2.71v14.14h2.55l.06-1.15c.21.24.46.46.76.66.34.22.72.4,1.14.53.42.13.85.19,1.3.19.86,0,1.64-.23,2.32-.68.68-.45,1.22-1.08,1.61-1.87.39-.79.59-1.7.59-2.72s-.2-1.93-.6-2.72c-.4-.79-.94-1.41-1.63-1.87Zm-.72,6.13c-.22.44-.51.79-.89,1.03s-.82.37-1.33.37-.95-.12-1.33-.37c-.38-.25-.68-.59-.9-1.03-.22-.44-.32-.96-.32-1.54s.11-1.08.32-1.53c.22-.45.51-.79.9-1.04.38-.24.83-.36,1.33-.36s.95.12,1.33.36c.38.24.68.59.89,1.04.21.45.32.96.32,1.53s-.11,1.1-.32,1.54Z"></path>
  <rect class="cls-1" x="184.99" y="33.37" width="2.71" height="14.18"></rect>
  <path class="cls-1" d="m199.09,38.63c-.43-.45-.93-.8-1.52-1.05-.58-.25-1.22-.37-1.91-.37-.74,0-1.42.13-2.05.39s-1.17.63-1.63,1.11c-.46.48-.81,1.04-1.07,1.7-.25.65-.38,1.37-.38,2.15,0,1.01.23,1.9.69,2.68.46.78,1.09,1.39,1.91,1.84.81.45,1.77.67,2.86.67.46,0,.92-.06,1.39-.17.47-.11.93-.28,1.37-.51.45-.22.85-.5,1.22-.83l-1.3-1.82c-.42.34-.81.59-1.18.73-.37.14-.78.21-1.22.21-.65,0-1.21-.12-1.69-.37-.48-.25-.85-.6-1.11-1.04-.15-.25-.24-.54-.31-.84h7.18l.02-.84c.03-.73-.08-1.4-.31-2.01-.23-.61-.56-1.15-.98-1.6Zm-4.8,1.22c.39-.22.86-.33,1.42-.33.38,0,.72.08,1.03.23s.56.37.75.65c.2.28.31.59.33.94v.08h-4.62c.05-.22.11-.43.2-.61.2-.42.5-.74.89-.96Z"></path>
  <path class="cls-1" d="m220.71,36.01c-.58-.59-1.26-1.05-2.06-1.38-.79-.33-1.68-.49-2.66-.49h-5.47v13.41h5.47c.98,0,1.87-.16,2.67-.49.8-.33,1.49-.79,2.06-1.38.57-.59,1.01-1.3,1.32-2.13.3-.82.46-1.73.46-2.71s-.15-1.9-.46-2.72c-.31-.82-.75-1.52-1.33-2.12Zm-1.36,6.54c-.17.51-.41.94-.73,1.29-.32.35-.71.63-1.17.82-.46.2-.97.3-1.54.3h-2.52v-8.24h2.52c.57,0,1.09.1,1.54.3.46.2.85.48,1.17.83s.57.79.73,1.29c.17.5.25,1.07.25,1.7s-.08,1.19-.25,1.71Z"></path>
  <path class="cls-1" d="m233.54,38.63c-.43-.45-.93-.8-1.52-1.05-.58-.25-1.22-.37-1.91-.37-.74,0-1.42.13-2.05.39s-1.17.63-1.63,1.11c-.46.48-.81,1.04-1.07,1.7-.25.65-.38,1.37-.38,2.15,0,1.01.23,1.9.69,2.68.46.78,1.09,1.39,1.91,1.84.81.45,1.77.67,2.86.67.46,0,.92-.06,1.39-.17.47-.11.93-.28,1.37-.51.45-.22.85-.5,1.22-.83l-1.3-1.82c-.42.34-.81.59-1.18.73-.37.14-.78.21-1.22.21-.65,0-1.21-.12-1.69-.37-.48-.25-.85-.6-1.11-1.04-.15-.25-.24-.54-.31-.84h7.18l.02-.84c.03-.73-.08-1.4-.31-2.01-.23-.61-.56-1.15-.98-1.6Zm-4.8,1.22c.39-.22.86-.33,1.42-.33.38,0,.72.08,1.03.23s.56.37.75.65c.2.28.31.59.33.94v.08h-4.62c.05-.22.11-.43.2-.61.2-.42.5-.74.89-.96Z"></path>
  <polygon class="cls-1" points="241.9 44.17 239.5 37.42 236.53 37.42 240.76 47.55 242.84 47.55 247.28 37.42 244.38 37.42 241.9 44.17"></polygon>
  <path class="cls-1" d="m257.49,38.63c-.43-.45-.93-.8-1.52-1.05-.58-.25-1.22-.37-1.91-.37-.74,0-1.42.13-2.05.39s-1.17.63-1.63,1.11c-.46.48-.81,1.04-1.07,1.7-.25.65-.38,1.37-.38,2.15,0,1.01.23,1.9.69,2.68.46.78,1.09,1.39,1.91,1.84.81.45,1.77.67,2.86.67.46,0,.92-.06,1.39-.17.47-.11.93-.28,1.37-.51.45-.22.85-.5,1.22-.83l-1.3-1.82c-.42.34-.81.59-1.18.73-.37.14-.78.21-1.22.21-.65,0-1.21-.12-1.69-.37-.48-.25-.85-.6-1.11-1.04-.15-.25-.24-.54-.31-.84h7.18l.02-.84c.03-.73-.08-1.4-.31-2.01-.23-.61-.56-1.15-.98-1.6Zm-4.8,1.22c.39-.22.86-.33,1.42-.33.38,0,.72.08,1.03.23s.56.37.75.65c.2.28.31.59.33.94v.08h-4.62c.05-.22.11-.43.2-.61.2-.42.5-.74.89-.96Z"></path>
  <rect class="cls-1" x="261.75" y="33.37" width="2.71" height="14.18"></rect>
  <path class="cls-1" d="m275.39,37.9c-.81-.46-1.72-.69-2.74-.69s-1.95.23-2.75.69c-.81.46-1.44,1.08-1.91,1.87-.46.79-.7,1.69-.7,2.71s.23,1.93.7,2.72c.46.79,1.1,1.42,1.91,1.87.81.45,1.73.68,2.75.68s1.93-.23,2.74-.68c.81-.45,1.44-1.08,1.9-1.87.46-.79.69-1.7.69-2.72s-.23-1.92-.69-2.71c-.46-.79-1.09-1.41-1.9-1.87Zm-.48,6.06c-.22.44-.53.79-.92,1.03-.39.25-.84.37-1.33.37s-.96-.12-1.35-.37c-.39-.25-.71-.59-.93-1.03s-.34-.94-.32-1.49c-.01-.56.1-1.06.32-1.49.23-.43.54-.78.93-1.03.39-.26.84-.38,1.35-.38s.94.12,1.33.37c.39.25.7.59.92,1.03.22.44.33.94.33,1.5s-.11,1.04-.33,1.49Z"></path>
  <path class="cls-1" d="m289.1,37.91c-.68-.45-1.46-.68-2.34-.68-.57,0-1.12.11-1.64.33-.52.22-.96.5-1.31.84-.08.08-.13.17-.2.25l-.04-1.23h-2.61v14.35h2.73v-5.34s.03.05.06.07c.37.37.82.67,1.34.89s1.08.33,1.67.33c.88,0,1.66-.23,2.35-.68.69-.45,1.23-1.08,1.62-1.87.39-.79.59-1.69.59-2.7s-.2-1.92-.6-2.71c-.4-.79-.94-1.41-1.62-1.86Zm-.73,6.09c-.22.44-.51.78-.9,1.03-.38.24-.82.36-1.32.36s-.95-.12-1.33-.36c-.38-.24-.68-.58-.9-1.03s-.32-.95-.32-1.52.11-1.08.32-1.52c.22-.44.51-.78.9-1.02.38-.24.83-.35,1.33-.35s.95.12,1.33.36c.38.24.67.58.89,1.01.22.43.32.94.32,1.51s-.11,1.08-.32,1.52Z"></path>
  <path class="cls-1" d="m308.27,37.69c-.52-.31-1.18-.47-1.96-.47-.33,0-.67.05-1.01.15-.34.1-.67.25-.99.43-.32.19-.6.4-.86.65-.21.21-.38.44-.53.68-.14-.34-.3-.65-.5-.89-.29-.35-.65-.61-1.07-.78-.42-.17-.89-.25-1.41-.25-.34,0-.69.05-1.03.16-.34.11-.67.26-.98.45-.31.19-.58.42-.81.69-.06.07-.11.16-.17.23l-.04-1.35h-2.61v10.14h2.71v-6.07c0-.27.05-.52.16-.75.11-.23.25-.43.43-.6s.39-.31.64-.4.52-.14.81-.14c.36,0,.65.08.9.23.24.15.43.38.56.68.13.3.2.66.2,1.08v5.98h2.71v-6.05c0-.28.05-.54.15-.77s.24-.43.43-.6.4-.31.65-.4.52-.14.81-.14c.38,0,.69.07.93.22.24.15.43.37.55.66.13.29.19.67.19,1.13v5.96h2.71v-6.15c0-.91-.13-1.67-.39-2.3-.26-.62-.65-1.09-1.17-1.41Z"></path>
  <path class="cls-1" d="m321.25,38.63c-.43-.45-.93-.8-1.52-1.05-.58-.25-1.22-.37-1.91-.37-.74,0-1.42.13-2.05.39s-1.17.63-1.63,1.11c-.46.48-.81,1.04-1.07,1.7-.25.65-.38,1.37-.38,2.15,0,1.01.23,1.9.69,2.68.46.78,1.09,1.39,1.91,1.84.81.45,1.77.67,2.86.67.46,0,.92-.06,1.39-.17.47-.11.93-.28,1.37-.51.45-.22.85-.5,1.22-.83l-1.3-1.82c-.42.34-.81.59-1.18.73-.37.14-.78.21-1.22.21-.65,0-1.21-.12-1.69-.37-.48-.25-.85-.6-1.11-1.04-.15-.25-.24-.54-.31-.84h7.18l.02-.84c.03-.73-.08-1.4-.31-2.01-.23-.61-.56-1.15-.98-1.6Zm-4.8,1.22c.39-.22.86-.33,1.42-.33.38,0,.72.08,1.03.23s.56.37.75.65c.2.28.31.59.33.94v.08h-4.62c.05-.22.11-.43.2-.61.2-.42.5-.74.89-.96Z"></path>
  <path class="cls-1" d="m333.2,37.67c-.51-.31-1.15-.46-1.92-.46-.56,0-1.09.12-1.6.34-.51.23-.94.53-1.31.91-.1.1-.16.21-.25.32l-.05-1.36h-2.59v10.14h2.71v-6.09c0-.27.05-.52.16-.75.11-.23.25-.43.44-.61.18-.18.41-.32.67-.41.26-.1.54-.14.85-.14.38-.03.7.04.96.18.26.15.46.37.58.68.13.31.19.69.19,1.15v6h2.71v-6.21c0-.91-.13-1.67-.39-2.29-.26-.62-.65-1.08-1.16-1.39Z"></path>
  <polygon class="cls-1" points="341.98 34.85 339.27 34.85 339.27 37.42 337.38 37.42 337.38 39.85 339.27 39.85 339.27 47.55 341.98 47.55 341.98 39.85 344.04 39.85 344.04 37.42 341.98 37.42 341.98 34.85"></polygon>
  <polygon class="cls-1" points="353.61 36.61 355.84 36.61 355.84 45.08 353.61 45.08 353.61 47.55 360.93 47.55 360.93 45.08 358.7 45.08 358.7 36.61 360.93 36.61 360.93 34.14 353.61 34.14 353.61 36.61"></polygon>
  <path class="cls-1" d="m372.34,37.67c-.51-.31-1.15-.46-1.92-.46-.56,0-1.09.12-1.6.34-.51.23-.94.53-1.31.91-.1.1-.16.21-.25.32l-.05-1.36h-2.59v10.14h2.71v-6.09c0-.27.05-.52.16-.75.11-.23.25-.43.44-.61.18-.18.41-.32.67-.41.26-.1.54-.14.85-.14.38-.03.7.04.96.18.26.15.46.37.58.68.13.31.19.69.19,1.15v6h2.71v-6.21c0-.91-.13-1.67-.39-2.29-.26-.62-.65-1.08-1.16-1.39Z"></path>
  <path class="cls-1" d="m384.23,42.74c-.25-.27-.59-.5-1.02-.71-.43-.2-.94-.39-1.55-.56-.47-.13-.84-.24-1.12-.34-.27-.1-.48-.19-.62-.27-.13-.09-.23-.2-.29-.33-.07-.13-.11-.26-.11-.4s.03-.27.09-.39c.06-.12.14-.22.26-.3.11-.08.26-.13.43-.17s.37-.06.58-.06c.24,0,.51.05.82.15.3.1.6.24.89.42s.54.38.77.59l1.45-1.61c-.32-.32-.69-.6-1.12-.83s-.89-.42-1.38-.55c-.5-.13-1-.19-1.53-.19s-1.02.07-1.49.22c-.47.15-.89.35-1.25.62s-.65.59-.85.97-.3.79-.3,1.25c0,.38.06.73.18,1.04.12.31.3.6.52.87.27.28.63.53,1.08.76s1,.42,1.65.58c.42.11.76.22,1.03.32.27.1.46.18.59.24.23.17.34.39.34.67,0,.14-.03.27-.09.39-.06.12-.14.22-.26.31-.12.08-.25.15-.41.19-.16.04-.33.07-.52.07-.48,0-.97-.09-1.45-.28-.48-.19-.92-.49-1.32-.91l-1.68,1.46c.45.55,1.03.98,1.76,1.29.73.31,1.57.47,2.51.47.76,0,1.45-.14,2.06-.41s1.09-.66,1.44-1.15c.35-.49.52-1.05.52-1.68,0-.36-.05-.68-.15-.98-.1-.29-.26-.56-.48-.79Z"></path>
  <polygon class="cls-1" points="391.41 34.85 388.71 34.85 388.71 37.42 386.82 37.42 386.82 39.85 388.71 39.85 388.71 47.55 391.41 47.55 391.41 39.85 393.47 39.85 393.47 37.42 391.41 37.42 391.41 34.85"></polygon>
  <rect class="cls-1" x="396.43" y="37.42" width="2.71" height="10.14"></rect>
  <path class="cls-1" d="m397.76,32.38c-.51,0-.91.14-1.21.41-.3.27-.45.63-.45,1.06,0,.47.15.84.44,1.09.29.26.7.38,1.22.38s.91-.13,1.21-.4c.3-.27.45-.63.45-1.07s-.15-.82-.44-1.08c-.29-.26-.7-.39-1.22-.39Z"></path>
  <polygon class="cls-1" points="406.67 34.85 403.96 34.85 403.96 37.42 402.07 37.42 402.07 39.85 403.96 39.85 403.96 47.55 406.67 47.55 406.67 39.85 408.73 39.85 408.73 37.42 406.67 37.42 406.67 34.85"></polygon>
  <path class="cls-1" d="m418.03,43.49c0,.28-.05.54-.15.79-.1.24-.24.45-.42.63s-.39.32-.65.41-.53.14-.82.14c-.41,0-.75-.09-1.03-.27-.28-.18-.5-.44-.65-.78-.15-.34-.23-.74-.23-1.2v-5.81h-2.71v6.25c0,.86.14,1.59.43,2.19.29.61.69,1.07,1.22,1.4.53.33,1.16.49,1.9.49.57,0,1.11-.11,1.6-.33.5-.22.92-.52,1.28-.9.12-.12.2-.26.3-.39l.06,1.43h2.57v-10.14h-2.71v6.07Z"></path>
  <polygon class="cls-1" points="428.1 34.85 425.39 34.85 425.39 37.42 423.5 37.42 423.5 39.85 425.39 39.85 425.39 47.55 428.1 47.55 428.1 39.85 430.16 39.85 430.16 37.42 428.1 37.42 428.1 34.85"></polygon>
  <path class="cls-1" d="m441.96,42.25c.03-.73-.08-1.4-.31-2.01-.23-.61-.56-1.15-.98-1.6-.43-.45-.93-.8-1.52-1.05-.58-.25-1.22-.37-1.91-.37-.74,0-1.42.13-2.05.39s-1.17.63-1.63,1.11c-.46.48-.81,1.04-1.07,1.7-.25.65-.38,1.37-.38,2.15,0,1.01.23,1.9.69,2.68.46.78,1.09,1.39,1.91,1.84.81.45,1.77.67,2.86.67.46,0,.92-.06,1.39-.17.47-.11.93-.28,1.37-.51.45-.22.85-.5,1.22-.83l-1.3-1.82c-.42.34-.81.59-1.18.73-.37.14-.78.21-1.22.21-.65,0-1.21-.12-1.69-.37-.48-.25-.85-.6-1.11-1.04-.15-.25-.24-.54-.31-.84h7.18l.02-.84Zm-6.09-2.4c.39-.22.86-.33,1.42-.33.38,0,.72.08,1.03.23s.56.37.75.65c.2.28.31.59.33.94v.08h-4.62c.05-.22.11-.43.2-.61.2-.42.5-.74.89-.96Z"></path>
  <path class="cls-1" d="m47.46,4.32c-3.43-2.74-11.54-4.32-11.54-4.32,0,0-.06,2.53-.13,6.43,1.9-.25,3.89-.17,5.94-.08-2.03.4-4.02.78-5.96,1.17,0,.34,0,.69-.02,1.05,1.76-.28,3.5-.69,5.27-.85,3.02-.26,5.92.15,8.78.99-.32-1.74-1-3.32-2.34-4.39Zm1.14,2.95c-1.18-.17-2.36-.33-3.54-.49,1.29-.65,2.43-.19,3.54.49Z"></path>
  <path class="cls-1" d="m49.97,44.14v.78c0,.51-.33.96-.82,1.12-.72.22-1.84.82-2.95,2.44-1.89,2.74-1.89,3.26-2.06,6.17,0,.01,0,.03,0,.05,0-.05,0-.11,0-.17.03-.77.06-1.38.11-1.9.15-1.62.52-2.47,1.94-4.68,1.12-1.73,2.23-2.37,2.95-2.61.49-.16.82-.65.82-1.19Z"></path>
  <path class="cls-1" d="m35.72,10.56s0,.08,0,.12v-.12h0Z"></path>
  <path class="cls-1" d="m36.02,9.42c-.08,0-.19.1-.28.15v-.1c.09-.02.19-.03.28-.05Z"></path>
  <path class="cls-1" d="m64.52,25.8c-.58-1.99-1.58-3.88-2.51-5.76-.95-1.95-2.14-3.76-4.06-4.93-1.05-.64-2.05-1.36-3.13-1.92-.78-.41-1.57-.79-2.38-1.14-.18-.08-.37-.16-.56-.24-.6-.25-1.2-.48-1.81-.68-.01-.23-.02-.47-.04-.7h0c-.47-.15-.94-.29-1.42-.43-.78-.22-1.57-.41-2.36-.58,0,0,0,0-.02,0-.76-.16-1.51-.29-2.27-.38-.21-.03-.42-.05-.63-.07-.1-.01-.2-.02-.31-.03-.13-.01-.26-.02-.4-.03-1.24-.09-2.49-.07-3.73.08-.17.02-.34.04-.51.07-.19.03-.39.06-.58.09-.06,0-.11.02-.17.03-.11.02-.23.04-.35.05-.19.03-.38.06-.56.09-.03,0-.06,0-.08.01-.07,0-.13.02-.19.03-.09,0-.17.02-.26.04-.02,0-.05,0-.07.01-.03,0-.05,0-.08,0-.08,0-.19.1-.28.15,0,.33-.01.66-.02.99h0s0,.08,0,.12v-.12c-.32.06-.63.12-.95.19-.1.02-.19.04-.29.07-.24.05-.48.11-.72.17-.12.03-.23.06-.34.09-.29.08-.58.15-.86.23-.35.09-.69.2-1.04.31-.39.12-.78.25-1.16.38-.27.09-.53.18-.8.28-.06.02-.12.04-.18.07-.31.11-.62.24-.93.36-.34.14-.68.27-1.01.42-2.93,1.26-5.39,3.06-6.5,6.24-.09.24-.22.47-.36.69-1.78,2.75-2.79,5.77-3.27,9.01-.56,3.79-.02,7.4,1.46,10.88,1.3,3.07,3.07,5.88,5.07,8.56,1.35,1.81,2.86,3.3,4.95,4.18,1.54.65,3.08,1.3,4.62,1.95,2.4,1.01,4.87,1.69,7.51,1.68.53,0,1.06,0,1.58-.02v.85c.09,0,.19,0,.29,0,.32,0,.64,0,.96-.02.09,0,.19,0,.29-.01,0-.21.01-.42.02-.62,0-.09,0-.18,0-.27v-.02s0,0,0-.26c0-.04,0-.08,0-.11,0-.05,0-.1,0-.15,0-.07,0-.13,0-.2,0,.13,0,.25,0,.35,0,.17,0,.3-.01.39.25-.02.5-.04.75-.07.16-.01.32-.03.48-.06.07,0,.14-.01.2-.02.1-.01.21-.03.31-.04.17-.02.33-.05.5-.08.25-.04.49-.09.74-.14.11-.02.22-.05.32-.07.15-.03.29-.07.43-.1.17-.04.34-.09.51-.14.1-.03.2-.06.29-.09.15-.05.3-.1.45-.15.11-.04.23-.09.35-.13.18-.07.36-.14.54-.22,1.77-.76,3.4-1.82,5.1-2.76,2.17-1.2,4.14-2.67,5.43-4.84,1.05-1.77,2.08-3.56,2.95-5.43,2.42-5.19,2.67-10.6,1.1-16.05Zm-21.59-7.52l.02-.02-.06,5.1v.02s0,.02,0,.03l-.03,2.77v.47s-.03,2.3-.03,2.3l-.25,21.22-.03,2.62-.03,2.46c-.38.02-.75.03-1.13.03-3.81.21-7.35-1.34-10.79-2.81-1.4-.56-2.78-1.13-3.91-2.15-1.15-.97-2.04-2.19-2.91-3.43-1.74-2.45-3.26-5.09-4.32-7.9-2.16-5.61-1.36-12.04,1.47-17.24.32-.61.74-1.13,1.01-1.78.27-.77.61-1.52,1.09-2.19,1.7-2.47,4.59-3.74,7.32-4.79,1.74-.66,3.53-1.2,5.35-1.58,0,.06,0,.12,0,.18,0,.42-.01.85-.02,1.28,0,.02,0,.05,0,.08-.13,7.84-.24,17.69-.17,24.97v.05c.07,2.79.2,5.03.42,6.2.99,5.44,5.08,5.67,5.08,5.67l.33-32.8,1.62-1.39-.03,2.63h0Zm18.38,25.04c-1.39,2.63-2.76,5.28-5.38,6.89-1.07.72-2.75,1.62-3.88,2.31-2.41,1.56-5.12,2.34-7.92,2.62,0-.13,0-.28.02-.44,0-.05,0-.11,0-.17.03-.77.06-1.38.11-1.9.15-1.62.52-2.47,1.94-4.68,1.12-1.73,2.23-2.37,2.95-2.61.49-.16.82-.65.82-1.19v-23.86c-.05.02-.11.05-.17.07l-2.47,1.08c.13-.11,1.77-1.47,2.63-3.2v-1.44c0-1.39.12-3.07.11-4.78,2.17.79,4.24,1.86,6.15,3.16l.95.63c2.3,1.38,3.4,3.82,4.5,6.19,3.51,6.79,3.43,14.69-.39,21.32Z"></path>
  <path class="cls-1" d="m50.02,10.43h0l-.06-.51-.1-.82-.05-.39c.02.13.05.26.07.39.04.27.08.54.1.81.02.17.03.34.05.51Z"></path>
  <path class="cls-1" d="m44.03,58.12c0,.19,0,.38,0,.58,0,.12,0,.25,0,.38h0v.2c0,.3,0,.6-.01.89,0,.27,0,.54,0,.81,0,.37,0,.73,0,1.06,0,.33,0,.63,0,.91,0,.99,0,1.64,0,1.64l-1.56.5.08-7.01c.2.01.41.02.61.03.31.01.62.01.93,0Z"></path>
  <path class="cls-1" d="m44.03,58.7c0,.19,0,.38,0,.58v-.19h0c0-.14,0-.26,0-.39Z"></path>
  <path class="cls-1" d="m49.15,45.33c-.72.24-1.84.88-2.95,2.61-1.42,2.21-1.8,3.06-1.94,4.68.15-1.59.53-2.44,1.95-4.63,1.11-1.72,2.23-2.36,2.95-2.59.49-.16.82-.64.82-1.18v-.08c0,.54-.33,1.03-.82,1.19Zm-13.65-7.42c-.08-7.28.04-17.13.17-24.97,0-.03,0-.06,0-.08,0-.43,0-.86.02-1.28-.1,4.15-.42,17.8-.19,26.33Zm7.42-19.64h0s-.34,31.89-.34,31.89l.25-21.22.03-2.3v-.47s.03-2.77.03-2.77c0,0,0-.02,0-.03v-.02l.06-5.1-.02.02Zm6.23,27.06c-.72.24-1.84.88-2.95,2.61-1.42,2.21-1.8,3.06-1.94,4.68-.05.53-.08,1.14-.11,1.9,0,.06,0,.11,0,.17,0-.02,0-.03,0-.05.17-2.91.17-3.43,2.06-6.17,1.11-1.62,2.23-2.22,2.95-2.44.49-.15.82-.61.82-1.12v-.78c0,.54-.33,1.03-.82,1.19Zm0,0c-.72.24-1.84.88-2.95,2.61-1.42,2.21-1.8,3.06-1.94,4.68-.05.53-.08,1.14-.11,1.9,0,.06,0,.11,0,.17,0-.02,0-.03,0-.05.17-2.91.17-3.43,2.06-6.17,1.11-1.62,2.23-2.22,2.95-2.44.49-.15.82-.61.82-1.12v-.78c0,.54-.33,1.03-.82,1.19Zm-6.23-27.06h0s-.34,31.89-.34,31.89l.25-21.22.03-2.3v-.47s.03-2.77.03-2.77c0,0,0-.02,0-.03v-.02l.06-5.1-.02.02Zm-7.42,19.64c-.08-7.28.04-17.13.17-24.97,0-.03,0-.06,0-.08,0-.43,0-.86.02-1.28-.1,4.15-.42,17.8-.19,26.33Zm0,0c-.08-7.28.04-17.13.17-24.97,0-.03,0-.06,0-.08,0-.43,0-.86.02-1.28-.1,4.15-.42,17.8-.19,26.33Zm7.42-19.64h0s-.34,31.89-.34,31.89l.25-21.22.03-2.3v-.47s.03-2.77.03-2.77c0,0,0-.02,0-.03v-.02l.06-5.1-.02.02Zm6.23,27.06c-.72.24-1.84.88-2.95,2.61-1.42,2.21-1.8,3.06-1.94,4.68-.05.53-.08,1.14-.11,1.9,0,.06,0,.11,0,.17,0-.02,0-.03,0-.05.17-2.91.17-3.43,2.06-6.17,1.11-1.62,2.23-2.22,2.95-2.44.49-.15.82-.61.82-1.12v-.78c0,.54-.33,1.03-.82,1.19Zm0,0c-.72.24-1.84.88-2.95,2.61-1.42,2.21-1.8,3.06-1.94,4.68-.05.53-.08,1.14-.11,1.9,0,.06,0,.11,0,.17,0-.02,0-.03,0-.05.17-2.91.17-3.43,2.06-6.17,1.11-1.62,2.23-2.22,2.95-2.44.49-.15.82-.61.82-1.12v-.78c0,.54-.33,1.03-.82,1.19Zm-6.23-27.06h0s-.34,31.89-.34,31.89l.25-21.22.03-2.3v-.47s.03-2.77.03-2.77c0,0,0-.02,0-.03v-.02l.06-5.1-.02.02Zm-7.42,19.64c-.08-7.28.04-17.13.17-24.97,0-.03,0-.06,0-.08,0-.43,0-.86.02-1.28-.1,4.15-.42,17.8-.19,26.33Zm0,0c-.08-7.28.04-17.13.17-24.97,0-.03,0-.06,0-.08,0-.43,0-.86.02-1.28-.1,4.15-.42,17.8-.19,26.33Zm7.42-19.64h0s-.34,31.89-.34,31.89l.25-21.22.03-2.3v-.47s.03-2.77.03-2.77c0,0,0-.02,0-.03v-.02l.06-5.1-.02.02Zm6.23,27.06c-.72.24-1.84.88-2.95,2.61-1.42,2.21-1.8,3.06-1.94,4.68-.05.53-.08,1.14-.11,1.9,0,.06,0,.11,0,.17,0-.02,0-.03,0-.05.17-2.91.17-3.43,2.06-6.17,1.11-1.62,2.23-2.22,2.95-2.44.49-.15.82-.61.82-1.12v-.78c0,.54-.33,1.03-.82,1.19Zm0,0c-.72.24-1.84.88-2.95,2.61-1.42,2.21-1.8,3.06-1.94,4.68-.05.53-.08,1.14-.11,1.9,0,.06,0,.11,0,.17,0-.02,0-.03,0-.05.17-2.91.17-3.43,2.06-6.17,1.11-1.62,2.23-2.22,2.95-2.44.49-.15.82-.61.82-1.12v-.78c0,.54-.33,1.03-.82,1.19Zm-6.23-27.06h0s-.34,31.89-.34,31.89l.25-21.22.03-2.3v-.47s.03-2.77.03-2.77c0,0,0-.02,0-.03v-.02l.06-5.1-.02.02Zm-7.42,19.64c-.08-7.28.04-17.13.17-24.97,0-.03,0-.06,0-.08,0-.43,0-.86.02-1.28-.1,4.15-.42,17.8-.19,26.33Zm8.59,17.73s0,.1,0,.15c0,.03,0,.07,0,.11,0,.26,0,.26,0,.26v.02h0c0-.09,0-.22.01-.39,0-.1,0-.22,0-.35,0,.07,0,.13,0,.2Zm-8.39-45.09v.12s0-.09,0-.12h0Zm13.44,34.77c-.72.24-1.84.88-2.95,2.61-1.42,2.21-1.8,3.06-1.94,4.68-.05.53-.08,1.14-.11,1.9,0,.06,0,.11,0,.17,0-.02,0-.03,0-.05.17-2.91.17-3.43,2.06-6.17,1.11-1.62,2.23-2.22,2.95-2.44.49-.15.82-.61.82-1.12v-.78c0,.54-.33,1.03-.82,1.19Zm-6.23-27.06h0s-.34,31.89-.34,31.89l.25-21.22.03-2.3v-.47s.03-2.77.03-2.77c0,0,0-.02,0-.03v-.02l.06-5.1-.02.02Zm-7.42,19.64c-.08-7.28.04-17.13.17-24.97,0-.03,0-.06,0-.08,0-.43,0-.86.02-1.28-.1,4.15-.42,17.8-.19,26.33Zm0,0c-.08-7.28.04-17.13.17-24.97,0-.03,0-.06,0-.08,0-.43,0-.86.02-1.28-.1,4.15-.42,17.8-.19,26.33Zm7.42-19.64h0s-.34,31.89-.34,31.89l.25-21.22.03-2.3v-.47s.03-2.77.03-2.77c0,0,0-.02,0-.03v-.02l.06-5.1-.02.02Zm6.23,27.06c-.72.24-1.84.88-2.95,2.61-1.42,2.21-1.8,3.06-1.94,4.68-.05.53-.08,1.14-.11,1.9,0,.06,0,.11,0,.17,0-.02,0-.03,0-.05.17-2.91.17-3.43,2.06-6.17,1.11-1.62,2.23-2.22,2.95-2.44.49-.15.82-.61.82-1.12v-.78c0,.54-.33,1.03-.82,1.19Zm0,0c-.72.24-1.84.88-2.95,2.61-1.42,2.21-1.8,3.06-1.94,4.68-.05.53-.08,1.14-.11,1.9,0,.06,0,.11,0,.17,0-.02,0-.03,0-.05.17-2.91.17-3.43,2.06-6.17,1.11-1.62,2.23-2.22,2.95-2.44.49-.15.82-.61.82-1.12v-.78c0,.54-.33,1.03-.82,1.19Zm-6.23-27.06h0s-.34,31.89-.34,31.89l.25-21.22.03-2.3v-.47s.03-2.77.03-2.77c0,0,0-.02,0-.03v-.02l.06-5.1-.02.02Zm-7.42,19.64c-.08-7.28.04-17.13.17-24.97,0-.03,0-.06,0-.08,0-.43,0-.86.02-1.28-.1,4.15-.42,17.8-.19,26.33Zm0,0c-.08-7.28.04-17.13.17-24.97,0-.03,0-.06,0-.08,0-.43,0-.86.02-1.28-.1,4.15-.42,17.8-.19,26.33Zm7.42-19.64h0s-.34,31.89-.34,31.89l.25-21.22.03-2.3v-.47s.03-2.77.03-2.77c0,0,0-.02,0-.03v-.02l.06-5.1-.02.02Zm6.23,27.06c-.72.24-1.84.88-2.95,2.61-1.42,2.21-1.8,3.06-1.94,4.68-.05.53-.08,1.14-.11,1.9,0,.06,0,.11,0,.17,0-.02,0-.03,0-.05.17-2.91.17-3.43,2.06-6.17,1.11-1.62,2.23-2.22,2.95-2.44.49-.15.82-.61.82-1.12v-.78c0,.54-.33,1.03-.82,1.19Zm0,0c-.72.24-1.84.88-2.95,2.61-1.42,2.21-1.8,3.06-1.94,4.68-.05.53-.08,1.14-.11,1.9,0,.06,0,.11,0,.17,0-.02,0-.03,0-.05.17-2.91.17-3.43,2.06-6.17,1.11-1.62,2.23-2.22,2.95-2.44.49-.15.82-.61.82-1.12v-.78c0,.54-.33,1.03-.82,1.19Zm-6.23-27.06h0s-.34,31.89-.34,31.89l.25-21.22.03-2.3v-.47s.03-2.77.03-2.77c0,0,0-.02,0-.03v-.02l.06-5.1-.02.02Zm-7.42,19.64c-.08-7.28.04-17.13.17-24.97,0-.03,0-.06,0-.08,0-.43,0-.86.02-1.28-.1,4.15-.42,17.8-.19,26.33Zm0,0c-.08-7.28.04-17.13.17-24.97,0-.03,0-.06,0-.08,0-.43,0-.86.02-1.28-.1,4.15-.42,17.8-.19,26.33Zm7.42-19.64h0s-.34,31.89-.34,31.89l.25-21.22.03-2.3v-.47s.03-2.77.03-2.77c0,0,0-.02,0-.03v-.02l.06-5.1-.02.02Zm6.23,27.06c-.72.24-1.84.88-2.95,2.61-1.42,2.21-1.8,3.06-1.94,4.68.15-1.59.53-2.44,1.95-4.63,1.11-1.72,2.23-2.36,2.95-2.59.49-.16.82-.64.82-1.18v-.08c0,.54-.33,1.03-.82,1.19Zm-6.23-27.06h0s-.34,31.89-.34,31.89l.25-21.22.03-2.3v-.47s.03-2.77.03-2.77c0,0,0-.02,0-.03v-.02l.06-5.1-.02.02Zm-7.42,19.64c-.08-7.28.04-17.13.17-24.97,0-.03,0-.06,0-.08,0-.43,0-.86.02-1.28-.1,4.15-.42,17.8-.19,26.33Zm-3.81,18.06c.49.17.98.33,1.47.48-.5-.15-.99-.31-1.47-.48Zm2.22.69c.5.14,1,.26,1.51.37-.51-.11-1.01-.24-1.51-.37Zm4.59.92c-.26-.04-.52-.08-.78-.11.26.04.52.08.78.12.17.02.33.05.5.07-.17-.03-.34-.05-.5-.08Zm10.65-12.18c-.72.24-1.84.87-2.95,2.59-1.41,2.18-1.8,3.03-1.95,4.63-.05.53-.08,1.14-.11,1.9,0,.06,0,.11,0,.17,0-.02,0-.03,0-.05.17-2.91.17-3.43,2.06-6.17,1.11-1.62,2.23-2.22,2.95-2.44.49-.15.82-.61.82-1.12v-.7c0,.54-.33,1.03-.82,1.18Zm-5.05,10.25s0,.1,0,.15c0,.03,0,.07,0,.11,0,.26,0,.26,0,.26v.02h0c0-.09,0-.22.01-.39,0-.1,0-.22,0-.35,0,.07,0,.13,0,.2Zm4.54.73c-.11.03-.22.06-.33.09.08-.02.17-.04.25-.06.02,0,.05-.01.08-.02.05-.01.09-.03.14-.04-.05.01-.09.03-.14.04Zm1.34-46.46s.01,0,.02,0l.02-.78s-.09-.02-.14-.03c-.02-.13-.05-.26-.07-.39l.05.39.1.82.06.51h0c-.01-.17-.03-.34-.05-.51Zm-14.23-1.35h0s0,0,0,0c0,.16-.03.59-.04.75v.15s.04,0,.04,0v-.08c0-.27,0-.54.01-.81h0s0,0,0,0Z"></path>
  <path class="cls-1" d="m35.75,8.57h0c0,.27,0,.54-.01.82v-.81s0,0,0,0h0Z"></path>
  <path class="cls-1" d="m60.68,51.83c1.07-1.34,2.08-2.73,3.23-4,1.67-1.84,2.44-4.15,3.45-6.34,1.21-2.67,1.4-5.52,1.07-8.35-.3-2.58-1-5.11-1.54-7.66-.12-.55-.33-1.08-.5-1.62,5.18,7.09,1.57,24.47-5.71,27.97Z"></path>
  <path class="cls-1" d="m37.84,58.89c-3.37.38-6.23-.98-9.27-2.67,3.25.94,6.25,1.8,9.27,2.67Z"></path>
  <path class="cls-1" d="m22.46,52.03c-2.58-2.39-4.07-5.41-5.25-8.64,1.74,2.86,3.47,5.72,5.25,8.64Z"></path>
  <path class="cls-1" d="m15.4,36.06c-1.4-4.98.97-16.07,5.3-18.77-3.52,5.77-6.04,11.82-5.3,18.77Z"></path>
  <path class="cls-1" d="m66.75,38.69c-.88,2.69-2.21,5.31-3.79,7.67-1.56,2.33-3.51,4.49-5.6,6.38-3.12,2.83-6.98,4.26-11.1,5.12-.08.02-.16.03-.24.05-.04,0-.08.01-.12.02-.1.01-.2.03-.3.05s-.2.03-.3.04h-.01c-.07,0-.14.01-.21.02-.09,0-.17.02-.26.02-.12,0-.25.02-.36.02-.12,0-.24.01-.35.01-.02,0-.05,0-.07,0,0-.35,0-.69.02-1.03.16,0,.32-.02.48-.03.03,0,.07,0,.1,0,.22-.01.44-.03.66-.06s.43-.05.65-.08c.05,0,.09-.01.14-.02.14-.01.27-.03.41-.06.04,0,.08-.01.11-.02.22-.03.44-.07.66-.12.04,0,.09-.01.12-.02.08-.01.17-.03.25-.05.04,0,.09-.01.13-.03.02,0,.04,0,.06-.01.15-.03.29-.07.44-.1.01,0,.03,0,.04,0t0,0c.08-.02.17-.04.25-.06.02,0,.05-.01.08-.02.05-.01.09-.03.14-.04.1-.02.21-.06.31-.09.1-.03.2-.06.3-.09.09-.02.17-.05.26-.09.04-.01.09-.03.13-.04.05-.02.09-.03.14-.05.02,0,.04-.01.05-.02.04,0,.07-.02.1-.04.06-.02.12-.04.18-.07.04-.01.07-.03.11-.04.03,0,.07-.02.09-.04.18-.07.37-.14.55-.22.23-.1.46-.21.69-.32.09-.04.18-.09.28-.14.1-.05.2-.1.3-.16,0,0,.02,0,.03-.02.07-.03.13-.07.2-.1.13-.08.27-.15.4-.23,0,0,.01,0,.02-.01h.02c.37-.23.73-.45,1.1-.68.25-.15.5-.31.74-.46.26-.16.51-.32.76-.49.35-.23.7-.46,1.04-.7.2-.13.4-.27.59-.41.02-.01.04-.03.06-.04.32-.23.63-.46.94-.69,0,0,0,0,.01-.01.32-.24.63-.49.95-.74,1.17-.95,2.13-2.27,2.88-3.59,1.83-3.2,3.44-6.52,3.98-10.23.83-5.73.05-11.14-2.9-16.23-1.33-2.3-2.68-4.48-4.94-5.95-2.55-1.66-5.25-2.98-8.13-3.92-.01-.17-.03-.34-.05-.51,0,0,.01,0,.02,0l.02-.78s-.09-.02-.14-.03c-.02-.13-.05-.26-.07-.39.89.26,1.78.56,2.66.89,3.31,1.25,6.25,2.95,8.56,5.59.95,1.08,1.49,2.51,2.2,3.8.14.25.16.57.31.81,1.61,2.74,2.34,5.8,3.04,8.83.76,3.3,1.23,6.78.17,10.05Z"></path>
  <path class="cls-1" d="m50.02,10.43h0l-.06-.51-.1-.82-.05-.39c.02.13.05.26.07.39.05,0,.09.02.14.03l-.02.78s-.01,0-.02,0c.02.17.03.34.05.51Z"></path>
  <path class="cls-1" d="m35.74,8.57h0s0,0,0,0c0,.16-.03.59-.04.75v.15s-.05,0-.05,0c-2.71.48-5.39,1.15-7.89,2.44-.1.05-.23.09-.34.12-.05-.07-.09-.13-.14-.2.35-.26.68-.56,1.06-.77,1.91-1.08,3.84-2.06,6.1-2.32.44-.05.87-.11,1.31-.18Z"></path>
  <path class="cls-1" d="m35.75,8.57h0c0,.27,0,.54-.01.82v.08h-.05s0-.14,0-.14c0-.16.03-.59.04-.75h0s0,0,0,0Z"></path>
  <path class="cls-1" d="m42.5,57.13v.95c-.2,0-.4-.03-.59-.05-.14-.01-.28-.03-.42-.04l-.5-.06c-.24-.03-.47-.06-.7-.09-.43-.06-.86-.12-1.29-.18-.17-.03-.34-.05-.5-.08-.26-.04-.52-.08-.78-.11-.26-.04-.52-.09-.78-.13-.52-.09-1.02-.19-1.53-.3-.51-.11-1.01-.24-1.51-.37-.25-.07-.5-.14-.74-.21-.5-.15-.99-.31-1.47-.48-.4-.14-.79-.29-1.19-.45-.12-.05-.25-.1-.37-.15-.16-.07-.31-.13-.47-.2-.08-.03-.16-.07-.23-.1-.62-.28-1.23-.58-1.83-.92-.11-.06-.22-.12-.34-.19-.17-.09-.34-.19-.51-.29-1.81-1.08-3.23-2.51-4.42-4.25-2.18-3.18-4.21-6.42-5.2-10.2-.12-.45-.16-.93-.02-1.45.18.55.35,1.12.57,1.66,1.62,3.97,3.83,7.6,6.49,10.94.07.09.14.17.22.26.06.07.12.14.19.21.09.1.18.2.28.29.05.05.09.09.14.13.05.05.09.09.14.13.09.08.18.16.28.24.11.09.23.18.35.27h0c.23.18.47.35.72.5.16.1.33.2.49.29.15.09.31.17.46.26.19.1.39.21.59.3.01,0,.03.02.05.02.38.19.77.36,1.15.53.27.12.54.23.81.35,1.95.84,3.94,1.63,5.98,2.17,1.75.47,3.6.71,5.42.78.35.01.69.02,1.04.02Z"></path>
  <path class="cls-1" d="m52.94,54.57s-.01,0-.02.01c-.13.08-.27.16-.4.23-.07.04-.13.07-.2.1.2-.11.4-.22.6-.34h.02Z"></path>
  <path class="cls-1" d="m36.02,9.42c-.08,0-.19.1-.28.15-.02,0-.04.01-.06.02v-.11s.02-.15.02-.15c0-.16.03-.59.04-.75h.01c0,.26,0,.53-.01.81v.08c.09-.02.19-.03.28-.05Z"></path>
  <path class="cls-1" d="m50.02,9.14l-.02.78s-.01,0-.02,0h-.02l-.1-.82s.01,0,.02,0c.05,0,.09.02.14.03Z"></path>
</svg>
